<svg xmlns="http://www.w3.org/2000/svg" xmlns:xlink="http://www.w3.org/1999/xlink" viewBox="0 0 1920 1080"><defs><style>.cls-1,.cls-22,.cls-5{fill:none;}.cls-1,.cls-12,.cls-14,.cls-15,.cls-16,.cls-18,.cls-19,.cls-20,.cls-22{stroke:#333;}.cls-1,.cls-12,.cls-14,.cls-15,.cls-16,.cls-18,.cls-19,.cls-20,.cls-22,.cls-3,.cls-4,.cls-5{stroke-miterlimit:10;}.cls-2{fill:#f4f4f4;}.cls-3,.cls-4,.cls-6{fill:#d8be50;}.cls-3,.cls-4,.cls-5{stroke:#d8be50;}.cls-3,.cls-5{stroke-width:2px;}.cls-7{fill:#333;}.cls-8{fill:#c1272d;}.cls-9{fill:#009245;}.cls-10{isolation:isolate;}.cls-11{clip-path:url(#clip-path);}.cls-12{fill:#8d8d8d;}.cls-13{clip-path:url(#clip-path-2);}.cls-14{fill:#97abb5;}.cls-15{fill:#393939;}.cls-16,.cls-19,.cls-21{fill:#476d80;}.cls-17{clip-path:url(#clip-path-3);}.cls-18{fill:#ddd9d9;}.cls-19,.cls-20,.cls-22{stroke-width:3px;}.cls-20,.cls-23{fill:#dd8024;}.cls-24{fill:#006837;}.cls-25{font-size:18px;fill:#f2f2f2;}.cls-25,.cls-27,.cls-32{font-family:ArialMT, Arial;}.cls-26{letter-spacing:-0.06em;}.cls-27{font-size:25px;}.cls-27,.cls-32{fill:#0a313a;}.cls-28{letter-spacing:-0.06em;}.cls-29{letter-spacing:0em;}.cls-30{letter-spacing:-0.02em;}.cls-31{letter-spacing:-0.04em;}.cls-32{font-size:22px;}</style><clipPath id="clip-path"><path class="cls-1" d="M1855.16,904.13v40.25c0-17.3-22.37-31.38-49.86-31.38s-49.85,14.08-49.85,31.38V904.13c0-17.31,22.36-31.38,49.85-31.38S1855.16,886.82,1855.16,904.13Z"/></clipPath><clipPath id="clip-path-2"><path class="cls-1" d="M1855.16,904.13v40.25c0,17.31-22.37,31.39-49.86,31.39s-49.85-14.08-49.85-31.39V904.13c0,17.3,22.36,31.38,49.85,31.38S1855.16,921.43,1855.16,904.13Z"/></clipPath><clipPath id="clip-path-3"><path class="cls-1" d="M1857.12,904.13v40.25c0,18-23.25,32.62-51.82,32.62s-51.81-14.63-51.81-32.62V904.13c0,18,23.25,32.61,51.81,32.61S1857.12,922.11,1857.12,904.13Z"/></clipPath></defs><g id="arrows"><rect class="cls-2" width="1920" height="1080"/><line class="cls-3" x1="131" y1="633.93" x2="198.99" y2="633.93"/><path class="cls-4" d="M203.22,633.93a37.21,37.21,0,0,0-10.81,6.89l2.17-6.89-2.17-6.88A37,37,0,0,0,203.22,633.93Z"/><line class="cls-3" x1="208" y1="379.93" x2="140.23" y2="379.93"/><path class="cls-4" d="M136,379.93a37.39,37.39,0,0,1,10.82,6.89l-2.18-6.89,2.18-6.88A37.15,37.15,0,0,1,136,379.93Z"/><line class="cls-3" x1="279" y1="143.93" x2="140.23" y2="143.93"/><path class="cls-4" d="M136,143.93a37.39,37.39,0,0,1,10.82,6.89l-2.18-6.89,2.18-6.88A37.15,37.15,0,0,1,136,143.93Z"/><line class="cls-3" x1="1179" y1="143.93" x2="1032.23" y2="143.93"/><path class="cls-4" d="M1028,143.93a37.39,37.39,0,0,1,10.82,6.89l-2.18-6.89,2.18-6.88A37.15,37.15,0,0,1,1028,143.93Z"/><line class="cls-3" x1="885" y1="143.93" x2="357.23" y2="143.93"/><path class="cls-4" d="M353,143.93a37.39,37.39,0,0,1,10.82,6.89l-2.18-6.89,2.18-6.88A37.15,37.15,0,0,1,353,143.93Z"/><line class="cls-3" x1="1585" y1="379.93" x2="286.23" y2="379.93"/><path class="cls-4" d="M282,379.93a37.39,37.39,0,0,1,10.82,6.89l-2.18-6.89,2.18-6.88A37.15,37.15,0,0,1,282,379.93Z"/><line class="cls-3" x1="675" y1="633.93" x2="717.99" y2="633.93"/><path class="cls-4" d="M722.22,633.93a37.21,37.21,0,0,0-10.81,6.89l2.17-6.89-2.17-6.88A37,37,0,0,0,722.22,633.93Z"/><line class="cls-3" x1="1126" y1="716.93" x2="1189.99" y2="716.93"/><path class="cls-4" d="M1194.22,716.93a37.21,37.21,0,0,0-10.81,6.89l2.17-6.89-2.17-6.88A37,37,0,0,0,1194.22,716.93Z"/><line class="cls-3" x1="1343" y1="716.93" x2="1589.99" y2="716.93"/><path class="cls-4" d="M1594.22,716.93a37.21,37.21,0,0,0-10.81,6.89l2.17-6.89-2.17-6.88A37,37,0,0,0,1594.22,716.93Z"/><line class="cls-3" x1="1658.61" y1="636" x2="1658.61" y2="424.55"/><path class="cls-4" d="M1658.61,420.32a37.12,37.12,0,0,0,6.89,10.82l-6.89-2.18-6.88,2.18A37.09,37.09,0,0,0,1658.61,420.32Z"/><line class="cls-3" x1="1326" y1="919.93" x2="1745.99" y2="919.93"/><path class="cls-4" d="M1750.22,919.93a37.21,37.21,0,0,0-10.81,6.89l2.17-6.89-2.17-6.88A37,37,0,0,0,1750.22,919.93Z"/><path class="cls-3" d="M287.37,633.93q129.95.11,260.62,0"/><path class="cls-4" d="M552.22,633.93a37.21,37.21,0,0,0-10.81,6.89l2.17-6.89-2.17-6.88A37,37,0,0,0,552.22,633.93Z"/><path class="cls-5" d="M1297,143.23h492.21a16.1,16.1,0,0,1,16.1,16.1V872.75"/><path class="cls-5" d="M1179.93,920.18C1143,920,1105,921,1068,920c-9-1-15-7-15-16,0-16,0-33,.19-48.65"/><path class="cls-5" d="M870.35,634.38h16.2a8.6,8.6,0,0,1,8.6,8.61v65.34a8.61,8.61,0,0,0,8.6,8.61h37.69"/><path class="cls-6" d="M953.51,716.94c-5.68,2.1-12.72,5.7-17.09,9.51l3.44-9.51-3.44-9.51C940.79,711.23,947.83,714.83,953.51,716.94Z"/><path class="cls-5" d="M1372.7,599.17C1269,600,1165,597,1061,600c-8.24,5.5-8.46,15.24-8.06,24.57"/><path class="cls-6" d="M1053.19,636.63c-2.23-5.63-6-12.6-9.87-16.89l9.58,3.24,9.44-3.63C1058.62,623.79,1055.17,630.91,1053.19,636.63Z"/><path class="cls-5" d="M1485.09,540.13v14.26"/></g><g id="graphics"><path class="cls-7" d="M244.85,620.35a10.81,10.81,0,0,1-7.95,0,6.56,6.56,0,0,0-.43,1.35c-.21,2.24-.42,2.42-2.56,2.71a40.06,40.06,0,0,0-13.74,4.8c-.79.44-1.54.63-2-.21s.06-1.33.86-1.8a42.18,42.18,0,0,1,11.34-4.48c1.18-.29,2.39-.48,3.66-.74a7.2,7.2,0,0,0,.43-2.64,11.19,11.19,0,0,1-6-6.23,12.57,12.57,0,0,0-2.62-4.58,5.15,5.15,0,0,1-.77-5.91,5.15,5.15,0,0,0,.21-3.32,14.77,14.77,0,0,1,2.5-11.48,15.27,15.27,0,0,1,10.49-6.61,15.71,15.71,0,0,1,16.49,8.17A15.26,15.26,0,0,1,256,600.76a1,1,0,0,0,.08,1,6.21,6.21,0,0,1-1.62,8.15,1.59,1.59,0,0,0-.74,1.11c-.6,3.77-3,6.23-6.12,8.1-.44.26-.87.57-.56,1,.43.66-.36,1.83,1.23,2.07a40.2,40.2,0,0,1,13.14,4.47,7.66,7.66,0,0,1,1.69,1,1,1,0,0,1,.31,1.33c-.25.6-.67.65-1.2.63a3,3,0,0,1-1.37-.56,37.05,37.05,0,0,0-13.08-4.57c-2.25-.34-2.58-.6-2.85-3.11C244.89,621.07,244.88,620.8,244.85,620.35ZM227,604.77a3.52,3.52,0,0,0,1.89,3.52A1.77,1.77,0,0,1,230,610a6.29,6.29,0,0,0,1.09,3.33,12.4,12.4,0,0,0,6.47,4.83,8.55,8.55,0,0,0,4.47.55,13.92,13.92,0,0,0,6.34-3,7.36,7.36,0,0,0,3.1-5.78,1.62,1.62,0,0,1,1-1.52A3.91,3.91,0,0,0,254.7,605c0-.91,0-1.89-1.38-1.89a7.23,7.23,0,0,1-1.86-.53,20,20,0,0,1-4.66-2.21c.42,1.76.15,2.17-1.57,2.07a17,17,0,0,1-7.73-2.59,21.16,21.16,0,0,1-3.78-3,11.87,11.87,0,0,0-4.21,7.32c-.12.58-.07,1.19-.8,1.34A1.48,1.48,0,0,1,227,604.77Zm26.52-4c1.82-4.32.45-11.12-4.81-14.89A13.45,13.45,0,0,0,228,600.83c.26-.49.52-.91.71-1.36a13.88,13.88,0,0,1,4-4.93,1.52,1.52,0,0,1,2.4.22,10.47,10.47,0,0,0,1.89,1.82,15.53,15.53,0,0,0,6.68,3.35c-.38-1.24-.77-2.36-1.06-3.49-.15-.56-.17-1.24.49-1.53a1.33,1.33,0,0,1,1.73.52,5.64,5.64,0,0,0,.66.79A16.53,16.53,0,0,0,253.51,600.79Z"/><path class="cls-7" d="M209.9,663.68v-1.55c0-8.36.09-16.73-.05-25.09,0-3.2,1.79-4.88,5-4.88H243.2c7.85,0,15.71,0,23.56,0,2.45,0,4.07,1,4.63,3a4.16,4.16,0,0,1,.1,1.26q0,12.84,0,25.67v1.57c1.23,0,2.43.08,3.61,0,1-.09,1.66.38,1.63,1.28S276,666,275.12,666q-25,0-50.05,0H206.18c-1.19,0-1.75-.63-1.41-1.56a1.07,1.07,0,0,1,1.15-.75C207.2,663.7,208.47,663.68,209.9,663.68Zm59.3,0v-1.12c0-8.6,0-17.2,0-25.8a2.07,2.07,0,0,0-2.27-2.26q-26.26,0-52.52,0a2.07,2.07,0,0,0-2.27,2.26c.06,8.6,0,17.2,0,25.8,0,.36-.14.78.2,1.12Z"/><path class="cls-7" d="M240.71,645c2.24-.3,4.28,2,4.2,4.15a4.24,4.24,0,0,1-4.22,4.23,4.34,4.34,0,0,1-4.22-4.25C236.5,647,238.43,644.69,240.71,645Zm1.87,4.23a2.08,2.08,0,0,0-2-2.09,2.11,2.11,0,0,0-1.78,2.05,1.88,1.88,0,0,0,3.76,0Z"/><path class="cls-7" d="M97.16,181.71a37.4,37.4,0,1,1,37.53-35.27A37.2,37.2,0,0,1,97.16,181.71Zm.18-3.79a33.58,33.58,0,1,0-33.58-33.29A33.61,33.61,0,0,0,97.34,177.92Z"/><path class="cls-8" d="M77.75,144.3c0-5.55,0-11.1,0-16.65,0-2,1-2.89,2.93-2.89h33.18c2.15,0,3.2,1,3.2,3.21q0,16.47,0,32.94a3.05,3.05,0,0,1-3.11,3.16q-16.53,0-33.07,0c-2.09,0-3.11-1.06-3.11-3.12q0-8.32,0-16.65Z"/><path class="cls-7" d="M97.16,417.41a37.4,37.4,0,1,1,37.53-35.27A37.2,37.2,0,0,1,97.16,417.41Zm.18-3.79a33.58,33.58,0,1,0-33.58-33.29A33.61,33.61,0,0,0,97.34,413.62Z"/><path class="cls-8" d="M77.75,380c0-5.55,0-11.1,0-16.65,0-2,1-2.89,2.93-2.89h33.18c2.15,0,3.2,1,3.2,3.21q0,16.47,0,32.94a3.05,3.05,0,0,1-3.11,3.16H80.87c-2.09,0-3.11-1.06-3.11-3.12q0-8.32,0-16.65Z"/><path class="cls-7" d="M134.73,635.23c-.15,9-3.8,17.86-11,25.21a36.7,36.7,0,0,1-27.3,10.89A36.08,36.08,0,0,1,70.53,660,37.25,37.25,0,0,1,71.47,607a36.19,36.19,0,0,1,25.85-10.41C118,596.54,134.72,613.35,134.73,635.23Zm-5.54-.28c0-9.5-3.29-17.35-9.09-23.23a31.69,31.69,0,0,0-45.28-.29,31.86,31.86,0,0,0,21.7,54.37A32,32,0,0,0,129.19,635Z"/><path class="cls-9" d="M86.26,633.8q0-5.94,0-11.9a4.86,4.86,0,0,1,.14-1.2A3.65,3.65,0,0,1,89.53,618a4,4,0,0,1,2.45.58L99.54,623l9,5.17,4.32,2.5a3.52,3.52,0,0,1,1.8,2.59,3.58,3.58,0,0,1-1.78,3.8l-7.74,4.47-5,2.9q-3.76,2.18-7.54,4.34a8.21,8.21,0,0,1-1.45.73,3.53,3.53,0,0,1-3.77-.86,3.63,3.63,0,0,1-1.08-2.76c0-3.71,0-7.41,0-11.11Z"/><path class="cls-7" d="M1492.59,518.71v10h1.74c9.34,0,18.68,0,28,0,2.29,0,4.35.72,5.44,3.06,1.57,3.41,0,7.52-3.94,8.05a23.78,23.78,0,0,1-3.16.28q-36.23,0-72.46,0c-2.27,0-4.34-.55-5.58-2.68a5.67,5.67,0,0,1,5.07-8.74q14.23,0,28.46,0H1478v-10h-1.7c-11.78,0-23.56,0-35.35,0-4.93,0-9.2-1.43-12.5-5.22a12.66,12.66,0,0,1-3.43-8.37q-.06-25.31,0-50.61c0-4.62,2.31-8.15,5.89-10.93a15.07,15.07,0,0,1,9.61-2.92q43.71,0,87.43,0a14.59,14.59,0,0,1,14.44,10.68,12,12,0,0,1,.54,3.25q.06,25,0,50c0,6.82-6,13.43-12.76,13.74-7,.32-14,.27-21.06.33C1503.71,518.75,1498.23,518.71,1492.59,518.71Zm46.6-12.31a24.35,24.35,0,0,0,.29-2.5q0-24.21,0-48.41a10.21,10.21,0,0,0-.47-3.12,11.61,11.61,0,0,0-11.37-8.19q-42,0-84.06,0a35.08,35.08,0,0,0-5.8.32c-5,.83-9.12,5.06-9.17,10.2-.13,16.52,0,33.05,0,49.58,0,2.11,0,2.11,2.11,2.11h108.53Zm-1.6,3.59H1430.48a11.3,11.3,0,0,0,9.85,5.18q43.71.08,87.41,0A11.82,11.82,0,0,0,1537.59,510Zm-55.92,8.79v11c0,2.16-.29,2.46-2.4,2.46q-15.19,0-30.37,0a4.28,4.28,0,0,0-2.1.35,2.9,2.9,0,0,0-1.41,1.69c-.08.53.51,1.31,1,1.77a2.48,2.48,0,0,0,1.5.29h74.37c.25,0,.49,0,.74,0a1.72,1.72,0,0,0,1.79-1.72,1.76,1.76,0,0,0-1.52-2.1,16.13,16.13,0,0,0-2.28-.28q-14.52,0-29,0h-.89c-1.94,0-2-.11-2-2.12,0-3.27,0-6.55,0-9.82,0-.48,0-.95-.07-1.49Z"/><path class="cls-7" d="M1449.34,464c0-3.25,3.15-6.07,6.41-6.06,15.41,0,30.81,0,46.21,0a6.59,6.59,0,0,1,6.41,6.22c0,1,0,1.95,0,3.05H1516c0-1,0-2,0-3a1.72,1.72,0,0,1,2.71-1.55l14.12,8.12a1.63,1.63,0,0,1,0,3c-4.66,2.69-9.32,5.39-14,8-1.59.91-2.87.13-2.89-1.7v-2.75h-8c1.26.71,2.86.22,3,1.77.09,1.16,0,2.33,0,3.7h4.44c2.74,0,5.48,0,8.22,0,1.17,0,2,.32,2,1.67s-.84,1.57-2,1.57c-4.5,0-9,0-13.5,0-2.11,0-2.4-.29-2.41-2.44,0-.39,0-.77,0-1.4l-9.66,5.46,9.4,5.36c.14-.2.23-.27.23-.33-.07-3.62.3-3.43,3.53-3.42,4.15,0,8.31,0,12.47,0,1.6,0,2.42,1.2,1.62,2.47a2,2,0,0,1-1.5.71c-3.76.06-7.53,0-11.29,0H1511a21,21,0,0,1,0,2.88c-.09.65-.34,1.64-.76,1.79a3.46,3.46,0,0,1-2.41-.17c-2-1-3.92-2.21-6-3.41-1.55,3.79-4.68,4.51-8.27,4.5q-21.42,0-42.83,0c-5,0-7.88-2.84-7.8-7.76q.15-9.32,0-18.63C1442.86,468,1444.74,464.67,1449.34,464Zm49.35,27.91c-1.53-.88-3-1.68-4.42-2.58-1.64-1-1.59-2.24.06-3.21,1.24-.72,2.54-1.37,3.71-2.2a2.23,2.23,0,0,0,.91-1.54c.08-3.61,0-7.23,0-10.85a4,4,0,0,0-4.25-4.23q-22.08.1-44.16,0a4.17,4.17,0,0,0-4.45,4.48c.07,6.11.09,12.23,0,18.34-.05,3.49,1.71,4.72,4.87,4.81,2.5.07,5,0,7.48,0h36A4,4,0,0,0,1498.69,491.93Zm3.52-10.3,2.11-1.24c.12-.07.29-.08.4-.16.75-.57.53-2.65-.18-3.21-.48-.37-1.12-1.21-1-1.56a2.24,2.24,0,0,1,1.59-1.28c4.2-.11,8.41-.05,12.61-.07,1,0,1.51.5,1.47,1.53,0,.65,0,1.3,0,2.17l9.62-5.47-9.62-5.46c0,.94,0,1.57,0,2.2,0,1-.44,1.51-1.49,1.51-4.2,0-8.4,0-12.6-.06a2,2,0,0,1-1.52-1.16c-.13-.47.44-1.17.77-1.72.16-.26.61-.36.72-.62a4.34,4.34,0,0,0-4-5.83h-44.87a3.27,3.27,0,0,0-3.61,2.94h42.92a9,9,0,0,1,1.71.2c2.89.6,4.88,3.74,4.9,6.58C1502.23,474.39,1502.21,477.86,1502.21,481.63Z"/><path class="cls-7" d="M1470.4,470.37h3.7c-.76,2.14.76,2.63,2.18,3.11,1.07.37,1.16.93.7,1.86a23,23,0,0,0-1,2.46c-1.19-.36-2.31-.78-3.46-1-.42-.09-.94.27-1.41.43a5.17,5.17,0,0,0,1,1.21,11.88,11.88,0,0,0,1.71.73c1.8.87,3.38,2,3.67,4.16a5.14,5.14,0,0,1-2.75,5.73,2,2,0,0,0-.71,1.22,7,7,0,0,0,0,1.66h-4.1c1-3.44-2.74-2.34-3.83-4.13l1.39-3.79a10.85,10.85,0,0,0,1.47.76,14.5,14.5,0,0,0,2.86.74c.4.05.86-.45,1.29-.71-.26-.43-.43-1-.82-1.26a31.48,31.48,0,0,0-3-1.51,4.32,4.32,0,0,1-2.66-4c-.1-2.15.5-3.93,2.56-4.73C1470.85,472.7,1469.91,471.42,1470.4,470.37Z"/><path class="cls-7" d="M1487.77,482.62c-1.81,0-3.62-.05-5.42,0-1.12.05-1.63-.65-1.48-1.48.12-.64.86-1.65,1.35-1.67,3.76-.14,7.53-.11,11.29-.05a1.57,1.57,0,0,1,1.62,1.7c-.05,1-.75,1.5-1.78,1.49Z"/><path class="cls-7" d="M1456.34,482.62c-1.81,0-3.62-.05-5.43,0a1.51,1.51,0,0,1-1.7-1.42,1.59,1.59,0,0,1,1.62-1.81c3.71,0,7.42-.05,11.14,0,1,0,1.51.72,1.51,1.77s-.57,1.44-1.57,1.42C1460.05,482.6,1458.19,482.62,1456.34,482.62Z"/><g class="cls-10"><g class="cls-10"><g class="cls-11"><g class="cls-10"><path class="cls-12" d="M1855.16,904.13v40.25c0-17.3-22.37-31.38-49.86-31.38s-49.85,14.08-49.85,31.38V904.13c0-17.31,22.36-31.38,49.85-31.38s49.86,14.07,49.86,31.38"/></g></g><path class="cls-1" d="M1855.16,904.13v40.25c0-17.3-22.37-31.38-49.86-31.38s-49.85,14.08-49.85,31.38V904.13c0-17.31,22.36-31.38,49.85-31.38S1855.16,886.82,1855.16,904.13Z"/></g><g class="cls-10"><g class="cls-13"><g class="cls-10"><path class="cls-14" d="M1855.16,904.13v40.25c0,17.31-22.37,31.39-49.86,31.39s-49.85-14.08-49.85-31.39V904.13c0,17.3,22.36,31.38,49.85,31.38s49.86-14.08,49.86-31.38"/></g></g><path class="cls-1" d="M1855.16,904.13v40.25c0,17.31-22.37,31.39-49.86,31.39s-49.85-14.08-49.85-31.39V904.13c0,17.3,22.36,31.38,49.85,31.38S1855.16,921.43,1855.16,904.13Z"/></g><path class="cls-15" d="M1805.3,871.52c28.57,0,51.82,14.63,51.82,32.61s-23.25,32.61-51.82,32.61-51.81-14.63-51.81-32.61S1776.74,871.52,1805.3,871.52Zm0,64c27.49,0,49.86-14.08,49.86-31.38s-22.37-31.38-49.86-31.38-49.85,14.07-49.85,31.38,22.36,31.38,49.85,31.38"/><ellipse class="cls-16" cx="1805.3" cy="904.13" rx="49.85" ry="31.38"/><g class="cls-10"><g class="cls-17"><g class="cls-10"><path class="cls-18" d="M1857.12,904.13v40.25c0,18-23.25,32.62-51.82,32.62s-51.81-14.63-51.81-32.62V904.13c0,18,23.25,32.61,51.81,32.61s51.82-14.63,51.82-32.61"/></g></g><path class="cls-1" d="M1857.12,904.13v40.25c0,18-23.25,32.62-51.82,32.62s-51.81-14.63-51.81-32.62V904.13c0,18,23.25,32.61,51.81,32.61S1857.12,922.11,1857.12,904.13Z"/></g></g><circle class="cls-19" cx="1624.39" cy="677.43" r="33.48"/><rect class="cls-20" x="1668.19" y="712.05" width="66.95" height="66.95"/><path class="cls-21" d="M1716.25,690l-11.57,12.45V683.26a8.86,8.86,0,0,0-8.86-8.85h-38v6h38a2.82,2.82,0,0,1,2.82,2.82v19.16L1687.07,690l-3.18,3,17.77,19.11,17.77-19.11Z"/><path class="cls-22" d="M1716.25,690l-11.57,12.45V683.26a8.86,8.86,0,0,0-8.86-8.85h-38v6h38a2.82,2.82,0,0,1,2.82,2.82v19.16L1687.07,690l-3.18,3,17.77,19.11,17.77-19.11Z"/><path class="cls-23" d="M1630.23,742.51a2.83,2.83,0,0,1-2.82-2.83V720.53L1639,733l3.19-3L1624.4,710.9,1606.62,730l3.19,3,11.56-12.45v19.15a8.87,8.87,0,0,0,8.86,8.86h38v-6Z"/><path class="cls-22" d="M1630.23,742.51a2.83,2.83,0,0,1-2.82-2.83V720.53L1639,733l3.19-3L1624.4,710.9,1606.62,730l3.19,3,11.56-12.45v19.15a8.87,8.87,0,0,0,8.86,8.86h38v-6Z"/><circle class="cls-19" cx="1009.39" cy="678.43" r="33.48"/><rect class="cls-20" x="1053.19" y="713.05" width="66.95" height="66.95"/><path class="cls-21" d="M1101.25,691l-11.57,12.45V684.26a8.86,8.86,0,0,0-8.86-8.85h-38v6h38a2.82,2.82,0,0,1,2.82,2.82v19.16L1072.07,691l-3.18,3,17.77,19.11,17.77-19.11Z"/><path class="cls-22" d="M1101.25,691l-11.57,12.45V684.26a8.86,8.86,0,0,0-8.86-8.85h-38v6h38a2.82,2.82,0,0,1,2.82,2.82v19.16L1072.07,691l-3.18,3,17.77,19.11,17.77-19.11Z"/><path class="cls-23" d="M1015.23,743.51a2.83,2.83,0,0,1-2.82-2.83V721.53L1024,734l3.19-3L1009.4,711.9,991.62,731l3.19,3,11.56-12.45v19.15a8.87,8.87,0,0,0,8.86,8.86h38v-6Z"/><path class="cls-22" d="M1015.23,743.51a2.83,2.83,0,0,1-2.82-2.83V721.53L1024,734l3.19-3L1009.4,711.9,991.62,731l3.19,3,11.56-12.45v19.15a8.87,8.87,0,0,0,8.86,8.86h38v-6Z"/><path class="cls-23" d="M274.28,329.71h-7.2a4.82,4.82,0,0,0-4.8-4.79h-38.8a4.82,4.82,0,0,0-4.8,4.79h-8a4.81,4.81,0,0,0-4.8,4.8v112a4.81,4.81,0,0,0,4.8,4.8h4.08v3.89a.86.86,0,0,0,.86.86h5a.86.86,0,0,0,.86-.86V451.3h42.87v3.89a.87.87,0,0,0,.86.86h4.61a.87.87,0,0,0,.86-.86V451.3h3.6a4.81,4.81,0,0,0,4.8-4.8v-112A4.81,4.81,0,0,0,274.28,329.71Z"/><path class="cls-7" d="M205.48,391.22q0-28,0-55.93a6.34,6.34,0,0,1,4.83-6.31,7.19,7.19,0,0,1,1.86-.06H216c1.69,0,1.72,0,1.67-1.65a2.17,2.17,0,0,1,.79-1.78,1.9,1.9,0,0,1,1.31-.5h46.14a2.07,2.07,0,0,1,2.06,2.08c0,1.84,0,1.84,1.91,1.84,1.45,0,2.9.07,4.34,0,2.85-.18,5.59,2.71,5.82,5,.07.7.16,1.4.16,2.1V447.06c0,3.7-2.54,6.78-6.55,6.64-.59,0-.85.11-.75.74a6.46,6.46,0,0,1,0,.88,1.77,1.77,0,0,1-1.9,1.92h-7c-1.55,0-2.14-.58-2.14-2.1s0-1.43-1.42-1.43q-17.85,0-35.69,0c-.77,0-1,.17-1,.95.07,1,.25,2-1.08,2.46a2.75,2.75,0,0,1-.93.13h-6.9c-1.45,0-2.11-.66-2.11-2.13a2.54,2.54,0,0,1,0-.39c.2-.92-.25-1-1.06-1a6,6,0,0,1-6.07-5.12,13.7,13.7,0,0,1-.16-2.21Q205.47,418.79,205.48,391.22Zm72-3.28q0-26.4,0-52.79a3.74,3.74,0,0,0-3.68-3.7q-31,0-61.91,0a3.7,3.7,0,0,0-3.66,3.61q0,52.94,0,105.88c0,.87.23,1,1.07,1q33.57,0,67.13,0c.87,0,1.06-.2,1.06-1.05Q277.43,414.42,277.46,387.94ZM242.85,444.5h-34.2c-.21,0-.42,0-.4.29a21.54,21.54,0,0,0,.13,3.68c.39,1.6,2.1,2.7,4.17,2.7h60.71c2.52,0,4.49-1.72,4.21-4.14a6.26,6.26,0,0,1,0-1.56c.13-.86-.23-1-1-1Q259.65,444.52,242.85,444.5Zm0-115.58c7.26,0,14.53,0,21.79,0,.6,0,.83-.09.84-.78s-.48-.6-.9-.6H233.21c-4,0-8.08,0-12.12,0-.6,0-.84.09-.85.78s.48.6.9.6ZM218.3,453.71c-.78,0-1.56,0-2.35,0-.33,0-.63,0-.62.47s.17.52.57.52q2.4,0,4.8,0c.39,0,.58-.06.58-.52s-.29-.47-.63-.47C219.87,453.72,219.09,453.71,218.3,453.71Zm49.08,1c.85,0,1.69,0,2.54,0,.34,0,.46-.11.45-.45s0-.55-.45-.55c-1.66,0-3.33,0-5,0-.38,0-.5.12-.5.5s.11.51.5.5C265.75,454.67,266.56,454.69,267.38,454.69Z"/><path class="cls-7" d="M269.77,365.41v25.65a2.48,2.48,0,0,1-2.66,2.7c-16.2,0-32.39,0-48.59,0a2.67,2.67,0,0,1-2.58-2.43,3.74,3.74,0,0,1,0-.58v-51c0-2.08.94-3,3.05-3,16,0,31.93,0,47.9,0a2.78,2.78,0,0,1,2.89,2.94C269.75,348.24,269.77,356.82,269.77,365.41Zm-51.07-.05c0,8.29,0,16.58,0,24.87,0,.82.18,1,1,1q23.17,0,46.34,0c.82,0,1-.19,1-1q0-24.89,0-49.76c0-.82-.19-1-1-1q-23.17,0-46.34,0c-.81,0-1,.18-1,1C218.71,348.77,218.7,357.06,218.7,365.36Z"/><path class="cls-7" d="M274.89,393.07q0,19.83,0,39.66c0,.68-.22,1.19-.82,1.36a1.35,1.35,0,0,1-1.58-.46,1.19,1.19,0,0,1-.17-.82q0-39.72,0-79.42a1.42,1.42,0,0,1,1.3-1.55c.84,0,1.26.53,1.26,1.57Q274.9,373.24,274.89,393.07Z"/><path class="cls-7" d="M254.33,395.92a3.79,3.79,0,0,1,3.8,3.81,3.75,3.75,0,0,1-3.72,3.81,3.85,3.85,0,0,1-4-3.86A3.78,3.78,0,0,1,254.33,395.92Zm1,3.64c.14-.76-.57-1-1.05-1a1.08,1.08,0,0,0-1.11,1.22c.09.63.42,1.07,1.14,1S255.4,400.33,255.37,399.56Z"/><path class="cls-7" d="M235.26,399.75a4,4,0,0,1-3.84,3.81,3.92,3.92,0,0,1-3.83-3.89,3.74,3.74,0,0,1,3.87-3.75A3.79,3.79,0,0,1,235.26,399.75Zm-2.75,0a1.09,1.09,0,1,0-2.18,0,1,1,0,0,0,1.07,1.09C232.09,400.83,232.41,400.37,232.51,399.75Z"/><path class="cls-7" d="M274.89,342.44c0,1.59,0,3.19,0,4.79,0,.89-.52,1.21-1.25,1.26a1.12,1.12,0,0,1-1.32-1.19c0-3.36,0-6.72,0-10.08,0-.88.67-1.18,1.31-1.21a1.14,1.14,0,0,1,1.26,1.24C274.89,339,274.89,340.71,274.89,342.44Z"/><path class="cls-7" d="M242.85,370.65H225.41c-.81,0-1.4-.22-1.58-1.06a1.38,1.38,0,0,1,1.25-1.68,3.85,3.85,0,0,1,.59,0h34.4c1.32,0,1.76.34,1.81,1.32s-.39,1.41-1.38,1.42c-1.58,0-3.16,0-4.73,0Z"/><path class="cls-7" d="M242.75,386.51H225.4c-.8,0-1.39-.23-1.57-1.06a1.38,1.38,0,0,1,1.35-1.68,3.9,3.9,0,0,1,.59,0H260c1.45,0,1.88.33,1.9,1.42,0,.87-.43,1.31-1.39,1.32-1.71,0-3.41,0-5.12,0Z"/><path class="cls-7" d="M243,352H260.3c1.23,0,1.71.52,1.59,1.62-.11.89-.87.88-1.46,1.1a2.25,2.25,0,0,1-.78,0H226a3.6,3.6,0,0,1-1.33-.18,1.23,1.23,0,0,1-.87-1.51,1.2,1.2,0,0,1,1.27-1.06H243Z"/><path class="cls-7" d="M243,344.2h17.34c1.2,0,1.6.32,1.59,1.29s-.42,1.25-1.53,1.25q-17.54,0-35.08,0a1.24,1.24,0,0,1-1.39-.89,1.26,1.26,0,0,1,.42-1.48,1.4,1.4,0,0,1,1-.19Z"/><path class="cls-7" d="M242.85,360.07h17.54c1.09,0,1.5.35,1.49,1.29s-.42,1.25-1.53,1.25q-17.54,0-35.07,0c-.74,0-1.2-.23-1.4-.89a1.26,1.26,0,0,1,.41-1.48,1.4,1.4,0,0,1,1-.19Z"/><path class="cls-7" d="M242.85,375.94h17.54c1.09,0,1.5.35,1.49,1.28s-.42,1.26-1.53,1.26q-17.54,0-35.07,0c-.74,0-1.2-.23-1.4-.89a1.26,1.26,0,0,1,.41-1.48,1.4,1.4,0,0,1,1-.19Z"/><rect class="cls-9" x="241.61" y="406.43" width="65.7" height="36.09" rx="8.72"/><path class="cls-24" d="M274.43,406.05H304a3.83,3.83,0,0,1,4,3.89q0,14.34,0,28.68a4,4,0,0,1-4,4H244.87a3.85,3.85,0,0,1-3.92-3.91q0-14.4,0-28.8a3.91,3.91,0,0,1,3.89-3.89C254.7,406.07,264.57,406.05,274.43,406.05Zm-31.21,25.27a9,9,0,0,1,6.39,2.71,9.29,9.29,0,0,1,2.62,6.35h44.49a8.88,8.88,0,0,1,2.64-6.4,9.07,9.07,0,0,1,6.35-2.67V417.38a9.43,9.43,0,0,1-6.37-2.7,8.92,8.92,0,0,1-2.63-6.36H252.25c-.31,5.14-3.65,8.68-9,9.1Zm62.54,2.32c-3.71-.4-7.28,3.68-6.67,6.79H304a1.63,1.63,0,0,0,1.64-1.23,4.66,4.66,0,0,0,.12-1.24C305.77,436.52,305.76,435.08,305.76,433.64Zm-55.83,6.78c.16-4.09-3.85-7.26-6.74-6.74,0,1.75,0,3.5,0,5.24a1.7,1.7,0,0,0,1.42,1.49C246.37,440.45,248.13,440.42,249.93,440.42Zm49.12-32.15c-.38,3.71,3.36,7.07,6.7,6.78,0-1.78.06-3.57,0-5.36a1.63,1.63,0,0,0-1.66-1.43c-.68.06-1.38,0-2.07,0Zm-55.87,6.8c3.79.18,7.07-3.51,6.68-6.79-1.76,0-3.52,0-5.28,0a1.53,1.53,0,0,0-1.39,1.54c0,.85,0,1.69,0,2.54Z"/><path class="cls-24" d="M264.34,424.34c-.27-5.28,4.51-10.54,10.9-10.08a10.11,10.11,0,0,1-1.3,20.17A10.06,10.06,0,0,1,264.34,424.34Zm9.38-6.1c-1.79.54-2.3.83-3,1.71a2.84,2.84,0,0,0,.65,4c.64.36,1.33.64,2,1,.15.07.37.23.37.36,0,1.44,0,2.88,0,4.37-.75-.17-1.49-.18-2-.77.16-.19.3-.31.41-.45a1.18,1.18,0,0,0-.66-1.89,1.38,1.38,0,0,0-1.51.59,1.64,1.64,0,0,0,.29,1.77,5,5,0,0,0,3.45,1.52c.06.48-.13,1.09.74,1.06s.45-.68.63-1.05l.17-.05a5,5,0,0,0,3-1.43,2.77,2.77,0,0,0,0-3.95,7.93,7.93,0,0,0-2.77-1.49c-.15-.06-.36-.23-.36-.36,0-1.36,0-2.73,0-4.26l2,.52a6.31,6.31,0,0,0-.43.66,1.13,1.13,0,0,0,.23,1.41,1,1,0,0,0,1.33.13,1.11,1.11,0,0,0,.5-1.35,2.15,2.15,0,0,0-1.21-1.41c-.76-.32-1.57-.52-2.37-.78-.09-.37.19-.95-.55-1C274,417.09,273.82,417.29,273.72,418.24Z"/><path class="cls-24" d="M275.09,429.55v-4a2.69,2.69,0,0,1,1.81,1.05,1.82,1.82,0,0,1-.12,2.08A1.78,1.78,0,0,1,275.09,429.55Z"/><path class="cls-24" d="M273.74,419.13V423a1.92,1.92,0,0,1,0-3.83Z"/><path class="cls-23" d="M346.28,82.71h-7.2a4.82,4.82,0,0,0-4.8-4.79h-38.8a4.82,4.82,0,0,0-4.8,4.79h-8a4.81,4.81,0,0,0-4.8,4.8v112a4.81,4.81,0,0,0,4.8,4.8h4.08v3.89a.86.86,0,0,0,.86.86h5a.86.86,0,0,0,.86-.86V204.3h42.87v3.89a.87.87,0,0,0,.86.86h4.61a.87.87,0,0,0,.86-.86V204.3h3.6a4.81,4.81,0,0,0,4.8-4.8v-112A4.81,4.81,0,0,0,346.28,82.71Z"/><path class="cls-7" d="M277.48,144.22q0-28,0-55.93A6.34,6.34,0,0,1,282.31,82a7.19,7.19,0,0,1,1.86-.06c1.28,0,2.56,0,3.85,0,1.69,0,1.72,0,1.67-1.65a2.17,2.17,0,0,1,.79-1.78,1.9,1.9,0,0,1,1.31-.5h46.14A2.07,2.07,0,0,1,340,80.08c0,1.84,0,1.84,1.91,1.84,1.45,0,2.9.07,4.34,0,2.85-.18,5.59,2.71,5.82,5,.07.7.16,1.4.16,2.1V200.06c0,3.7-2.54,6.78-6.55,6.64-.59,0-.85.11-.75.74a6.46,6.46,0,0,1,0,.88,1.77,1.77,0,0,1-1.9,1.92h-7c-1.55,0-2.14-.58-2.14-2.1s0-1.43-1.42-1.43q-17.85,0-35.69,0c-.77,0-1,.17-1,.95.07,1,.25,2-1.08,2.46a2.75,2.75,0,0,1-.93.13h-6.9c-1.45,0-2.11-.66-2.11-2.13a2.54,2.54,0,0,1,0-.39c.2-.92-.25-1-1.06-1a6,6,0,0,1-6.07-5.12,13.7,13.7,0,0,1-.16-2.21Q277.48,171.79,277.48,144.22Zm72-3.28q0-26.4,0-52.79a3.74,3.74,0,0,0-3.68-3.7q-31,0-61.91,0a3.7,3.7,0,0,0-3.66,3.61q0,52.94,0,105.88c0,.87.23,1,1.07,1q33.57,0,67.13,0c.87,0,1.06-.2,1.06-1Q349.43,167.43,349.46,140.94ZM314.85,197.5h-34.2c-.21,0-.42,0-.4.29a21.54,21.54,0,0,0,.13,3.68c.39,1.6,2.1,2.7,4.17,2.7h60.71c2.52,0,4.49-1.72,4.21-4.14a6.26,6.26,0,0,1,0-1.56c.13-.86-.23-1-1-1Q331.65,197.52,314.85,197.5Zm0-115.58c7.26,0,14.53,0,21.79,0,.6,0,.83-.09.84-.78s-.48-.6-.9-.6H305.21c-4,0-8.08,0-12.12,0-.6,0-.84.09-.85.78s.48.6.9.6ZM290.3,206.71H288c-.33,0-.63-.05-.62.47s.17.52.57.52q2.4,0,4.8,0c.39,0,.58-.06.58-.52s-.29-.47-.63-.47Zm49.08,1c.85,0,1.69,0,2.54,0,.34,0,.46-.11.45-.45s0-.55-.45-.55c-1.66,0-3.33,0-5,0-.38,0-.5.12-.5.5s.11.51.5.5C337.75,207.67,338.56,207.69,339.38,207.69Z"/><path class="cls-7" d="M341.77,118.41v25.65a2.48,2.48,0,0,1-2.66,2.7c-16.2,0-32.39,0-48.59,0a2.67,2.67,0,0,1-2.58-2.43,3.74,3.74,0,0,1,0-.58v-51c0-2.08.94-3,3.05-3,16,0,31.93,0,47.9,0a2.78,2.78,0,0,1,2.89,2.94C341.75,101.24,341.77,109.82,341.77,118.41Zm-51.07,0c0,8.29,0,16.58,0,24.87,0,.82.18,1,1,1q23.18,0,46.34,0c.82,0,1-.19,1-1q0-24.89,0-49.76c0-.82-.19-1-1-1q-23.17,0-46.34,0c-.81,0-1,.18-1,1C290.71,101.77,290.7,110.06,290.7,118.36Z"/><path class="cls-7" d="M346.89,146.07q0,19.83,0,39.66c0,.68-.22,1.19-.82,1.36a1.35,1.35,0,0,1-1.58-.46,1.19,1.19,0,0,1-.17-.82q0-39.72,0-79.42a1.42,1.42,0,0,1,1.3-1.55c.84,0,1.26.53,1.26,1.57Q346.91,126.24,346.89,146.07Z"/><path class="cls-7" d="M326.33,148.92a3.79,3.79,0,0,1,3.8,3.81,3.75,3.75,0,0,1-3.72,3.81,3.85,3.85,0,0,1-4-3.86A3.78,3.78,0,0,1,326.33,148.92Zm1,3.64c.14-.76-.57-1-1.05-1a1.08,1.08,0,0,0-1.11,1.22c.09.63.42,1.07,1.14,1S327.4,153.33,327.37,152.56Z"/><path class="cls-7" d="M307.26,152.75a4,4,0,0,1-3.84,3.81,3.92,3.92,0,0,1-3.83-3.89,3.74,3.74,0,0,1,3.87-3.75A3.79,3.79,0,0,1,307.26,152.75Zm-2.75,0a1.09,1.09,0,1,0-2.18,0,1,1,0,0,0,1.07,1.09C304.09,153.83,304.41,153.37,304.51,152.75Z"/><path class="cls-7" d="M346.89,95.44c0,1.59,0,3.19,0,4.79,0,.89-.52,1.21-1.25,1.26a1.12,1.12,0,0,1-1.32-1.19c0-3.36,0-6.72,0-10.08,0-.88.67-1.18,1.31-1.21a1.14,1.14,0,0,1,1.26,1.24C346.89,92,346.89,93.71,346.89,95.44Z"/><path class="cls-7" d="M314.85,123.65c-5.81,0-11.63,0-17.44,0-.81,0-1.4-.22-1.58-1.06a1.38,1.38,0,0,1,1.25-1.68,3.85,3.85,0,0,1,.59,0h34.4c1.32,0,1.76.34,1.81,1.32s-.39,1.41-1.38,1.42c-1.58,0-3.16,0-4.73,0Z"/><path class="cls-7" d="M314.75,139.51H297.4c-.8,0-1.39-.23-1.57-1.06a1.38,1.38,0,0,1,1.35-1.68,3.9,3.9,0,0,1,.59,0H332c1.45,0,1.88.33,1.9,1.42,0,.87-.43,1.31-1.39,1.32-1.71,0-3.41,0-5.12,0Z"/><path class="cls-7" d="M315,105H332.3c1.23,0,1.71.52,1.59,1.62-.11.89-.87.88-1.46,1.1a2.25,2.25,0,0,1-.78,0H298a3.6,3.6,0,0,1-1.33-.18,1.23,1.23,0,0,1-.87-1.51,1.2,1.2,0,0,1,1.27-1.06H315Z"/><path class="cls-7" d="M315,97.2h17.34c1.2,0,1.6.32,1.59,1.29s-.42,1.25-1.53,1.25q-17.53,0-35.08,0a1.24,1.24,0,0,1-1.39-.89,1.26,1.26,0,0,1,.42-1.48,1.4,1.4,0,0,1,1-.19C303.2,97.19,309.07,97.2,315,97.2Z"/><path class="cls-7" d="M314.85,113.07h17.54c1.09,0,1.5.35,1.49,1.29s-.42,1.25-1.53,1.25q-17.53,0-35.07,0c-.74,0-1.2-.23-1.4-.89a1.26,1.26,0,0,1,.41-1.48,1.4,1.4,0,0,1,1-.19Z"/><path class="cls-7" d="M314.85,128.94h17.54c1.09,0,1.5.35,1.49,1.28s-.42,1.26-1.53,1.26q-17.53,0-35.07,0c-.74,0-1.2-.23-1.4-.89a1.26,1.26,0,0,1,.41-1.48,1.4,1.4,0,0,1,1-.19Z"/><rect class="cls-9" x="313.61" y="159.43" width="65.7" height="36.09" rx="8.72"/><path class="cls-24" d="M346.43,159.05H376a3.83,3.83,0,0,1,4,3.89q0,14.34,0,28.68a4,4,0,0,1-4,4H316.87a3.85,3.85,0,0,1-3.92-3.91q0-14.4,0-28.8a3.91,3.91,0,0,1,3.89-3.89C326.7,159.07,336.57,159.05,346.43,159.05Zm-31.21,25.27a9,9,0,0,1,6.39,2.71,9.29,9.29,0,0,1,2.62,6.35h44.49a8.88,8.88,0,0,1,2.64-6.4,9.07,9.07,0,0,1,6.35-2.67V170.38a9.43,9.43,0,0,1-6.37-2.7,8.92,8.92,0,0,1-2.63-6.36H324.25c-.31,5.14-3.65,8.68-9,9.1Zm62.54,2.32c-3.71-.4-7.28,3.68-6.67,6.79H376a1.63,1.63,0,0,0,1.64-1.23,4.66,4.66,0,0,0,.12-1.24C377.77,189.52,377.76,188.08,377.76,186.64Zm-55.83,6.78c.16-4.09-3.85-7.26-6.74-6.74,0,1.75,0,3.5,0,5.24a1.7,1.7,0,0,0,1.42,1.49C318.37,193.45,320.13,193.42,321.93,193.42Zm49.12-32.15c-.38,3.71,3.36,7.07,6.7,6.78,0-1.78.06-3.57,0-5.36a1.63,1.63,0,0,0-1.66-1.43c-.68.06-1.38,0-2.07,0Zm-55.87,6.8c3.79.18,7.07-3.51,6.68-6.79-1.76,0-3.52,0-5.28,0a1.53,1.53,0,0,0-1.39,1.54c0,.85,0,1.69,0,2.54Z"/><path class="cls-24" d="M336.34,177.34c-.27-5.28,4.51-10.54,10.9-10.08a10.11,10.11,0,0,1-1.3,20.17A10.06,10.06,0,0,1,336.34,177.34Zm9.38-6.1c-1.79.54-2.3.83-3,1.71a2.84,2.84,0,0,0,.65,4c.64.36,1.33.64,2,1,.15.07.37.23.37.36,0,1.44,0,2.88,0,4.37-.75-.17-1.49-.18-2-.77.16-.19.3-.31.41-.45a1.18,1.18,0,0,0-.66-1.89,1.38,1.38,0,0,0-1.51.59,1.64,1.64,0,0,0,.29,1.77,5,5,0,0,0,3.45,1.52c.06.48-.13,1.09.74,1.06s.45-.68.63-1.05l.17-.05a5,5,0,0,0,3-1.43,2.77,2.77,0,0,0,0-4,7.93,7.93,0,0,0-2.77-1.49c-.15-.06-.36-.23-.36-.36,0-1.36,0-2.73,0-4.26l2,.52a6.31,6.31,0,0,0-.43.66,1.13,1.13,0,0,0,.23,1.41,1,1,0,0,0,1.33.13,1.11,1.11,0,0,0,.5-1.35,2.15,2.15,0,0,0-1.21-1.41c-.76-.32-1.57-.52-2.37-.78-.09-.37.19-1-.55-1C346,170.09,345.82,170.29,345.72,171.24Z"/><path class="cls-24" d="M347.09,182.55v-4a2.69,2.69,0,0,1,1.81,1.05,1.82,1.82,0,0,1-.12,2.08A1.78,1.78,0,0,1,347.09,182.55Z"/><path class="cls-24" d="M345.74,172.13V176a1.92,1.92,0,0,1,0-3.83Z"/><rect class="cls-16" x="880.34" y="106" width="145.61" height="74.46"/><line class="cls-1" x1="893.85" y1="106.61" x2="893.85" y2="181"/><text class="cls-25" transform="translate(907.63 126.36)">DASA-FO<tspan class="cls-26" x="80.01" y="0">A</tspan><tspan x="4.99" y="21.6">Compliant</tspan><tspan x="26.5" y="43.2">Data</tspan></text><rect class="cls-16" x="724.34" y="595" width="145.61" height="74.46"/><line class="cls-1" x1="737.85" y1="595.61" x2="737.85" y2="670"/><text class="cls-25" transform="translate(738.61 615.36)">Mapping Logic<tspan x="48.04" y="21.6">for</tspan><tspan x="-1.49" y="43.2">SFIS</tspan><tspan class="cls-26" x="38.52" y="43.2"> </tspan><tspan x="42.53" y="43.2">Attributes</tspan></text><rect class="cls-16" x="1197.34" y="676" width="145.61" height="74.46"/><line class="cls-1" x1="1210.85" y1="676.61" x2="1210.85" y2="751"/><text class="cls-25" transform="translate(1244.64 696.37)">DDRS<tspan x="-32.53" y="21.6">Required Data</tspan><tspan x="-12.02" y="43.2">Gathered</tspan></text><rect class="cls-16" x="1585.34" y="343" width="145.61" height="74.46"/><line class="cls-1" x1="1598.85" y1="343.61" x2="1598.85" y2="418"/><text class="cls-25" transform="translate(1632.64 363.36)">DDRS<tspan x="-15.02" y="21.6">Compliant</tspan><tspan x="6.49" y="43.2">Data</tspan></text><rect class="cls-16" x="1180.34" y="882.37" width="145.61" height="74.46"/><line class="cls-1" x1="1193.85" y1="882.98" x2="1193.85" y2="957.37"/><text class="cls-25" transform="translate(1194.62 911.99)">SFIS Financial<tspan x="39.51" y="21.6">Data</tspan></text><path class="cls-7" d="M626.59,673.71v10h1.74c9.34,0,18.68,0,28,0,2.29,0,4.35.72,5.44,3.06,1.57,3.41,0,7.52-3.94,8.05a23.78,23.78,0,0,1-3.16.28q-36.23,0-72.46,0c-2.27,0-4.34-.55-5.58-2.68a5.67,5.67,0,0,1,5.07-8.74q14.24,0,28.46,0H612v-10h-1.7c-11.78,0-23.56,0-35.35,0-4.93,0-9.2-1.43-12.5-5.22a12.66,12.66,0,0,1-3.43-8.37q-.06-25.3,0-50.61c0-4.62,2.31-8.15,5.89-10.93a15.07,15.07,0,0,1,9.61-2.92q43.71,0,87.43,0a14.59,14.59,0,0,1,14.44,10.68,12,12,0,0,1,.54,3.25q.06,25,0,50c0,6.82-6,13.43-12.76,13.74-7,.32-14,.27-21.06.33C637.71,673.75,632.23,673.71,626.59,673.71Zm46.6-12.31a24.35,24.35,0,0,0,.29-2.5q0-24.21,0-48.41a10.21,10.21,0,0,0-.47-3.12,11.61,11.61,0,0,0-11.37-8.19q-42,0-84.06,0a35.08,35.08,0,0,0-5.8.32c-5,.83-9.12,5.06-9.17,10.2-.13,16.52-.05,33-.05,49.58,0,2.11,0,2.11,2.11,2.11H673.19Zm-1.6,3.59H564.48a11.3,11.3,0,0,0,9.85,5.18q43.71.08,87.41,0A11.82,11.82,0,0,0,671.59,665Zm-55.92,8.79v11c0,2.16-.29,2.46-2.4,2.46q-15.19,0-30.37,0a4.28,4.28,0,0,0-2.1.35,2.9,2.9,0,0,0-1.41,1.69c-.08.53.51,1.31,1,1.77a2.48,2.48,0,0,0,1.5.29h74.37c.25,0,.49,0,.74,0a1.72,1.72,0,0,0,1.79-1.72,1.76,1.76,0,0,0-1.52-2.1,16.13,16.13,0,0,0-2.28-.28q-14.52,0-29,0h-.89c-1.94,0-2-.11-2-2.12,0-3.27,0-6.55,0-9.82,0-.48,0-.95-.07-1.49Z"/><path class="cls-7" d="M611.12,621.19c.13-.43.24-.88.4-1.31a11.41,11.41,0,0,1,1.19-2.58.5.5,0,0,0,0-.55c-.09-.21-.22-.4-.33-.61-.45-.86-.9-1.73-1.36-2.63.47-.52,1-1,1.42-1.44s.91-.93,1.41-1.42l3.45,1.81a16,16,0,0,1,4.24-1.71c.37-1.13.75-2.25,1.08-3.37.09-.3.21-.38.49-.38h3.6a3.71,3.71,0,0,1,.31.75c.16.91.59,1.75.81,2.65a.55.55,0,0,0,.42.4,16.36,16.36,0,0,1,3.17,1.26l.7.39,3.51-1.75,2.82,2.81-1.77,3.5a13.17,13.17,0,0,1,1.53,3.61c.12.56.15.59.71.76l3.15,1v4.06c-1.09.35-2.2.74-3.33,1.07a.52.52,0,0,0-.43.46,15.12,15.12,0,0,1-1.28,3.22c-.11.21-.24.4-.36.6l1.78,3.52-2.81,2.81-3.53-1.76a14.74,14.74,0,0,1-3.56,1.56,1.27,1.27,0,0,1-.36.12c-.2,0-.26.13-.3.26-.29.86-.57,1.72-.85,2.58-.1.3-.19.6-.29.93h-3.71a.37.37,0,0,1-.41-.31c-.34-1.13-.7-2.25-1.07-3.42a16.66,16.66,0,0,1-4.26-1.73L614,638.11l-2.84-2.84a3.38,3.38,0,0,1,.13-.37l1.3-2.47c.07-.14.15-.26.21-.4a.56.56,0,0,0,0-.54,11.65,11.65,0,0,1-1.47-3.62,1.34,1.34,0,0,0-.15-.29l-3.72-1.2v-4Zm21.55,3.26a8.39,8.39,0,0,0-.11-1.73,8.53,8.53,0,0,0-1.69-3.44,8.05,8.05,0,0,0-3.61-2.43,8.5,8.5,0,0,0-2.7-.4,6.39,6.39,0,0,0-1.58.19,8.35,8.35,0,0,0-2.54,1.12,9.51,9.51,0,0,0-2.19,2.15,7.16,7.16,0,0,0-.91,1.73,7.7,7.7,0,0,0-.52,2.41,7,7,0,0,0,.25,2.27,7.34,7.34,0,0,0,1.45,2.93,8.81,8.81,0,0,0,2.2,2,7.67,7.67,0,0,0,3.09,1.08,8,8,0,0,0,4-.58,9.48,9.48,0,0,0,3.08-2.23c.12-.14.22-.31.33-.46a7.93,7.93,0,0,0,1.19-2.38A5.13,5.13,0,0,0,632.67,624.45Z"/><path class="cls-7" d="M607.46,629.73l1.92,1.94c-.31.54-.64,1.16-1,1.76a.74.74,0,0,0,0,.83,7.06,7.06,0,0,1,.9,2.28l2.4.76v2.64c-.64.22-1.28.48-2,.66a.71.71,0,0,0-.58.57,9.36,9.36,0,0,1-1,2.3l1.15,2.3-1.53,1.53a.5.5,0,0,1-.69.1c-.56-.29-1.14-.56-1.71-.84l-.29-.13a8.15,8.15,0,0,1-2.32,1,.54.54,0,0,0-.4.34c-.2.6-.4,1.2-.55,1.81-.07.26-.19.36-.44.35h-2.32l-.79-2.43a10.06,10.06,0,0,1-2.4-.94.6.6,0,0,0-.71,0c-.46.27-.92.53-1.39.77s-.52.2-.84-.12l-1.51-1.51,1.16-2.32a8.19,8.19,0,0,1-1.06-2.66l-2.55-.83v-2.18c0-.27.05-.42.36-.5.65-.18,1.28-.43,1.92-.63a.39.39,0,0,0,.31-.28,11.59,11.59,0,0,1,.33-1.15c.2-.47.45-.91.68-1.37l-1.11-2.22,1.86-1.86a15.23,15.23,0,0,1,2.19,1.13,9.33,9.33,0,0,1,2.54-1c.27,0,.32-.32.39-.54.19-.57.36-1.16.52-1.75a.37.37,0,0,1,.43-.29h2.25c.18.53.37,1.06.55,1.6.06.16.08.33.14.48s.22.59.63.52a9.5,9.5,0,0,1,2.17,1Zm-1.92,9a5.17,5.17,0,0,0-5-5.24,5,5,0,0,0-3.61,1.45,4.91,4.91,0,0,0-1.61,3.75,5.18,5.18,0,0,0,4.88,5.07,5,5,0,0,0,3.92-1.5A4.54,4.54,0,0,0,605.54,638.72Z"/><path class="cls-7" d="M623.72,653.14c-.33.32-.65.63-1,1a.45.45,0,0,1-.58.09c-.36-.19-.7-.39-1-.57-.54.22-1,.44-1.56.62a.44.44,0,0,0-.32.35c-.12.4-.27.79-.41,1.2h-1.73c-.11-.38-.2-.77-.31-1.15a.62.62,0,0,0-.47-.44c-.46-.15-.89-.38-1.37-.59l-1,.51c-.42.2-.47.19-.79-.11l-.55-.55a.46.46,0,0,1-.11-.63l.57-1.14-.74-1.69-1.43-.48v-1.73l1.47-.46c.24-.48.25-1.09.65-1.53.12-.13,0-.27,0-.42-.2-.39-.39-.79-.61-1.24l1.16-1.19c.4.2.77.35,1.12.55a.67.67,0,0,0,.72,0c.39-.19.82-.32,1.29-.51.12-.35.31-.77.42-1.22s.23-.37.5-.36h1.27c.14.43.31.86.42,1.31.06.25.17.32.42.39.47.14.93.36,1.44.56l1.36-.67,1.21,1.16c-.08.53-.56.93-.75,1.47a2.81,2.81,0,0,1,.61,1.36.42.42,0,0,0,.34.4c.44.12.88.29,1.33.44v1.66l-1.31.43a.46.46,0,0,0-.36.46,1.59,1.59,0,0,1-.21.53c-.4.89-.43.58,0,1.52Zm-2.47-4.45a3.2,3.2,0,0,0-5.65-2.12,3.94,3.94,0,0,0-.85,2.13,3.47,3.47,0,0,0,3.34,3.23A3.41,3.41,0,0,0,621.25,648.69Z"/><path class="cls-7" d="M1246.59,172.71v10h1.74c9.34,0,18.68,0,28,0,2.29,0,4.35.72,5.44,3.06,1.57,3.41,0,7.52-3.94,8.05a23.78,23.78,0,0,1-3.16.28q-36.23,0-72.46,0c-2.27,0-4.34-.55-5.58-2.68a5.67,5.67,0,0,1,5.07-8.74q14.23,0,28.46,0H1232v-10h-1.7c-11.78,0-23.56,0-35.35,0-4.93,0-9.2-1.43-12.5-5.22a12.66,12.66,0,0,1-3.43-8.37q-.06-25.31,0-50.61c0-4.62,2.31-8.15,5.89-10.93a15.07,15.07,0,0,1,9.61-2.92q43.71,0,87.43,0a14.59,14.59,0,0,1,14.44,10.68,12,12,0,0,1,.54,3.25q.06,25,0,50c0,6.82-6,13.43-12.76,13.74-7,.32-14,.27-21.06.33C1257.71,172.75,1252.23,172.71,1246.59,172.71Zm46.6-12.31a24.35,24.35,0,0,0,.29-2.5q0-24.21,0-48.41a10.21,10.21,0,0,0-.47-3.12,11.61,11.61,0,0,0-11.37-8.19q-42,0-84.06,0a35.08,35.08,0,0,0-5.8.32c-5,.83-9.12,5.06-9.17,10.2-.13,16.52,0,33.05,0,49.58,0,2.11,0,2.11,2.11,2.11h108.53Zm-1.6,3.59H1184.48a11.3,11.3,0,0,0,9.85,5.18q43.71.08,87.41,0A11.82,11.82,0,0,0,1291.59,164Zm-55.92,8.79v11c0,2.16-.29,2.46-2.4,2.46q-15.19,0-30.37,0a4.28,4.28,0,0,0-2.1.35,2.9,2.9,0,0,0-1.41,1.69c-.08.53.51,1.31,1,1.77a2.48,2.48,0,0,0,1.5.29h74.37c.25,0,.49,0,.74,0a1.72,1.72,0,0,0,1.79-1.72,1.76,1.76,0,0,0-1.52-2.1,16.13,16.13,0,0,0-2.28-.28q-14.52,0-29,0h-.89c-1.94,0-2-.11-2-2.12,0-3.27,0-6.55,0-9.82,0-.48,0-1-.07-1.49Z"/><path class="cls-7" d="M1231.12,120.19c.13-.43.24-.88.4-1.31a11.41,11.41,0,0,1,1.19-2.58.5.5,0,0,0,0-.55c-.09-.21-.22-.4-.33-.61-.45-.86-.9-1.73-1.36-2.63.47-.52,1-1,1.42-1.44s.91-.93,1.41-1.42l3.45,1.81a16,16,0,0,1,4.24-1.71c.37-1.13.75-2.25,1.08-3.37.09-.3.21-.38.49-.38,1.19,0,2.38,0,3.6,0a3.71,3.71,0,0,1,.31.75c.16.91.59,1.75.81,2.65a.55.55,0,0,0,.42.4,16.36,16.36,0,0,1,3.17,1.26l.7.39,3.51-1.75,2.82,2.81-1.77,3.5a13.17,13.17,0,0,1,1.53,3.61c.12.56.15.59.71.76l3.15,1v4.06c-1.09.35-2.2.74-3.33,1.07a.52.52,0,0,0-.43.46,15.12,15.12,0,0,1-1.28,3.22c-.11.21-.24.4-.36.6l1.78,3.52-2.81,2.81-3.53-1.76a14.74,14.74,0,0,1-3.56,1.56,1.27,1.27,0,0,1-.36.12c-.2,0-.26.13-.3.26-.29.86-.57,1.72-.85,2.58-.1.3-.19.6-.29.93h-3.71a.37.37,0,0,1-.41-.31c-.34-1.13-.7-2.25-1.07-3.42a16.66,16.66,0,0,1-4.26-1.73l-3.38,1.79-2.84-2.84a3.38,3.38,0,0,1,.13-.37l1.3-2.47c.07-.14.15-.26.21-.4a.56.56,0,0,0,0-.54,11.65,11.65,0,0,1-1.47-3.62,1.34,1.34,0,0,0-.15-.29l-3.72-1.2v-4Zm21.55,3.26a8.39,8.39,0,0,0-.11-1.73,8.53,8.53,0,0,0-1.69-3.44,8.05,8.05,0,0,0-3.61-2.43,8.5,8.5,0,0,0-2.7-.4,6.39,6.39,0,0,0-1.58.19,8.35,8.35,0,0,0-2.54,1.12,9.51,9.51,0,0,0-2.19,2.15,7.16,7.16,0,0,0-.91,1.73,7.7,7.7,0,0,0-.52,2.41,7,7,0,0,0,.25,2.27,7.34,7.34,0,0,0,1.45,2.93,8.81,8.81,0,0,0,2.2,2,7.67,7.67,0,0,0,3.09,1.08,8,8,0,0,0,4-.58,9.48,9.48,0,0,0,3.08-2.23c.12-.14.22-.31.33-.46a7.93,7.93,0,0,0,1.19-2.38A5.13,5.13,0,0,0,1252.67,123.45Z"/><path class="cls-7" d="M1227.46,128.73l1.92,1.94c-.31.54-.64,1.16-1,1.76a.74.74,0,0,0,0,.83,7.06,7.06,0,0,1,.9,2.28l2.4.76v2.64c-.64.22-1.28.48-2,.66a.71.71,0,0,0-.58.57,9.36,9.36,0,0,1-1,2.3l1.15,2.3c-.5.5-1,1-1.53,1.53a.5.5,0,0,1-.69.1c-.56-.29-1.14-.56-1.71-.84l-.29-.13a8.15,8.15,0,0,1-2.32,1,.54.54,0,0,0-.4.34c-.2.6-.4,1.2-.55,1.81-.07.26-.19.36-.44.35h-2.32l-.79-2.43a10.06,10.06,0,0,1-2.4-.94.6.6,0,0,0-.71,0c-.46.27-.92.53-1.39.77s-.52.2-.84-.12l-1.51-1.51,1.16-2.32a8.19,8.19,0,0,1-1.06-2.66l-2.55-.83v-2.18c0-.27,0-.42.36-.5.65-.18,1.28-.43,1.92-.63a.39.39,0,0,0,.31-.28,11.59,11.59,0,0,1,.33-1.15c.2-.47.45-.91.68-1.37l-1.11-2.22,1.86-1.86a15.23,15.23,0,0,1,2.19,1.13,9.33,9.33,0,0,1,2.54-1c.27,0,.32-.32.39-.54.19-.57.36-1.16.52-1.75a.37.37,0,0,1,.43-.29h2.25c.18.53.37,1.06.55,1.6.06.16.08.33.14.48s.22.59.63.52a9.5,9.5,0,0,1,2.17,1Zm-1.92,9a5.17,5.17,0,0,0-5-5.24,5,5,0,0,0-3.61,1.45,4.91,4.91,0,0,0-1.61,3.75,5.18,5.18,0,0,0,4.88,5.07,5,5,0,0,0,3.92-1.5A4.54,4.54,0,0,0,1225.54,137.72Z"/><path class="cls-7" d="M1243.72,152.14c-.33.32-.65.63-1,1a.45.45,0,0,1-.58.09c-.36-.19-.7-.39-1-.57-.54.22-1.05.44-1.56.62a.44.44,0,0,0-.32.35c-.12.4-.27.79-.41,1.2h-1.73c-.11-.38-.2-.77-.31-1.15a.62.62,0,0,0-.47-.44c-.46-.15-.89-.38-1.37-.59l-1,.51c-.42.2-.47.19-.79-.11s-.36-.37-.55-.55a.46.46,0,0,1-.11-.63l.57-1.14-.74-1.69-1.43-.48v-1.73l1.47-.46c.24-.48.25-1.09.65-1.53.12-.13,0-.27,0-.42-.2-.39-.39-.79-.61-1.24l1.16-1.19c.4.2.77.35,1.12.55a.67.67,0,0,0,.72,0c.39-.19.82-.32,1.29-.51.12-.35.31-.77.42-1.22s.23-.37.5-.36h1.27c.14.43.31.86.42,1.31.06.25.17.32.42.39.47.14.93.36,1.44.56l1.36-.67,1.21,1.16c-.08.53-.56.93-.75,1.47a2.81,2.81,0,0,1,.61,1.36.42.42,0,0,0,.34.4c.44.12.88.29,1.33.44v1.66l-1.31.43a.46.46,0,0,0-.36.46,1.59,1.59,0,0,1-.21.53c-.4.89-.43.58,0,1.52Zm-2.47-4.45a3.2,3.2,0,0,0-5.65-2.12,3.94,3.94,0,0,0-.85,2.13,3.47,3.47,0,0,0,3.34,3.23A3.41,3.41,0,0,0,1241.25,147.69Z"/></g><g id="text"><text class="cls-27" transform="translate(1101.39 223.49)">Execute Custom Program<tspan x="49.99" y="30">to</tspan><tspan class="cls-26" x="70.84" y="30"> </tspan><tspan x="76.41" y="30">Augment Data</tspan><tspan x="0.66" y="60">as Requested by</tspan><tspan class="cls-28" x="188.28" y="60"> </tspan><tspan class="cls-29" x="193.85" y="60">Auditors</tspan></text><text class="cls-27" transform="translate(574.25 731.49)">Maintain<tspan x="-138.96" y="30">Mapping Logic for SFIS</tspan><tspan class="cls-28" x="122.28" y="30"> </tspan><tspan class="cls-29" x="127.85" y="30">Attributes</tspan><tspan x="-97.24" y="60">(GFEBS</tspan><tspan class="cls-30" x="-4.17" y="60"> </tspan><tspan class="cls-31" x="2.33" y="60">T</tspan><tspan x="16.67" y="60">ier III Helpdesk)</tspan></text><text class="cls-27" transform="translate(1723.72 1009.49)">SFIS Financial<tspan x="54.88" y="30">Data</tspan></text><text class="cls-32" transform="translate(951.99 819.34)">Add SFIS<tspan class="cls-26" x="94.16" y="0"> </tspan><tspan x="99.05" y="0">Attributes to Data</tspan><tspan x="-43.4" y="26.4">&amp; Prepare Data for Extraction into BI</tspan></text><text class="cls-32" transform="translate(1581.45 819.34)">Aggregate Data</text><text class="cls-32" transform="translate(275.02 624.75)">Instruction from DASA-FO<tspan class="cls-26" x="255.5" y="0">A</tspan></text><text class="cls-32" transform="translate(182.88 701.75)">DASA-FO<tspan class="cls-26" x="97.79" y="0">A</tspan></text><text class="cls-32" transform="translate(213.33 489.75)">DDRS</text><text class="cls-32" transform="translate(297.51 237.75)">AC<tspan class="cls-31" x="30.56" y="0">L</tspan></text><text class="cls-27" transform="translate(1435.33 570.49)">Execute<tspan x="-58.34" y="30">DDRS</tspan><tspan class="cls-30" x="12.49" y="30"> </tspan><tspan class="cls-31" x="18.99" y="30">T</tspan><tspan x="33.33" y="30">ransaction</tspan><tspan x="-6.93" y="60">(Monthly)</tspan></text></g></svg>