<svg id="GRAPHICS" xmlns="http://www.w3.org/2000/svg" xmlns:xlink="http://www.w3.org/1999/xlink" viewBox="0 0 1290 1058"><defs><style>.cls-1,.cls-10,.cls-44,.cls-6,.cls-7,.cls-9{fill:none;}.cls-1,.cls-20,.cls-25,.cls-27,.cls-28,.cls-30,.cls-34,.cls-35,.cls-38,.cls-39,.cls-44{stroke:#333;}.cls-1,.cls-10,.cls-20,.cls-25,.cls-27,.cls-28,.cls-3,.cls-30,.cls-34,.cls-35,.cls-38,.cls-39,.cls-4,.cls-44,.cls-5,.cls-6,.cls-7,.cls-9{stroke-miterlimit:10;}.cls-2{fill:#f4f4f4;}.cls-3{fill:#eb8d63;stroke:#9c4310;}.cls-36,.cls-4,.cls-5{fill:#d8be50;}.cls-4,.cls-5{stroke:#d8be50;}.cls-4,.cls-44,.cls-6,.cls-7,.cls-9{stroke-width:2px;}.cls-6,.cls-7,.cls-9{stroke:#ab4d1b;}.cls-7{stroke-dasharray:12.93 4.97;}.cls-8{fill:#ab4d1b;}.cls-9{stroke-dasharray:13 5;}.cls-10{stroke:#0d3c44;stroke-width:4px;}.cls-11{font-size:23px;}.cls-11,.cls-18,.cls-37,.cls-38{fill:#0a313a;}.cls-11,.cls-16,.cls-17,.cls-18,.cls-21,.cls-22{font-family:ArialMT, Arial;}.cls-12{letter-spacing:-0.07em;}.cls-13{letter-spacing:-0.11em;}.cls-14{letter-spacing:-0.04em;}.cls-15{letter-spacing:-0.06em;}.cls-16{font-size:19px;}.cls-17{font-size:22px;}.cls-18{font-size:20px;}.cls-19{letter-spacing:-0.02em;}.cls-20{fill:#476d80;}.cls-21{font-size:16px;}.cls-21,.cls-22,.cls-35{fill:#f2f2f2;}.cls-22{font-size:18px;}.cls-23{isolation:isolate;}.cls-24{clip-path:url(#clip-path);}.cls-25{fill:#8d8d8d;}.cls-26{clip-path:url(#clip-path-2);}.cls-27{fill:#97abb5;}.cls-28{fill:#393939;}.cls-29{clip-path:url(#clip-path-3);}.cls-30{fill:#ddd9d9;}.cls-31{clip-path:url(#clip-path-4);}.cls-32{clip-path:url(#clip-path-5);}.cls-33{clip-path:url(#clip-path-6);}.cls-34{fill:#bdccd4;}.cls-39{fill:#a19f9e;}.cls-40{fill:#2b89c6;}.cls-41{fill:#bae36c;}.cls-42{opacity:0.11;}.cls-43{fill:#123d48;}.cls-45{fill:#fdfffe;}.cls-46{fill:#1aa94b;}</style><clipPath id="clip-path"><path class="cls-1" d="M451.65,784.64V825c0-17.36-22.44-31.49-50-31.49s-50,14.13-50,31.49v-40.4c0-17.37,22.45-31.5,50-31.5S451.65,767.27,451.65,784.64Z"/></clipPath><clipPath id="clip-path-2"><path class="cls-1" d="M451.65,784.64V825c0,17.37-22.44,31.5-50,31.5s-50-14.13-50-31.5v-40.4c0,17.37,22.45,31.5,50,31.5S451.65,802,451.65,784.64Z"/></clipPath><clipPath id="clip-path-3"><path class="cls-1" d="M453.62,784.64V825c0,18.05-23.33,32.74-52,32.74s-52-14.69-52-32.74v-40.4c0,18.05,23.33,32.74,52,32.74S453.62,802.69,453.62,784.64Z"/></clipPath><clipPath id="clip-path-4"><path class="cls-1" d="M451.65,435.68v40.4c0-17.37-22.44-31.5-50-31.5s-50,14.13-50,31.5v-40.4c0-17.37,22.45-31.5,50-31.5S451.65,418.31,451.65,435.68Z"/></clipPath><clipPath id="clip-path-5"><path class="cls-1" d="M451.65,435.68v40.4c0,17.37-22.44,31.5-50,31.5s-50-14.13-50-31.5v-40.4c0,17.36,22.45,31.49,50,31.49S451.65,453,451.65,435.68Z"/></clipPath><clipPath id="clip-path-6"><path class="cls-1" d="M453.62,435.68v40.4c0,18.05-23.33,32.73-52,32.73s-52-14.68-52-32.73v-40.4c0,18.05,23.33,32.73,52,32.73S453.62,453.73,453.62,435.68Z"/></clipPath></defs><rect class="cls-2" y="2" width="1290" height="1056"/><circle class="cls-3" cx="768.7" cy="698" r="18"/><circle class="cls-3" cx="1168.7" cy="618" r="18"/><circle class="cls-3" cx="988.7" cy="101" r="18"/><circle class="cls-3" cx="990.7" cy="957" r="18"/><line class="cls-4" x1="230.2" y1="455.88" x2="341.97" y2="455.88"/><path class="cls-5" d="M346.2,455.88a37.12,37.12,0,0,0-10.82,6.89l2.18-6.89L335.38,449A37.12,37.12,0,0,0,346.2,455.88Z"/><path class="cls-4" d="M403.2,604.5v0Z"/><path class="cls-4" d="M403.2,654.5v0Z"/><path class="cls-4" d="M403.2,508.5v8"/><path class="cls-5" d="M403.2,749.88a37.39,37.39,0,0,0-6.89-10.82l6.89,2.18,6.88-2.18A37.36,37.36,0,0,0,403.2,749.88Z"/><line class="cls-4" x1="230.2" y1="804.84" x2="341.97" y2="804.84"/><path class="cls-5" d="M346.2,804.84a37.12,37.12,0,0,0-10.82,6.89l2.18-6.89L335.38,798A36.89,36.89,0,0,0,346.2,804.84Z"/><line class="cls-6" x1="452.2" y1="476.08" x2="458.7" y2="476.08"/><path class="cls-7" d="M463.67,476.08h20.55a5.85,5.85,0,0,0,5.85-5.85V364.8a5.86,5.86,0,0,1,5.86-5.85l85.87-.37"/><line class="cls-6" x1="584.28" y1="358.57" x2="590.78" y2="358.54"/><path class="cls-8" d="M600.2,358.5c-4.43,1.66-9.91,4.49-13.31,7.48l2.66-7.43-2.72-7.41C590.25,354.1,595.76,356.88,600.2,358.5Z"/><path class="cls-9" d="M452.2,790h29.08a5.82,5.82,0,0,1,5.82,5.81v24.62a4.63,4.63,0,0,0,4.61,4.63l112.07.41"/><path class="cls-8" d="M613.2,825.5c-4.44,1.63-10,4.41-13.36,7.37l2.71-7.41L599.89,818C603.29,821,608.77,823.84,613.2,825.5Z"/><path class="cls-10" d="M970.7,101H651.8a36.56,36.56,0,0,0-36.56,36.56V581.44A36.56,36.56,0,0,0,651.8,618h498.9"/><path class="cls-10" d="M751.2,697.5H669.8c-20.19,0-36.56,8.28-36.56,18.49V940.51c0,10.21,16.37,18.49,36.56,18.49H973.2"/><text class="cls-11" transform="translate(659.01 581.41)"><tspan class="cls-12">V</tspan><tspan x="13.63" y="0">arious Reports - SFIS</tspan><tspan class="cls-13" x="87.34" y="27.6">T</tspan><tspan x="98.84" y="27.6">otals</tspan></text><text class="cls-11" transform="translate(917.51 581.41)"><tspan class="cls-12">V</tspan><tspan x="13.63" y="0">arious Reports - SFIS</tspan><tspan x="64.33" y="27.6">Line Items</tspan></text><text class="cls-11" transform="translate(647.52 892.41)">Unmatched Items<tspan x="26.84" y="27.6">By Category</tspan></text><text class="cls-11" transform="translate(648.51 292.41)">Consolidated<tspan class="cls-14" x="0.44" y="27.6">T</tspan><tspan x="13.64" y="27.6">rial Balance</tspan></text><text class="cls-11" transform="translate(861.48 878.97)">Leadership<tspan x="-29.37" y="27.6">Financial Metrics</tspan><tspan x="0.65" y="55.2">Dashboard</tspan></text><text class="cls-11" transform="translate(844.26 292.97)">Consolidated<tspan x="-4.46" y="27.6">Reconciliation</tspan><tspan x="2.56" y="55.2">and</tspan><tspan class="cls-15" x="40.94" y="55.2"> </tspan><tspan x="46.06" y="55.2">Analysis</tspan></text><text class="cls-11" transform="translate(1080.01 294.41)">SFIS<tspan x="-23.64" y="27.6">Summary</tspan><tspan x="-17.26" y="55.2">Analysis</tspan></text><text class="cls-16" transform="translate(287.04 626.22)">Unmatched Disbursements<tspan x="49.62" y="22.8">and Collections</tspan></text><text class="cls-17" transform="translate(317.03 886.37)">Unmatched Items</text><text class="cls-11" transform="translate(326.84 536.93)">SFIS Financial <tspan x="50.49" y="27.6">Data</tspan></text><text class="cls-18" transform="translate(794.74 704.96)">BI Financial UM<tspan class="cls-19" x="141.15" y="0">T</tspan><tspan x="153.01" y="0" xml:space="preserve"> Reports</tspan></text><text class="cls-18" transform="translate(1017 106.96)">BI Financial Reports</text><rect class="cls-20" x="104.45" y="424.36" width="125.71" height="64.28"/><line class="cls-1" x1="116.11" y1="424.89" x2="116.11" y2="489.1"/><text class="cls-21" transform="translate(149.52 442.27)">SFIS <tspan x="-14.23" y="19.2">Financial</tspan><tspan x="0.88" y="38.4">Data</tspan></text><rect class="cls-20" x="103.65" y="772.47" width="125.71" height="64.28"/><line class="cls-1" x1="115.32" y1="773" x2="115.32" y2="837.22"/><text class="cls-22" transform="translate(146.49 810.06)">1801</text><g class="cls-23"><g class="cls-23"><g class="cls-24"><g class="cls-23"><path class="cls-25" d="M451.65,784.64V825c0-17.36-22.44-31.49-50-31.49s-50,14.13-50,31.49v-40.4c0-17.37,22.45-31.5,50-31.5s50,14.13,50,31.5"/></g></g><path class="cls-1" d="M451.65,784.64V825c0-17.36-22.44-31.49-50-31.49s-50,14.13-50,31.49v-40.4c0-17.37,22.45-31.5,50-31.5S451.65,767.27,451.65,784.64Z"/></g><g class="cls-23"><g class="cls-26"><g class="cls-23"><path class="cls-27" d="M451.65,784.64V825c0,17.37-22.44,31.5-50,31.5s-50-14.13-50-31.5v-40.4c0,17.37,22.45,31.5,50,31.5s50-14.13,50-31.5"/></g></g><path class="cls-1" d="M451.65,784.64V825c0,17.37-22.44,31.5-50,31.5s-50-14.13-50-31.5v-40.4c0,17.37,22.45,31.5,50,31.5S451.65,802,451.65,784.64Z"/></g><path class="cls-28" d="M401.62,751.91c28.67,0,52,14.69,52,32.73s-23.33,32.74-52,32.74-52-14.69-52-32.74S373,751.91,401.62,751.91Zm0,64.23c27.59,0,50-14.13,50-31.5s-22.44-31.5-50-31.5-50,14.13-50,31.5,22.45,31.5,50,31.5"/><ellipse class="cls-20" cx="401.62" cy="784.64" rx="50.04" ry="31.5"/><g class="cls-23"><g class="cls-29"><g class="cls-23"><path class="cls-30" d="M453.62,784.64V825c0,18.05-23.33,32.74-52,32.74s-52-14.69-52-32.74v-40.4c0,18.05,23.33,32.74,52,32.74s52-14.69,52-32.74"/></g></g><path class="cls-1" d="M453.62,784.64V825c0,18.05-23.33,32.74-52,32.74s-52-14.69-52-32.74v-40.4c0,18.05,23.33,32.74,52,32.74S453.62,802.69,453.62,784.64Z"/></g></g><g class="cls-23"><g class="cls-23"><g class="cls-31"><g class="cls-23"><path class="cls-25" d="M451.65,435.68v40.4c0-17.37-22.44-31.5-50-31.5s-50,14.13-50,31.5v-40.4c0-17.37,22.45-31.5,50-31.5s50,14.13,50,31.5"/></g></g><path class="cls-1" d="M451.65,435.68v40.4c0-17.37-22.44-31.5-50-31.5s-50,14.13-50,31.5v-40.4c0-17.37,22.45-31.5,50-31.5S451.65,418.31,451.65,435.68Z"/></g><g class="cls-23"><g class="cls-32"><g class="cls-23"><path class="cls-27" d="M451.65,435.68v40.4c0,17.37-22.44,31.5-50,31.5s-50-14.13-50-31.5v-40.4c0,17.36,22.45,31.49,50,31.49s50-14.13,50-31.49"/></g></g><path class="cls-1" d="M451.65,435.68v40.4c0,17.37-22.44,31.5-50,31.5s-50-14.13-50-31.5v-40.4c0,17.36,22.45,31.49,50,31.49S451.65,453,451.65,435.68Z"/></g><path class="cls-28" d="M401.62,403c28.67,0,52,14.68,52,32.73s-23.33,32.73-52,32.73-52-14.68-52-32.73S373,403,401.62,403Zm0,64.22c27.59,0,50-14.13,50-31.49s-22.44-31.5-50-31.5-50,14.13-50,31.5,22.45,31.49,50,31.49"/><ellipse class="cls-20" cx="401.62" cy="435.68" rx="50.04" ry="31.5"/><g class="cls-23"><g class="cls-33"><g class="cls-23"><path class="cls-30" d="M453.62,435.68v40.4c0,18.05-23.33,32.73-52,32.73s-52-14.68-52-32.73v-40.4c0,18.05,23.33,32.73,52,32.73s52-14.68,52-32.73"/></g></g><path class="cls-1" d="M453.62,435.68v40.4c0,18.05-23.33,32.73-52,32.73s-52-14.68-52-32.73v-40.4c0,18.05,23.33,32.73,52,32.73S453.62,453.73,453.62,435.68Z"/></g></g><polygon class="cls-34" points="824.89 397 754.89 397 754.89 508 848.89 508 848.89 421 824.89 397"/><path class="cls-35" d="M824.89,421h23.46a.22.22,0,0,0,.16-.38l-23-23.05a.33.33,0,0,0-.57.24Z"/><path class="cls-36" d="M801.39,449A26,26,0,0,0,775.9,474.5h25.49Z"/><path class="cls-37" d="M801.89,449h-.5V474.5H775.9c0,.17,0,.33,0,.5a26,26,0,1,0,26-26Z"/><circle class="cls-36" cx="769.89" cy="436" r="4"/><circle class="cls-37" cx="769.89" cy="421" r="4"/><line class="cls-1" x1="778.39" y1="421.5" x2="812.39" y2="421.5"/><line class="cls-1" x1="778.39" y1="436" x2="812.39" y2="436"/><polygon class="cls-34" points="801.89 419 731.89 419 731.89 530 825.89 530 825.89 443 801.89 419"/><path class="cls-35" d="M801.89,443h23.46a.22.22,0,0,0,.16-.38l-23-23.05a.33.33,0,0,0-.57.24Z"/><path class="cls-36" d="M778.39,471A26,26,0,0,0,752.9,496.5h25.49Z"/><path class="cls-37" d="M778.89,471h-.5V496.5H752.9c0,.17,0,.33,0,.5a26,26,0,1,0,26-26Z"/><circle class="cls-36" cx="746.89" cy="458" r="4"/><circle class="cls-37" cx="746.89" cy="443" r="4"/><line class="cls-1" x1="755.39" y1="443.5" x2="789.39" y2="443.5"/><line class="cls-1" x1="755.39" y1="458" x2="789.39" y2="458"/><polygon class="cls-34" points="773.89 437 703.89 437 703.89 548 797.89 548 797.89 461 773.89 437"/><path class="cls-35" d="M773.89,461h23.46a.22.22,0,0,0,.16-.38l-23-23.05a.33.33,0,0,0-.57.24Z"/><path class="cls-36" d="M750.39,489A26,26,0,0,0,724.9,514.5h25.49Z"/><path class="cls-37" d="M750.89,489h-.5V514.5H724.9c0,.17,0,.33,0,.5a26,26,0,1,0,26-26Z"/><circle class="cls-36" cx="718.89" cy="476" r="4"/><circle class="cls-37" cx="718.89" cy="461" r="4"/><line class="cls-1" x1="727.39" y1="461.5" x2="761.39" y2="461.5"/><line class="cls-1" x1="727.39" y1="476" x2="761.39" y2="476"/><polygon class="cls-34" points="1083.39 398 1013.39 398 1013.39 509 1107.39 509 1107.39 422 1083.39 398"/><path class="cls-35" d="M1083.39,422h23.46a.22.22,0,0,0,.16-.38l-23-23.05a.33.33,0,0,0-.57.24Z"/><path class="cls-36" d="M1059.89,450a26,26,0,0,0-25.49,25.49h25.49Z"/><path class="cls-37" d="M1060.39,450h-.5V475.5H1034.4c0,.17,0,.33,0,.5a26,26,0,1,0,26-26Z"/><circle class="cls-36" cx="1028.39" cy="437" r="4"/><circle class="cls-37" cx="1028.39" cy="422" r="4"/><line class="cls-1" x1="1036.89" y1="422.5" x2="1070.89" y2="422.5"/><line class="cls-1" x1="1036.89" y1="437" x2="1070.89" y2="437"/><polygon class="cls-34" points="1060.39 420 990.39 420 990.39 531 1084.39 531 1084.39 444 1060.39 420"/><path class="cls-35" d="M1060.39,444h23.46a.22.22,0,0,0,.16-.38l-23-23.05a.33.33,0,0,0-.57.24Z"/><path class="cls-36" d="M1036.89,472a26,26,0,0,0-25.49,25.49h25.49Z"/><path class="cls-37" d="M1037.39,472h-.5V497.5H1011.4c0,.17,0,.33,0,.5a26,26,0,1,0,26-26Z"/><circle class="cls-36" cx="1005.39" cy="459" r="4"/><circle class="cls-37" cx="1005.39" cy="444" r="4"/><line class="cls-1" x1="1013.89" y1="444.5" x2="1047.89" y2="444.5"/><line class="cls-1" x1="1013.89" y1="459" x2="1047.89" y2="459"/><polygon class="cls-34" points="1032.39 438 962.39 438 962.39 549 1056.39 549 1056.39 462 1032.39 438"/><path class="cls-35" d="M1032.39,462h23.46a.22.22,0,0,0,.16-.38l-23-23.05a.33.33,0,0,0-.57.24Z"/><path class="cls-36" d="M1008.89,490A26,26,0,0,0,983.4,515.5h25.49Z"/><path class="cls-37" d="M1009.39,490h-.5V515.5H983.4c0,.17,0,.33,0,.5a26,26,0,1,0,26-26Z"/><circle class="cls-36" cx="977.39" cy="477" r="4"/><circle class="cls-37" cx="977.39" cy="462" r="4"/><line class="cls-1" x1="985.89" y1="462.5" x2="1019.89" y2="462.5"/><line class="cls-1" x1="985.89" y1="477" x2="1019.89" y2="477"/><polygon class="cls-34" points="1128.57 154 1058.57 154 1058.57 265 1152.57 265 1152.57 178 1128.57 154"/><path class="cls-35" d="M1128.57,178H1152a.22.22,0,0,0,.15-.38l-23-23.05a.33.33,0,0,0-.57.24Z"/><path class="cls-36" d="M1105.07,206a26,26,0,0,0-25.49,25.49h25.49Z"/><path class="cls-37" d="M1105.57,206h-.5V231.5h-25.49c0,.17,0,.33,0,.5a26,26,0,1,0,26-26Z"/><circle class="cls-36" cx="1073.57" cy="193" r="4"/><circle class="cls-37" cx="1073.57" cy="178" r="4"/><line class="cls-1" x1="1082.07" y1="178.5" x2="1116.07" y2="178.5"/><line class="cls-1" x1="1082.07" y1="193" x2="1116.07" y2="193"/><polygon class="cls-34" points="934.39 151 864.39 151 864.39 262 958.39 262 958.39 175 934.39 151"/><path class="cls-35" d="M934.39,175h23.46a.22.22,0,0,0,.16-.38l-23-23.05a.33.33,0,0,0-.57.24Z"/><path class="cls-36" d="M910.89,203A26,26,0,0,0,885.4,228.5h25.49Z"/><path class="cls-37" d="M911.39,203h-.5V228.5H885.4c0,.17,0,.33,0,.5a26,26,0,1,0,26-26Z"/><circle class="cls-36" cx="879.39" cy="190" r="4"/><circle class="cls-37" cx="879.39" cy="175" r="4"/><line class="cls-1" x1="887.89" y1="175.5" x2="921.89" y2="175.5"/><line class="cls-1" x1="887.89" y1="190" x2="921.89" y2="190"/><polygon class="cls-34" points="738.64 154 668.64 154 668.64 265 762.64 265 762.64 178 738.64 154"/><path class="cls-35" d="M738.64,178H762.1a.22.22,0,0,0,.16-.38l-23-23.05a.33.33,0,0,0-.57.24Z"/><path class="cls-36" d="M715.14,206a26,26,0,0,0-25.49,25.49h25.49Z"/><path class="cls-37" d="M715.64,206h-.5V231.5H689.65c0,.17,0,.33,0,.5a26,26,0,1,0,26-26Z"/><circle class="cls-36" cx="683.64" cy="193" r="4"/><circle class="cls-37" cx="683.64" cy="178" r="4"/><line class="cls-1" x1="692.14" y1="178.5" x2="726.14" y2="178.5"/><line class="cls-1" x1="692.14" y1="193" x2="726.14" y2="193"/><polygon class="cls-34" points="760.64 751 690.64 751 690.64 862 784.64 862 784.64 775 760.64 751"/><path class="cls-35" d="M760.64,775H784.1a.22.22,0,0,0,.16-.38l-23-23a.33.33,0,0,0-.57.24Z"/><path class="cls-36" d="M737.14,803a26,26,0,0,0-25.49,25.49h25.49Z"/><path class="cls-37" d="M737.64,803h-.5V828.5H711.65c0,.17,0,.33,0,.5a26,26,0,1,0,26-26Z"/><circle class="cls-36" cx="705.64" cy="790" r="4"/><circle class="cls-37" cx="705.64" cy="775" r="4"/><line class="cls-1" x1="714.14" y1="775.5" x2="748.14" y2="775.5"/><line class="cls-1" x1="714.14" y1="790" x2="748.14" y2="790"/><rect class="cls-38" x="858.39" y="762" width="120" height="12"/><rect class="cls-34" x="858.39" y="785" width="120" height="60"/><rect class="cls-39" x="858.39" y="774" width="120" height="11"/><circle class="cls-40" cx="889.02" cy="811.9" r="19.6"/><path class="cls-41" d="M887.71,817.37a1.5,1.5,0,0,0-.45-.27c-.12-.06-.56-.14-.82-.21a2.82,2.82,0,0,1-.55-.28,1.09,1.09,0,0,1-.42-.27,4.72,4.72,0,0,1-.28-.63c-.08-.17-.23-.25-.42-.4s-.36,0-.49,0-.27-.07-.36-.28a.34.34,0,0,0-.41-.21c-.16,0-.26-.19-.26-.26s-.27-.24-.45-.25a2,2,0,0,0-.54.09c-.13,0-.2,0-.28-.14s-.06-.14-.21-.21-.13.16-.15.18a.35.35,0,0,1-.2,0s0-.11.08-.14,0-.11-.1-.13-.13.07-.18.19-.27.12-.47.14-.19.47-.32.49-.28-.17-.45-.24-.33.12-.46.12-.18-.16-.29-.33,0-.45,0-.63a.74.74,0,0,0-.07-.43c0-.08-.14,0-.26,0s0,0-.1-.11-.11,0-.13.09-.14.09-.28.07-.06-.38,0-.41.12-.17.09-.23,0-.23.1-.23.06-.11,0-.25-.16-.05-.37-.05-.34.3-.41.51-.43.2-.71.15-.36-.37-.47-.67a1,1,0,0,1,.11-.87c.13-.1,0-.08-.1-.19s.06-.16.21-.35.38-.14.6-.28.28,0,.38.09a2.26,2.26,0,0,0,.34.08c.06,0,0-.09-.07-.22s.32-.08.37-.1a.36.36,0,0,1,.33.09c.1.1.21.05.31.05a.3.3,0,0,1,.27.19c.07.12.11.56.19.68s.2.19.27.07a1.43,1.43,0,0,0-.22-.94c-.18-.26,0-.33.24-.55a2.38,2.38,0,0,1,.64-.49c.25-.11.22-.1.21-.27a1.31,1.31,0,0,1-.07-.62.82.82,0,0,1,.78-.6c.23,0,.29-.08.19-.29s.18-.35.31-.42.28-.16.39-.08.24.19.37.15.2-.2.37-.27a1.83,1.83,0,0,0,.53-.21c.12-.11-.05-.15-.14-.24s-.21.17-.33.21-.22-.12-.3-.24-.17-.08-.21-.19.16-.19.22-.27-.14-.08-.29-.11-.39.16-.52.22a2.51,2.51,0,0,0-.37.3s0-.2.3-.38.21-.21.47-.4.52,0,.78,0,.37,0,.49-.13a1.12,1.12,0,0,1,.54-.24c.12,0,.09-.11.15-.31s-.14-.21-.3-.31l-.54-.36a.64.64,0,0,1-.34-.42l-.2-.5c-.12-.31-.22-.47-.28-.47s-.11.19-.19.45-.29.12-.48.09-.19-.22-.26-.43,0-.2,0-.31-.18,0-.31-.13l-.48-.36c-.14-.1-.27.15-.33.13a1.62,1.62,0,0,0-.34-.13c-.12,0-.09.15-.07.36s.06.42.06.6-.16.1-.15.27.26.24.32.47-.08.31-.16.44-.33.15-.37.31.1.28.18.43,0,.16-.17.26-.16,0-.36-.16-.15-.72-.17-.79-.16,0-.36,0a.77.77,0,0,1-.41-.11c-.12,0-.54-.37-.72-.47s-.16,0-.32,0-.12-.27-.19-.4-.14,0-.27-.06,0-.48,0-.67a5.23,5.23,0,0,1,.82-.86c.06-.06.22,0,.38-.06s.1-.12.15-.31.13-.18.06-.26,0-.14.15-.19.31.11.46.09a.65.65,0,0,0,.37-.45c0-.12-.13-.16-.18-.24s.17-.16.23-.21,0-.1-.18-.13-.05-.09,0-.15.23.07.35.06a1,1,0,0,1,.4,0c.24,0,.2,0,.25,0a1.21,1.21,0,0,1,.25.17c0,.06,0,.09,0,.13s-.16.06-.29.07-.09.23-.09.31.14.09.22.08.3-.16.41-.2.09-.11.13-.08a.31.31,0,0,1,.15.26c0,.16-.29.28-.35.34s0,.19,0,.23-.22,0-.27,0a1.89,1.89,0,0,1-.31,0c-.1,0-.16.09-.16.23s.13.13.23.16a.94.94,0,0,0,.38-.11.53.53,0,0,1,.26,0,1.5,1.5,0,0,1,.19.14s.09.14.13.19.29.21.34.26a1.16,1.16,0,0,0,.28.1,2.74,2.74,0,0,0,.29.13s.19,0,.18-.08-.08-.09-.13-.13S882,802,882,802s0-.06.07-.07.18.1.31.14.17.09.27.21.09-.12.11-.28-.11-.25-.24-.39-.38-.32-.4-.39.08-.15.18-.16.2.11.35.26.16.15.25.18.14-.1.22-.21a2.77,2.77,0,0,0,.19-.25c.05-.08,0-.12-.09-.15a1,1,0,0,1-.31-.14c-.08-.08-.06-.12-.2-.17l-.5-.13c-.11,0-.12-.18-.17-.29s.21,0,.27,0,0-.12-.08-.22a.77.77,0,0,0-.28-.31c-.08-.05-.26-.05-.31-.12a1.61,1.61,0,0,0-.39-.23c-.09,0-.15.11-.21.08s-.07-.15-.09-.19a.93.93,0,0,0-.22-.19c-.13-.08-.1,0-.18,0s0-.12.06-.21,0-.1-.17-.17-.24,0-.4,0-.22-.08-.25-.06-.07.2-.1.15-.11-.12-.19-.16-.22.1-.35.08-.13.16-.19.24a.61.61,0,0,0,0,.4c0,.2-.13.06-.18,0a1.29,1.29,0,0,1,0-.44c0-.1.2-.14.27-.19s-.15-.11-.24-.11a1,1,0,0,0-.44.28.86.86,0,0,0-.23.51c0,.11.08.34.31.52a1.35,1.35,0,0,0,.48.22.88.88,0,0,1,0,.34,1.33,1.33,0,0,1-.15.35s-.27,0-.29-.05a1.39,1.39,0,0,1,0-.35c0-.08-.14-.08-.22-.13s-.09.21-.17.29-.07-.27-.09-.35-.18-.08-.23-.18a2.07,2.07,0,0,1-.12-.45c-.05-.15-.19-.19-.24-.31s.1-.19.19-.26a1.57,1.57,0,0,1,.4-.21c.19-.08,0-.23,0-.28s-.28,0-.41,0h-.49s-.09.18-.1.36a2.61,2.61,0,0,0,0,.48c0,.1-.13.49-.12.67s.21.19.21.19a1.3,1.3,0,0,1,.2.38c0,.1-.19.08-.23.08l-.39,0-.21.12h-.57a1.67,1.67,0,0,1-.59-.21.67.67,0,0,0-.29-.19c-.13,0-.18.19-.24.23s0,.55,0,.55a.63.63,0,0,1-.21-.23c-.1-.17-.32-.15-.46-.13a2.12,2.12,0,0,1-.7-.06c-.16-.07.06-.15.13-.18s-.06-.17-.17-.19l-.08,0a19.89,19.89,0,0,0-2.62,4.79.19.19,0,0,0,.07.06c.09.07.39.4.35.42a.27.27,0,0,1-.18,0c-.08,0,0,.26.09.33s.46.25.55.31.13.35.18.49,0,.26,0,.45-.08.85-.06.94a1.71,1.71,0,0,0,.12.47c.08.1.5.87.55.94s.26.15.41.24.17.19.24.28.2.51.3.63a1.38,1.38,0,0,1,.24.28c0,.08,0,.23.06.28a1,1,0,0,1,.26.19,1.11,1.11,0,0,0,.14.31,2.44,2.44,0,0,0,.3.28c.06,0,.06-.06,0-.15s-.23-.34-.28-.47a1,1,0,0,0-.19-.34c-.07-.08-.4-.56-.44-.63a.22.22,0,0,1,.07-.26c.09-.06.24.18.31.41a.62.62,0,0,0,.23.38c.12.12.3.25.43.4s.43.56.5.62a1.43,1.43,0,0,1,.19.41c.06.15,0,.22,0,.32a7.85,7.85,0,0,0,.83.5c.19.11.64.29.64.29a.84.84,0,0,0,.42,0c.13-.08.29.07.38.13a1.87,1.87,0,0,1,.27.36c.07.12.45.12.53.12a.47.47,0,0,1,.24,0,3.47,3.47,0,0,1,.31.42,3.39,3.39,0,0,0,.43.42,1,1,0,0,0,.5.23s.13-.11.19-.19.15,0,.22.09.1.3.14.51,0,.47-.17.51-.17.23-.22.24a1.91,1.91,0,0,0-.22.65c0,.1.06.3-.06.33s0,.39.1.51a7.51,7.51,0,0,1,.44.75,9.66,9.66,0,0,0,.65,1.08,5.13,5.13,0,0,0,.62.41c.27.17.14.59.21.89a5.78,5.78,0,0,1-.22,1.31c0,.23-.1,1-.12,1.31a1.78,1.78,0,0,1-.28.77,1.46,1.46,0,0,0,0,.55,1.47,1.47,0,0,1-.13.49,1.28,1.28,0,0,0,0,.49,1.19,1.19,0,0,1-.1.44s.13.33.08.43a3.84,3.84,0,0,0-.12.56s.1.31.16.45,0,.32,0,.46.21.16.38.33a1.1,1.1,0,0,0,.56.21,3.43,3.43,0,0,1,.45,0,.39.39,0,0,0,.31-.18,4.16,4.16,0,0,1-.45-.19c-.07-.05-.07-.28-.15-.46s-.15-.21-.14-.36a.63.63,0,0,1,.39-.54c.22-.08.15-.22.22-.4s-.14-.12-.29-.32.08-.15.14-.18a.67.67,0,0,0,.28-.13c.09-.09,0-.16,0-.28s.22-.12.26-.14,0-.09-.2-.1,0-.24,0-.32.39.06.53,0,.09-.32.13-.5.33,0,.5-.11a.79.79,0,0,0,.38-.42c.07-.18-.3-.47-.24-.51s.25.15.53.2.14-.21.27-.28.25-.24.44-.44a5.36,5.36,0,0,0,.5-.86c.08-.15,0-.33,0-.57s.17-.17.51-.22.09-.08.17-.14a.79.79,0,0,1,.45-.08c.15,0,.18-.09.25-.23a1.71,1.71,0,0,1,.22-.42.91.91,0,0,0,.15-.53,1.79,1.79,0,0,0,0-.75c-.09-.37,0-.1.16-.21a.66.66,0,0,0,.29-.42c.06-.26.29-.24.37-.38s0-.43-.09-.6S887.81,817.5,887.71,817.37Z"/><path class="cls-41" d="M884.38,806c-.09,0-.21,0-.13-.16s.18-.28.07-.27-.19,0-.23.14-.17.11-.21.31a.59.59,0,0,1-.17.31c-.06.06-.06.06,0,.15a.24.24,0,0,0,.31.09c.13-.06.25-.06.3.05s.1.18.19.1.11,0,.24,0,.26.11.19-.11,0-.24-.15-.32-.2.06-.19-.14S884.48,806,884.38,806Z"/><path class="cls-41" d="M874.22,800.33c.23,0,.54-.2.64-.27s.32.05.41.13a.87.87,0,0,0,.61,0c.07-.07-.17-.17-.14-.28s.24-.08.23-.15-.23-.12-.5-.25-.11-.13-.1-.31,0-.16-.13-.28a.19.19,0,0,1,0-.28c.06-.1.07-.15,0-.21s-.21,0-.31,0a.41.41,0,0,0-.3.34c-.06.22,0,.42-.11.28s-.12-.18-.18-.26c-.22.26-.44.51-.65.77a1.47,1.47,0,0,1-.1.13l-.27.35a.94.94,0,0,1,.3.11A1.31,1.31,0,0,0,874.22,800.33Z"/><path class="cls-41" d="M876.43,800.39c.13.05.09,0,.27,0a.83.83,0,0,0,.31-.07c.1,0,0,0-.12-.2s-.15-.11-.2-.17-.11-.06-.2,0,0,.13-.08.22-.17,0-.16.14S876.31,800.33,876.43,800.39Z"/><path class="cls-41" d="M876,798.81c-.11,0-.11-.13-.24-.09s-.14.24,0,.24.24,0,.26.11,0,.11.15.21.22.1.27,0,.11-.06.2-.1a.2.2,0,0,0,.13-.2c0-.08-.07-.1-.14-.17s-.25,0-.15-.12.17-.07.17-.17,0-.24-.11-.2-.23,0-.4,0-.31,0-.25.06.23.12.22.2S876.15,798.86,876,798.81Z"/><path class="cls-41" d="M877.52,796.62c.14.15.38.09.64.12s.13-.06.19-.22.09-.13.22-.18a.56.56,0,0,0,.28-.24c0-.11.15.06.27.16s0,.11-.16.07-.24.07-.39.16,0,.09.08.19.29,0,.32.14.16.17.1.21-.14,0-.32-.1-.16-.14-.33-.13,0,.22.09.32-.12,0-.36.06-.14.12-.06.22.2,0,.38,0a2.74,2.74,0,0,0,.51,0,1.78,1.78,0,0,0,.54,0c.24-.08.24.08.44.07s.3-.12.29-.25-.2,0-.24-.09.21-.15.15-.3.24,0,.38,0,.22-.24.26-.29,0-.15-.16-.12-.14-.09-.15-.23.32,0,.42,0a1.67,1.67,0,0,1,.33-.1.42.42,0,0,0,.38-.25c0-.15.23-.12.39-.21s.28-.11.4-.19.05-.14.21-.15.19-.11.36-.23.51-.1.42-.22-.09-.11-.23-.11a4.75,4.75,0,0,1-.88-.18,3.15,3.15,0,0,0-1.09,0c-.49,0-.65.06-1.05.07a.67.67,0,0,0-.3.05l-.07,0-.12.06c-.46.25-.91.52-1.34.8l-.3.2c-.25.17-.5.34-.74.52a3,3,0,0,1,.33,0c.07,0,0,.09-.3.15S877.37,796.46,877.52,796.62Z"/><path class="cls-41" d="M877.6,798c0,.14.21.12.33.12a2.55,2.55,0,0,1,.45,0,1.14,1.14,0,0,0,.41,0,1.61,1.61,0,0,1,.49,0,3,3,0,0,0,.47,0,.33.33,0,0,0,.24-.23c0-.11-.11-.14-.25-.23s-.24,0-.41,0-.3.05-.44.05a3.29,3.29,0,0,0-.48.06c-.17,0-.21,0-.29-.1l-.25-.29c-.11-.13-.17,0-.24-.08s-.16,0-.33-.07-.14-.08-.24-.11a.16.16,0,0,0-.24.15c0,.16.17.19.26.22s.29,0,.41.06,0,0,.1.14S877.58,797.86,877.6,798Z"/><path class="cls-41" d="M877.36,798.12a.29.29,0,0,0,0-.27c-.06-.08,0-.17-.23-.12s-.25,0-.29.08,0,.1,0,.16.13.07.21.14S877.32,798.21,877.36,798.12Z"/><path class="cls-41" d="M875.67,797.73c.07.14.27-.1.37,0s.07.19.11.22a.23.23,0,0,0,.32,0c.06-.06.13,0,.13-.2s.07-.2,0-.32-.17-.15-.32-.12-.16-.06-.29.06-.1.23-.22.12h0l-.12.11A.2.2,0,0,1,875.67,797.73Z"/><path class="cls-41" d="M876.71,796.85c.1.08,0,.11.18.14s.3.12.4.06.16-.07.22-.13,0-.19-.07-.13-.19.12-.28.08-.18,0-.16,0,.09,0,.1-.13,0-.14-.07-.18-.08,0-.16,0l-.25.2S876.65,796.8,876.71,796.85Z"/><path class="cls-41" d="M880.43,812.76c-.1,0-.25.1-.23.16s.19.1.29.06.23,0,.17-.1A.27.27,0,0,0,880.43,812.76Z"/><path class="cls-41" d="M880.92,812.48c0-.07,0-.1-.14-.15s-.19,0-.3-.12a3.27,3.27,0,0,0-.28-.19.77.77,0,0,0-.4-.16c-.19,0-.27-.08-.41,0a.92.92,0,0,0-.28.15c-.11.08-.15.16-.1.21s.14-.08.28-.13.17-.12.27-.05.2.11.27.17.23,0,.29.13.17,0,.2,0-.09.16,0,.16a.92.92,0,0,0,.33,0C880.81,812.52,880.91,812.55,880.92,812.48Z"/><path class="cls-41" d="M882.75,812.73c-.12,0-.13.1-.26,0a2.47,2.47,0,0,0-.29-.06.85.85,0,0,1-.3-.09c-.21-.11-.18-.2-.4-.17s-.27,0-.37.07-.26.15-.18.27.15.11.28.08.12.06.19.08.19-.09.27-.1a.53.53,0,0,1,.31,0c.15,0,.17.08.28.06s.13,0,.26,0,.19,0,.24-.06S882.87,812.69,882.75,812.73Z"/><path class="cls-41" d="M890.35,799.82c0-.08-.09-.08-.29-.27s.05-.1.13-.07a2.43,2.43,0,0,0,.45.19c.14,0,0-.15-.08-.31s0-.24,0-.39-.11-.13-.18-.31.1.07.39.07,0-.16.09-.45,0-.1.08-.14a.24.24,0,0,0,.07-.33c-.12-.18-.07-.29-.07-.46s.21.11.34.2.1-.16.08-.4-.25-.1-.39-.27-.15,0-.23,0,0-.15.07-.35.15-.06.19-.23.11-.13.17-.34.28-.1.28-.1.18-.11,0-.22,0-.06.2-.09a1.53,1.53,0,0,0,.54-.17c.25-.1.19-.11.1-.24a1.19,1.19,0,0,0-.84-.05c-.19.09-.31.24-.49.11s-.17,0-.3.13-.3.26-.33.16.18-.25.24-.35,0-.09-.1-.15-.21.08-.32.16-.33.12-.26.08.13-.13,0-.15a5.77,5.77,0,0,0-.61,0,2.93,2.93,0,0,0-.71.12,2,2,0,0,1,.37-.23c.25-.13.73,0,1.1,0a2.57,2.57,0,0,0,.48-.09c.13,0,.13-.09.09-.17s-.26,0-.54-.15-.38-.09-.64-.15a5.11,5.11,0,0,0-.64-.15,7.86,7.86,0,0,0-1.07,0c-.37,0-.36.32-.55.27a4.47,4.47,0,0,0-.64-.09c-.27,0-.22.2-.27.36s.21.21.21.29-.2,0-.46-.1-.54-.21-.67-.23,0,.36-.14.28a.61.61,0,0,0-.27-.15c-.13,0,0,.21-.15.18s0-.14-.13-.19a1,1,0,0,0-.62.11,1.76,1.76,0,0,1-.63.15c-.22,0-.07.28-.09.34s-.09,0-.26-.06-.34.15-.57.23-.25.14-.17.27.27,0,.35.17-.09.2-.22.28a.53.53,0,0,1-.41.06,1.46,1.46,0,0,0-.8.26c-.15.13.13.06.37.18a.88.88,0,0,0,.53.12c.18,0,.31,0,.24.12s-.14,0-.41,0-.39,0-.44,0,.23.14.28.32.36.16.48.2.3-.05.51-.1a4.1,4.1,0,0,1,.9.11c.23,0,.37.37.47.55l.23.42c.08.14.21.19.11.35a.34.34,0,0,0,0,.45c.1.09.18-.18.25-.19s.1.2,0,.3-.28.12-.32.32.26.26.42.27.13-.3.3-.19.07.14.11.33-.23.15-.41.26-.11.38-.11.58a2.38,2.38,0,0,0,.45.92,1.67,1.67,0,0,1,.41.58c.06.2.21.27.47.2s.22.16.38.31.24-.05.32-.25.06-.39.13-.56a5.12,5.12,0,0,0,.27-.79c.06-.27.26.06.38-.12s.25-.12.44-.18.21-.11.35-.37.39-.09.59-.26.23-.11.43-.21a5.68,5.68,0,0,1,.76-.3C890.3,800,890.36,799.89,890.35,799.82Z"/><path class="cls-41" d="M892.05,801.64c0-.12.08-.23,0-.29s-.14,0-.18-.11,0-.25-.13-.21-.12.12-.35.12-.22-.2-.39,0-.19.26-.26.19-.1-.33-.23-.24-.16.13-.22.11a.21.21,0,0,0-.17.05.13.13,0,0,0,.17.18c.14-.06.24-.1.25,0a.13.13,0,0,1-.11.13c-.07,0-.2,0-.17.08s.17.07.24.09,0,.09,0,.19.13,0,.27.07.16.16.34.11.21-.14.33-.14.25-.1.35-.13S892,801.75,892.05,801.64Z"/><path class="cls-41" d="M878.89,802.1a.32.32,0,0,0,.25-.15c0-.08,0-.17.13-.1s.25.16.34.14.23-.08.21-.11a.55.55,0,0,0-.22-.18,1.48,1.48,0,0,1-.3-.19.69.69,0,0,0-.23-.15c-.13-.07-.27-.07-.3,0s0,.11,0,.24a1,1,0,0,1-.12.24c0,.06-.14.15,0,.14s.18-.11.22,0S878.78,802.13,878.89,802.1Z"/><path class="cls-41" d="M893.28,803.88c0,.1-.09.15,0,.2s.17,0,.23.07,0,.08,0,.14.09,0,.17,0,.17.08.14.17,0,.13-.11.13-.2,0-.17.11.2.25.08.27-.19.08-.16.14.28.08.17.15-.28.2-.25.3.26,0,.34-.07.11-.15.27-.1a.5.5,0,0,0,.36,0c.11,0,.31,0,.31-.15s-.13-.15-.08-.18.17-.07.14-.17-.21-.1-.24-.15,0-.22-.11-.29a.81.81,0,0,1-.26-.3c0-.09-.22-.17-.25-.24s.27-.26.22-.36-.36,0-.39-.11.27-.23.23-.31-.27.08-.35.08-.16.11-.19.16-.12-.16-.2-.09-.16.15-.14.24S893.29,803.79,893.28,803.88Z"/><path class="cls-41" d="M892.7,804.84c0,.09-.12.23-.07.31s.2.17.28,0,.06-.16.17-.14.18,0,.19-.06,0-.26,0-.35.14-.09.1-.21,0-.21-.18-.22-.27-.1-.3,0,0,.2,0,.21-.31-.06-.29.1S892.73,804.74,892.7,804.84Z"/><path class="cls-41" d="M903.74,818.88c-.09-.09-.18-.07-.19.08s-.19.32-.24.37-.12.23-.27.27a.36.36,0,0,0-.32.4c0,.1.08.13.07.27a1.05,1.05,0,0,1-.12.31c0,.13-.15.18-.08.33s0,.19.07.36,0,.31.2.3.23.14.36-.07a1,1,0,0,0,.22-.49,3.52,3.52,0,0,1,.17-.63,3.3,3.3,0,0,0,.25-.66c0-.23.08-.23,0-.41S903.82,819,903.74,818.88Z"/><path class="cls-41" d="M897.05,796.57l.38-.15c.13,0,.07.11.07.22s-.15.1-.45.25.17.09.24.17.2.25.34.26.17-.22.34-.4.16-.29.27-.37.15.13.18.27.09.14.13.15.18.09.28,0,.25-.08.39-.15-.13-.05-.25-.12-.17,0-.31-.11-.17-.2-.3-.28-.22,0-.3-.19-.15-.06-.23-.11-.16-.19-.23-.17-.06.32-.1.28a1,1,0,0,0-.18-.2c-.09,0-.05.1-.11.22s-.14,0-.21-.14-.35,0-.4.16.06.18.19.35S897,796.61,897.05,796.57Z"/><path class="cls-41" d="M898.24,795.92c.21,0,.16.08.2.15s0,.14.22.13.36.15.5,0a1.13,1.13,0,0,1,.31-.19c.16-.07.28-.12.15-.22s-.15-.14-.29-.09a.9.9,0,0,1-.43,0c-.15,0-.17.1-.24.1a1.46,1.46,0,0,1-.32-.08.22.22,0,0,0-.25.07C898,795.91,898,796,898.24,795.92Z"/><path class="cls-41" d="M908.14,815.46c0-.07,0-.16.05-.25s0-.11,0-.15-.11,0-.18.08,0,.08,0,.19a1.22,1.22,0,0,0,0,.23c0,.1,0,.17-.09.36s.1.26.14.33,0,.22-.08.33a.09.09,0,0,0,.06.14c.09-.32.16-.64.22-1,0,0,0,0,0,0S908.18,815.53,908.14,815.46Z"/><path class="cls-41" d="M904.88,800.37a1,1,0,0,1-.27.06c-.06,0,.06-.21,0-.24a.9.9,0,0,0-.48.17c-.12.11-.21.07-.38.18s-.21.16-.24.27a.21.21,0,0,1-.3.11c-.14,0-.26,0-.24-.13s.15-.07.2-.17a.2.2,0,0,0,0-.25c-.08-.08-.3-.19-.37-.11a.37.37,0,0,0,0,.37c.06.12-.08.17,0,.31s.06.34,0,.28-.13-.3-.26-.22-.42.15-.45.24,0,.28,0,.34-.16.08-.24,0-.26-.29-.33-.15.17.22.13.32-.17.12-.28,0-.26,0-.27-.2,0-.23-.06-.34-.29-.23-.2-.27.82.23.92.16.38,0,.43-.18.07-.29-.08-.37a3,3,0,0,1-.55-.34.5.5,0,0,0-.44-.2c-.18,0-.35,0-.4,0s-.42-.06-.44-.12.21-.12.07-.2a3.12,3.12,0,0,0-.42-.18c-.15-.06-.31.1-.36.1s0-.18-.14-.18-.25.18-.4.19-.19-.16-.24-.1,0,.26-.1.27-.28-.15-.44,0a1.22,1.22,0,0,0-.33.36c-.06.11-.07.17-.14.17s-.21-.18-.35-.07-.41.26-.36.35.32-.16.4-.09-.15.34-.25.41-.17.35-.29.48a5.38,5.38,0,0,1-1,.88c-.24.09-.41.08-.36.28a5.07,5.07,0,0,0,.09.54c.07.21-.07.46.17.51s.33.09.46-.06.19-.31.3-.25,0,.23.12.32a1.34,1.34,0,0,1,.25.49.26.26,0,0,0,.23.28c.11,0,.09-.08.12-.2s.23-.06.43-.16,0-.31,0-.52.26-.24.3-.47-.19-.18-.28-.41.1-.33.2-.44.35-.17.46-.25.1-.24,0-.39.5-.26.58-.24.13.15.14.32-.11.18-.16.28-.24.2-.41.33-.07.45,0,.6.24.18.42.25.36-.06.48-.11.35,0,.37,0-.07.13-.2.22-.48,0-.69,0-.15.08-.25.18,0,.14.06.16.21,0,.3.07,0,.18-.1.27-.13-.09-.25-.14-.14.08-.24.25,0,.14,0,.3-.24.23-.47.26-.26,0-.42.08a.43.43,0,0,1-.42,0c-.12,0-.11-.14-.18-.12s-.19.05-.2,0a.33.33,0,0,0,0-.19c0-.1-.12-.1-.13-.14s0-.2,0-.34,0-.25-.16-.18-.26,0-.34.23.09.81,0,.86-.14-.06-.29,0-.26.1-.32.17-.06.23-.13.3-.33.17-.42.28,0,.19-.12.23-.2.18-.27.15-.19-.15-.26-.1.09.27,0,.28-.57-.06-.57.07.41.17.5.31a1.78,1.78,0,0,1,.15.52c0,.2,0,.36-.08.36a6.53,6.53,0,0,0-1,0c-.16,0-.3-.07-.33.1s.13.24.07.33,0,.31-.07.41a.72.72,0,0,0,0,.46c.08.17.16.23.29.22s.16,0,.23.09a1,1,0,0,0,.62,0,2.4,2.4,0,0,0,.49-.43c.13-.13,0-.28.06-.45s.35-.21.53-.3,0-.31.11-.41.35,0,.49,0,.21-.12.31-.18a.23.23,0,0,1,.28,0,3.53,3.53,0,0,1,.35.33c.07.12.28.21.4.37a.56.56,0,0,0,.29.17.31.31,0,0,1,.08.28c0,.13-.19.15-.3.18s-.24,0-.33,0,.22.11.38.18.23-.19.3-.25a.54.54,0,0,0,.18-.3c0-.1.24-.12.19-.24s-.18-.18-.4-.33-.21-.24-.35-.39-.24-.23-.27-.33.14,0,.31.05.17.21.35.37.29.09.46.19.16.15.14.34.19.35.21.57.34.33.5.4.12-.63.1-.79.27-.14.43-.06.18.56.24.73.44.2.61.17.22,0,.28,0a.36.36,0,0,0,.44,0c.22-.15.24.08.21.24s.06.23,0,.43a.9.9,0,0,1-.23.44.46.46,0,0,1-.49.06.54.54,0,0,0-.51.07c-.15.08-.76-.2-.88-.27a1.32,1.32,0,0,0-.63-.12c-.16,0-.13.37-.26.51s-.22-.09-.42-.15a3.71,3.71,0,0,1-1.07-.64c0-.16,0-.18,0-.36s.18-.31,0-.34-1,.11-1.34.09a1.59,1.59,0,0,0-.86.27,1.1,1.1,0,0,1-.63.06c-.21,0-.23-.09-.33,0s-.26.38-.39.47-.38,0-.31.25,0,.23,0,.36a2.31,2.31,0,0,1-.58.65c-.15.11-.19.3-.32.5s-.49.57-.42.81.19.21.15.39a3.31,3.31,0,0,1-.06.61c-.07.19-.19.23-.09.41s-.05.44.08.55.24-.05.36.1.22.57.41.69.62.64.8.59.17-.13.41-.1.42,0,.62,0,.41-.2.65-.22.45-.16.6,0,.41.29.47.26.43,0,.51.14-.32.73-.11,1.09.46.4.52.64.22.19.25.58.17.66.1.74a4.16,4.16,0,0,0-.39,1.11c0,.26.3.51.39.75a4.73,4.73,0,0,1,.18,1,.69.69,0,0,0,.19.53c.17.22.47.47.45.71s-.13.58.24.66a2.48,2.48,0,0,0,.91-.13c.25,0,.86-.2,1-.49s.4-.82.52-1.12.49-.37.44-.57-.18-.72,0-.87.86-.42.91-.77a5.75,5.75,0,0,0-.12-1.39,7.66,7.66,0,0,1,0-1,14.23,14.23,0,0,0,1.54-1.56,4.74,4.74,0,0,0,.61-1.46c-.07-.15-.49.07-.61.1a1.06,1.06,0,0,1-.59.06,1.08,1.08,0,0,1-.46-.53,2.2,2.2,0,0,0-.35-.44c-.21-.24-.1-.28-.32-.43s-.14-.24-.16-.47-.15-.24-.18-.38a1,1,0,0,0-.26-.46c-.16-.21-.09-.26-.21-.49s-.1-.2,0-.3.16-.21.24-.08.12.24.23.38a1.82,1.82,0,0,1,.3.4c.15.28.3.26.28.5s-.13.24,0,.33a1,1,0,0,1,.33.29c.07.14.26.16.28.42a1.64,1.64,0,0,0,.14.79c.11.12.37,0,.42,0s.68-.21.84-.32.37-.1.52-.27.29-.11.48-.26.74-.68.72-.9a.54.54,0,0,0-.29-.47c-.16-.06-.25-.39-.32-.42s-.17.34-.42.38-.3.15-.45,0-.06-.29-.24-.46a1.31,1.31,0,0,1-.32-.41c-.06-.12,0-.42.17-.31s.32.34.5.49.42.32.48.23.25-.18.33-.13.07.27.3.31a1.65,1.65,0,0,1,.54.07.75.75,0,0,0,.42.06c.11,0,.55,0,.65.1a4.22,4.22,0,0,0,.3.47c.11.12.16.35.36.3s.36-.15.38-.1-.1.86.11,1.06a3.57,3.57,0,0,1,.38.95,19.12,19.12,0,0,0,.13-2.28A19.57,19.57,0,0,0,904.88,800.37Zm-2.72,7.51c-.19,0-.32.15-.43.07s-.36,0-.48-.1-.11-.24-.35-.15-.32.19-.5.18-.43.07-.49,0-.18-.22-.13-.28.17-.18.16-.29-.07-.14,0-.21a.26.26,0,0,0,.17-.22.18.18,0,0,1,.06-.15c.13-.09.2-.17.25-.11s0,.11.13.11.16,0,.18.06-.1,0-.13.11.1.11.12.18a.14.14,0,0,0,.12.1s.08-.08.13-.12.1,0,.1-.07-.17-.1-.13-.17a.46.46,0,0,1,.2-.19c.1,0,.1-.1.22-.06s.23,0,.17.16-.18.18-.07.3.29.18.37.26.28.2.31.28S902.34,807.83,902.16,807.88Zm2.5.17c0,.15-.2,0-.29.1s.12.2.17.35a.65.65,0,0,1,0,.41c0,.15-.22.05-.46.1s-.22-.07-.4-.16-.16-.21-.14-.37.14-.18.18-.28,0-.2-.13-.37-.19-.21-.18-.32-.12-.27-.17-.46.17-.15.3-.27a1.41,1.41,0,0,1,.45-.28c.16,0,.25,0,.35.12s.08.21.13.4-.13.05-.3,0-.2.1-.25.21.1.15.24.31.1.22.24.18S904.69,807.91,904.66,808.05Z"/><g class="cls-42"><path class="cls-43" d="M899.14,795.11a19.61,19.61,0,0,1-24.56,30,19.6,19.6,0,1,0,24.56-30Z"/></g><line class="cls-44" x1="919.39" y1="802" x2="969.39" y2="802"/><line class="cls-44" x1="919.89" y1="812.5" x2="969.89" y2="812.5"/><line class="cls-44" x1="919.89" y1="823.5" x2="969.89" y2="823.5"/><rect class="cls-45" x="861.89" y="776.5" width="70" height="5"/><rect class="cls-46" x="930.89" y="776.5" width="16" height="5"/></svg>