<?xml version="1.0" encoding="utf-8"?>
<!-- Generator: Adobe Illustrator 25.2.3, SVG Export Plug-In . SVG Version: 6.00 Build 0)  -->
<svg version="1.1" id="Layer_1" xmlns="http://www.w3.org/2000/svg" xmlns:xlink="http://www.w3.org/1999/xlink" x="0px" y="0px"
	 viewBox="0 0 244 187" style="enable-background:new 0 0 244 187;" xml:space="preserve">
<style type="text/css">
	.st0{opacity:0.83;fill:#0A313A;stroke:#333333;stroke-width:2;stroke-miterlimit:10;enable-background:new    ;}
	.st1{clip-path:url(#SVGID_2_);}
	.st2{opacity:5.000000e-02;}
	.st3{fill:none;stroke:#F2F2F2;stroke-width:0.75;stroke-miterlimit:10;}
	.st4{fill:#797979;}
	.st5{clip-path:url(#SVGID_4_);}
	.st6{fill:#7E7E7E;}
	.st7{clip-path:url(#SVGID_6_);}
	.st8{fill:#838383;}
	.st9{fill:#888888;}
	.st10{fill:#8C8C8C;}
	.st11{clip-path:url(#SVGID_8_);}
	.st12{fill:#05191E;}
	.st13{clip-path:url(#SVGID_10_);}
	.st14{clip-path:url(#SVGID_12_);}
	.st15{fill:#05191D;}
	.st16{clip-path:url(#SVGID_14_);}
	.st17{fill:#061C22;}
	.st18{fill:#061B20;}
	.st19{fill:#051A1F;}
	.st20{clip-path:url(#SVGID_16_);}
	.st21{fill:#DADADA;}
	.st22{fill:#092C34;}
	.st23{clip-path:url(#SVGID_18_);}
	.st24{clip-path:url(#SVGID_20_);}
	.st25{clip-path:url(#SVGID_22_);}
	.st26{clip-path:url(#SVGID_24_);}
	.st27{clip-path:url(#SVGID_26_);}
	.st28{fill:#661919;}
	.st29{clip-path:url(#SVGID_28_);}
	.st30{clip-path:url(#SVGID_30_);}
	.st31{fill:#621818;}
	.st32{clip-path:url(#SVGID_32_);}
	.st33{fill:#721C1C;}
	.st34{fill:#6E1B1B;}
	.st35{fill:#6A1A1A;}
	.st36{fill:#B12B2B;}
	.st37{clip-path:url(#SVGID_34_);}
	.st38{clip-path:url(#SVGID_36_);}
	.st39{clip-path:url(#SVGID_38_);}
	.st40{clip-path:url(#SVGID_40_);}
	.st41{clip-path:url(#SVGID_42_);}
	.st42{clip-path:url(#SVGID_44_);}
	.st43{fill:#395555;}
	.st44{clip-path:url(#SVGID_46_);}
	.st45{clip-path:url(#SVGID_48_);}
	.st46{fill:#375252;}
	.st47{clip-path:url(#SVGID_50_);}
	.st48{fill:#405F5F;}
	.st49{fill:#3E5B5B;}
	.st50{fill:#3B5858;}
	.st51{fill:#639393;}
	.st52{clip-path:url(#SVGID_52_);}
	.st53{clip-path:url(#SVGID_54_);}
	.st54{clip-path:url(#SVGID_56_);}
	.st55{clip-path:url(#SVGID_58_);}
	.st56{clip-path:url(#SVGID_60_);}
	.st57{clip-path:url(#SVGID_62_);}
	.st58{clip-path:url(#SVGID_64_);}
	.st59{clip-path:url(#SVGID_66_);}
	.st60{clip-path:url(#SVGID_68_);}
	.st61{clip-path:url(#SVGID_70_);}
	.st62{clip-path:url(#SVGID_72_);}
	.st63{clip-path:url(#SVGID_74_);}
	.st64{clip-path:url(#SVGID_76_);}
	.st65{clip-path:url(#SVGID_78_);}
	.st66{clip-path:url(#SVGID_80_);}
	.st67{clip-path:url(#SVGID_82_);}
	.st68{clip-path:url(#SVGID_84_);}
	.st69{clip-path:url(#SVGID_86_);}
	.st70{clip-path:url(#SVGID_88_);}
	.st71{clip-path:url(#SVGID_90_);}
	.st72{clip-path:url(#SVGID_92_);}
	.st73{fill:#7B7B7B;}
	.st74{opacity:0.83;fill:none;stroke:#333333;stroke-width:2;stroke-miterlimit:10;enable-background:new    ;}
</style>
<rect x="4" y="5" class="st0" width="236" height="178"/>
<g>
	<defs>
		<rect id="SVGID_1_" x="4" y="4.5" width="236" height="178"/>
	</defs>
	<clipPath id="SVGID_2_">
		<use xlink:href="#SVGID_1_"  style="overflow:visible;"/>
	</clipPath>
	<g class="st1">
		<g class="st2">
			<line class="st3" x1="-4.2" y1="0.4" x2="244.5" y2="0.9"/>
			<line class="st3" x1="-4.8" y1="8.9" x2="245.1" y2="9.3"/>
			<line class="st3" x1="-5.5" y1="17.4" x2="245.7" y2="17.8"/>
			<line class="st3" x1="-6.2" y1="25.8" x2="246.3" y2="26.2"/>
			<line class="st3" x1="-6.8" y1="34.3" x2="247" y2="34.7"/>
			<line class="st3" x1="-7.5" y1="42.7" x2="247.6" y2="43.1"/>
			<line class="st3" x1="-8.1" y1="51.2" x2="248.2" y2="51.6"/>
			<line class="st3" x1="-8.8" y1="59.7" x2="248.8" y2="60"/>
			<line class="st3" x1="-9.5" y1="68.1" x2="249.4" y2="68.5"/>
			<line class="st3" x1="-10.1" y1="76.6" x2="250.1" y2="76.9"/>
			<line class="st3" x1="-10.8" y1="85.1" x2="250.7" y2="85.3"/>
			<line class="st3" x1="-11.4" y1="93.5" x2="251.3" y2="93.8"/>
			<line class="st3" x1="-12.1" y1="102" x2="251.9" y2="102.2"/>
			<line class="st3" x1="-12.8" y1="110.4" x2="252.6" y2="110.7"/>
			<line class="st3" x1="-13.4" y1="118.9" x2="253.2" y2="119.1"/>
			<line class="st3" x1="-14.1" y1="127.3" x2="253.8" y2="127.6"/>
			<line class="st3" x1="-14.7" y1="135.8" x2="254.4" y2="136"/>
			<line class="st3" x1="-15.4" y1="144.3" x2="255.1" y2="144.5"/>
			<line class="st3" x1="-16" y1="152.7" x2="255.7" y2="152.9"/>
			<line class="st3" x1="-16.7" y1="161.2" x2="256.3" y2="161.4"/>
			<line class="st3" x1="-17.4" y1="169.7" x2="256.9" y2="169.8"/>
			<line class="st3" x1="-18" y1="178.1" x2="257.5" y2="178.2"/>
			<line class="st3" x1="-18.7" y1="186.6" x2="258.2" y2="186.7"/>
			<line class="st3" x1="226" y1="-30" x2="243" y2="237"/>
			<line class="st3" x1="218.3" y1="-30" x2="234" y2="237"/>
			<line class="st3" x1="210.6" y1="-30" x2="225" y2="237"/>
			<line class="st3" x1="202.9" y1="-30" x2="216" y2="237"/>
			<line class="st3" x1="195.1" y1="-30" x2="207" y2="237"/>
			<line class="st3" x1="187.4" y1="-30.1" x2="198" y2="237"/>
			<line class="st3" x1="179.7" y1="-30.1" x2="189" y2="237"/>
			<line class="st3" x1="172" y1="-30.1" x2="180" y2="237"/>
			<line class="st3" x1="164.3" y1="-30.1" x2="171" y2="237"/>
			<line class="st3" x1="156.6" y1="-30.1" x2="162" y2="237"/>
			<line class="st3" x1="148.8" y1="-30.1" x2="153" y2="237"/>
			<line class="st3" x1="141.1" y1="-30.2" x2="144" y2="237"/>
			<line class="st3" x1="133.4" y1="-30.2" x2="135" y2="237"/>
			<line class="st3" x1="125.7" y1="-30.2" x2="126" y2="237"/>
			<line class="st3" x1="118" y1="-30.2" x2="117" y2="237"/>
			<line class="st3" x1="110.2" y1="-30.2" x2="108" y2="237"/>
			<line class="st3" x1="102.5" y1="-30.2" x2="99" y2="237"/>
			<line class="st3" x1="94.8" y1="-30.3" x2="90" y2="237"/>
			<line class="st3" x1="87.1" y1="-30.3" x2="81" y2="237"/>
			<line class="st3" x1="79.4" y1="-30.3" x2="72" y2="237"/>
			<line class="st3" x1="71.7" y1="-30.3" x2="63" y2="237"/>
			<line class="st3" x1="63.9" y1="-30.3" x2="54" y2="237"/>
			<line class="st3" x1="56.2" y1="-30.4" x2="45" y2="237"/>
			<line class="st3" x1="48.5" y1="-30.4" x2="36" y2="237"/>
			<line class="st3" x1="40.8" y1="-30.4" x2="27" y2="237"/>
			<line class="st3" x1="33.1" y1="-30.4" x2="18" y2="237"/>
			<line class="st3" x1="25.4" y1="-30.4" x2="9" y2="237"/>
			<line class="st3" x1="17.6" y1="-30.4" x2="0" y2="237"/>
		</g>
	</g>
</g>
<g>
	<polygon class="st4" points="60.8,25.9 60.4,30.8 34.6,30.8 35.1,26 	"/>
	<g>
		<g>
			<defs>
				<path id="SVGID_3_" d="M62.9,28.3l-0.4,4.8c0.1-1.2-0.8-2.2-2-2.3c-0.1,0-0.1,0-0.2,0l0.4-4.8c1.2,0,2.2,1,2.2,2.1
					C62.9,28.1,62.9,28.2,62.9,28.3z"/>
			</defs>
			<clipPath id="SVGID_4_">
				<use xlink:href="#SVGID_3_"  style="overflow:visible;"/>
			</clipPath>
			<g class="st5">
				<g>
					<path class="st6" d="M62.9,28.3l-0.4,4.8c0.1-1.2-0.8-2.2-2-2.3c-0.1,0-0.1,0-0.2,0l0.4-4.8c1.2,0,2.2,1,2.2,2.1
						C62.9,28.1,62.9,28.2,62.9,28.3"/>
				</g>
			</g>
		</g>
	</g>
	<g>
		<g>
			<defs>
				<path id="SVGID_5_" d="M32.1,33.1l0.5-4.8c0.1-1.3,1.2-2.2,2.5-2.3l-0.5,4.8C33.3,30.9,32.3,31.8,32.1,33.1z"/>
			</defs>
			<clipPath id="SVGID_6_">
				<use xlink:href="#SVGID_5_"  style="overflow:visible;"/>
			</clipPath>
			<g class="st7">
				<g>
					<path class="st6" d="M35.1,26l-0.5,4.8c-0.7,0-1.4,0.3-1.8,0.8l0.5-4.8C33.7,26.3,34.4,26,35.1,26"/>
					<path class="st8" d="M33.3,26.8l-0.5,4.8c-0.1,0.1-0.2,0.3-0.3,0.5l0.5-4.8C33,27.1,33.1,27,33.3,26.8"/>
					<path class="st9" d="M32.9,27.3l-0.5,4.8c-0.1,0.2-0.2,0.3-0.2,0.5l0.5-4.8C32.8,27.6,32.8,27.5,32.9,27.3"/>
					<path class="st10" d="M32.7,27.8l-0.5,4.8c0,0.2-0.1,0.3-0.1,0.5l0.5-4.8C32.6,28.1,32.7,28,32.7,27.8"/>
				</g>
			</g>
		</g>
	</g>
	<g>
		<g>
			<defs>
				<polygon id="SVGID_7_" points="32.1,33.1 32.6,28.3 32.6,28.3 32.1,33.1 				"/>
			</defs>
			<clipPath id="SVGID_8_">
				<use xlink:href="#SVGID_7_"  style="overflow:visible;"/>
			</clipPath>
			<g class="st11">
				<g>
					<path class="st12" d="M32.6,28.3l-0.5,4.8l0,0L32.6,28.3L32.6,28.3"/>
				</g>
			</g>
		</g>
	</g>
	<g>
		<g>
			<defs>
				<path id="SVGID_9_" d="M28.5,33l0.5-4.8c0,0,0,0.1,0,0.1l-0.5,4.8C28.5,33.1,28.5,33.1,28.5,33z"/>
			</defs>
			<clipPath id="SVGID_10_">
				<use xlink:href="#SVGID_9_"  style="overflow:visible;"/>
			</clipPath>
			<g class="st13">
				<g>
					<path class="st6" d="M29,28.3l-0.5,4.8c0,0,0-0.1,0-0.1l0.5-4.8C29,28.2,29,28.3,29,28.3"/>
				</g>
			</g>
		</g>
	</g>
	<polygon class="st4" points="61.4,54.5 61,59.3 62.5,33.1 62.9,28.3 	"/>
	<g>
		<g>
			<defs>
				<polygon id="SVGID_11_" points="61.4,54.5 61,59.3 61,59.3 61.4,54.5 				"/>
			</defs>
			<clipPath id="SVGID_12_">
				<use xlink:href="#SVGID_11_"  style="overflow:visible;"/>
			</clipPath>
			<g class="st14">
				<g>
					<path class="st6" d="M61.4,54.5L61,59.3l0,0L61.4,54.5L61.4,54.5"/>
				</g>
			</g>
		</g>
	</g>
	<polygon class="st15" points="30.4,54.5 29.9,59.3 32.1,33.2 32.6,28.3 	"/>
	<polygon class="st4" points="26.7,54.5 26.2,59.3 28.5,33.2 29,28.3 	"/>
	<g>
		<g>
			<defs>
				<path id="SVGID_13_" d="M61,59.3c-0.1,1.3-1.2,2.3-2.5,2.3c0.1-1.4,0.2-2.8,0.3-4.3v-0.6c1.3,0,2.4-1,2.5-2.3
					C61.3,56,61.1,57.9,61,59.3z"/>
			</defs>
			<clipPath id="SVGID_14_">
				<use xlink:href="#SVGID_13_"  style="overflow:visible;"/>
			</clipPath>
			<g class="st16">
				<g>
					<path class="st17" d="M61.4,54.5L61,59.3c0,0.2,0,0.3-0.1,0.5l0.4-4.8C61.3,54.8,61.4,54.7,61.4,54.5"/>
					<path class="st18" d="M61.3,55l-0.4,4.8c0,0.2-0.1,0.3-0.2,0.5l0.4-4.8C61.2,55.4,61.2,55.2,61.3,55"/>
					<path class="st19" d="M61.1,55.5l-0.4,4.8c-0.1,0.2-0.2,0.3-0.3,0.5l0.4-4.8C60.9,55.9,61,55.7,61.1,55.5"/>
					<path class="st12" d="M60.7,56l-0.4,4.8c-0.5,0.5-1.1,0.8-1.8,0.8l0.4-4.8C59.6,56.8,60.3,56.5,60.7,56"/>
				</g>
			</g>
		</g>
	</g>
	<polygon class="st15" points="58.9,56.8 58.5,61.6 32,61.7 32.5,56.8 	"/>
	<g>
		<g>
			<defs>
				<path id="SVGID_15_" d="M32.5,56.8L32,61.7c-1.2,0-2.1-0.9-2.2-2.1c0-0.1,0-0.2,0-0.3l0.5-4.8c-0.1,1.2,0.7,2.2,1.9,2.3
					C32.4,56.8,32.5,56.8,32.5,56.8z"/>
			</defs>
			<clipPath id="SVGID_16_">
				<use xlink:href="#SVGID_15_"  style="overflow:visible;"/>
			</clipPath>
			<g class="st20">
				<g>
					<path class="st12" d="M32.5,56.8L32,61.7c-1.2,0-2.1-0.9-2.2-2.1c0-0.1,0-0.2,0-0.3l0.5-4.8c-0.1,1.2,0.7,2.2,1.9,2.3
						C32.4,56.8,32.5,56.8,32.5,56.8"/>
				</g>
			</g>
		</g>
	</g>
	<path class="st21" d="M61,22.3c3,0,5.5,2.5,5.5,5.5c0,0.2,0,0.3,0,0.5L65,54.5c-0.2,3.4-3,6-6.3,6H32.2c-3,0.1-5.5-2.3-5.5-5.2
		c0-0.3,0-0.5,0-0.8L29,28.3c0.3-3.3,3-5.9,6.3-6L61,22.3z M61.4,54.5l1.5-26.2c0.1-1.2-0.8-2.2-2-2.3c-0.1,0-0.1,0-0.2,0L35.1,26
		c-1.3,0-2.4,1-2.5,2.3l-2.2,26.2c-0.1,1.2,0.7,2.2,1.9,2.3c0.1,0,0.2,0,0.3,0h26.4C60.2,56.8,61.3,55.8,61.4,54.5"/>
	<path class="st22" d="M60.8,25.9c1.2,0,2.2,1,2.2,2.1c0,0.1,0,0.1,0,0.2l-1.5,26.2c-0.1,1.3-1.2,2.3-2.5,2.3H32.5
		c-1.2,0-2.1-0.9-2.2-2.1c0-0.1,0-0.2,0-0.3l2.2-26.2c0.1-1.3,1.2-2.3,2.5-2.3L60.8,25.9z"/>
	<g>
		<g>
			<defs>
				<path id="SVGID_17_" d="M65,54.6l-0.4,4.8c-0.3,3.3-3.1,5.8-6.4,5.9l0.4-4.8C62,60.4,64.7,57.9,65,54.6z"/>
			</defs>
			<clipPath id="SVGID_18_">
				<use xlink:href="#SVGID_17_"  style="overflow:visible;"/>
			</clipPath>
			<g class="st23">
				<g>
					<path class="st10" d="M65,54.6l-0.4,4.8c0,0.4-0.1,0.8-0.2,1.2l0.4-4.8C64.9,55.4,65,55,65,54.6"/>
					<path class="st9" d="M64.8,55.8l-0.4,4.8c-0.1,0.5-0.3,0.9-0.5,1.4l0.4-4.8C64.5,56.7,64.7,56.3,64.8,55.8"/>
					<path class="st8" d="M64.3,57.1L63.9,62c-0.3,0.4-0.6,0.8-0.9,1.2l0.4-4.8C63.7,58,64,57.6,64.3,57.1"/>
					<path class="st6" d="M63.4,58.3L63,63.2c-1.2,1.3-2.9,2.1-4.7,2.1l0.4-4.8C60.4,60.4,62.2,59.7,63.4,58.3"/>
				</g>
			</g>
		</g>
	</g>
	<polygon class="st4" points="58.7,60.4 58.3,65.3 31.8,65.3 32.2,60.5 	"/>
	<g>
		<g>
			<defs>
				<path id="SVGID_19_" d="M32.2,60.5l-0.5,4.8c-3,0.1-5.5-2.3-5.6-5.3c0-0.2,0-0.5,0-0.7l0.5-4.8c-0.3,3,1.8,5.6,4.7,6
					C31.7,60.5,32,60.5,32.2,60.5z"/>
			</defs>
			<clipPath id="SVGID_20_">
				<use xlink:href="#SVGID_19_"  style="overflow:visible;"/>
			</clipPath>
			<g class="st24">
				<g>
					<path class="st6" d="M32.2,60.5l-0.5,4.8c-3,0.1-5.5-2.3-5.6-5.3c0-0.2,0-0.5,0-0.7l0.5-4.8c-0.3,3,1.8,5.6,4.7,6
						C31.7,60.5,32,60.5,32.2,60.5"/>
				</g>
			</g>
		</g>
	</g>
</g>
<g>
	<polygon class="st4" points="216.9,123.7 217.1,128.5 189.2,128.5 189,123.7 	"/>
	<g>
		<g>
			<defs>
				<path id="SVGID_21_" d="M219.6,126l0.2,4.9c-0.2-1.3-1.3-2.4-2.7-2.3l-0.2-4.8C218.3,123.6,219.4,124.7,219.6,126z"/>
			</defs>
			<clipPath id="SVGID_22_">
				<use xlink:href="#SVGID_21_"  style="overflow:visible;"/>
			</clipPath>
			<g class="st25">
				<g>
					<path class="st6" d="M219.6,126l0.2,4.9c-0.2-1.3-1.3-2.4-2.7-2.3l-0.2-4.8C218.3,123.6,219.4,124.7,219.6,126"/>
				</g>
			</g>
		</g>
	</g>
	<g>
		<g>
			<defs>
				<path id="SVGID_23_" d="M186.8,130.8l-0.1-4.8c0-1.3,1-2.3,2.3-2.3c0,0,0.1,0,0.1,0l0.1,4.9
					C187.9,128.5,186.8,129.4,186.8,130.8C186.8,130.7,186.8,130.8,186.8,130.8z"/>
			</defs>
			<clipPath id="SVGID_24_">
				<use xlink:href="#SVGID_23_"  style="overflow:visible;"/>
			</clipPath>
			<g class="st26">
				<g>
					<path class="st6" d="M189,123.7l0.1,4.9c-0.7,0-1.4,0.3-1.9,0.8l-0.1-4.8C187.6,123.9,188.3,123.6,189,123.7"/>
					<path class="st8" d="M187.2,124.5l0.1,4.8c-0.1,0.1-0.2,0.3-0.3,0.5l-0.1-4.8C187,124.8,187.1,124.6,187.2,124.5"/>
					<path class="st9" d="M186.9,125l0.1,4.9c-0.1,0.2-0.1,0.3-0.2,0.5l-0.1-4.8C186.7,125.3,186.8,125.2,186.9,125"/>
					<path class="st10" d="M186.7,125.5l0.1,4.9c0,0.2,0,0.3,0,0.5l-0.1-4.8C186.7,125.8,186.7,125.6,186.7,125.5"/>
				</g>
			</g>
		</g>
	</g>
	<g>
		<g>
			<defs>
				<polygon id="SVGID_25_" points="186.8,130.8 186.7,126 186.7,126 				"/>
			</defs>
			<clipPath id="SVGID_26_">
				<use xlink:href="#SVGID_25_"  style="overflow:visible;"/>
			</clipPath>
			<g class="st27">
				<g>
					<path class="st28" d="M186.7,126l0.1,4.9l0,0L186.7,126L186.7,126"/>
				</g>
			</g>
		</g>
	</g>
	<g>
		<g>
			<defs>
				<path id="SVGID_27_" d="M182.9,130.7l-0.1-4.8v0.1l0.1,4.9C182.9,130.9,182.9,130.8,182.9,130.7z"/>
			</defs>
			<clipPath id="SVGID_28_">
				<use xlink:href="#SVGID_27_"  style="overflow:visible;"/>
			</clipPath>
			<g class="st29">
				<g>
					<path class="st6" d="M182.8,126l0.1,4.9c0,0,0-0.1,0-0.1l-0.1-4.8L182.8,126"/>
				</g>
			</g>
		</g>
	</g>
	<polygon class="st4" points="221.4,152.3 221.7,157.2 219.8,130.9 219.6,126 	"/>
	<g>
		<g>
			<defs>
				<polygon id="SVGID_29_" points="221.4,152.4 221.7,157.2 221.7,157.2 221.4,152.4 				"/>
			</defs>
			<clipPath id="SVGID_30_">
				<use xlink:href="#SVGID_29_"  style="overflow:visible;"/>
			</clipPath>
			<g class="st30">
				<g>
					<path class="st6" d="M221.4,152.4l0.2,4.9l0,0L221.4,152.4L221.4,152.4"/>
				</g>
			</g>
		</g>
	</g>
	<polygon class="st31" points="187.9,152.3 188,157.1 186.8,130.8 186.7,126 	"/>
	<polygon class="st4" points="183.9,152.3 184,157.1 182.9,130.8 182.8,126 	"/>
	<g>
		<g>
			<defs>
				<path id="SVGID_31_" d="M221.7,157.2c0,1.2-1,2.3-2.2,2.3c-0.1,0-0.1,0-0.2,0l-0.2-4.9c1.2,0.1,2.3-0.9,2.4-2.1
					c0-0.1,0-0.1,0-0.2C221.5,153.8,221.6,155.8,221.7,157.2z"/>
			</defs>
			<clipPath id="SVGID_32_">
				<use xlink:href="#SVGID_31_"  style="overflow:visible;"/>
			</clipPath>
			<g class="st32">
				<g>
					<path class="st33" d="M221.4,152.4l0.2,4.9c0,0.2,0,0.3,0,0.5l-0.2-4.9C221.5,152.7,221.5,152.5,221.4,152.4"/>
					<path class="st34" d="M221.4,152.8l0.2,4.9c0,0.2-0.1,0.3-0.2,0.5l-0.2-4.9C221.3,153.2,221.4,153,221.4,152.8"/>
					<path class="st35" d="M221.2,153.4l0.2,4.9c-0.1,0.2-0.2,0.3-0.3,0.5l-0.2-4.9C221.1,153.7,221.2,153.5,221.2,153.4"/>
					<path class="st28" d="M220.9,153.8l0.2,4.9c-0.5,0.5-1.2,0.8-1.9,0.8l-0.2-4.9C219.8,154.7,220.5,154.4,220.9,153.8"/>
				</g>
			</g>
		</g>
	</g>
	<polygon class="st31" points="219.1,154.6 219.3,159.5 190.6,159.5 190.5,154.6 	"/>
	<path class="st36" d="M216.9,123.7c1.4,0,2.5,1,2.6,2.3l1.9,26.3c0,1.2-0.9,2.3-2.2,2.3c-0.1,0-0.1,0-0.2,0h-28.6
		c-1.4,0-2.5-1-2.6-2.3l-1.2-26.3c0-1.3,1-2.3,2.2-2.3c0,0,0.1,0,0.1,0L216.9,123.7z"/>
	<g>
		<g>
			<defs>
				<path id="SVGID_33_" d="M190.5,154.6l0.1,4.9c-1.4,0-2.5-1-2.6-2.3l-0.1-4.9C188,153.6,189.1,154.6,190.5,154.6z"/>
			</defs>
			<clipPath id="SVGID_34_">
				<use xlink:href="#SVGID_33_"  style="overflow:visible;"/>
			</clipPath>
			<g class="st37">
				<g>
					<path class="st28" d="M190.5,154.6l0.1,4.9c-1.4,0-2.5-1-2.6-2.3l-0.1-4.9C188,153.6,189.1,154.6,190.5,154.6"/>
				</g>
			</g>
		</g>
	</g>
	<g>
		<g>
			<defs>
				<path id="SVGID_35_" d="M225.4,152.4l0.3,4.9c0.2,3.2-2.5,5.9-6.1,5.9l-0.2-4.9C222.9,158.3,225.6,155.7,225.4,152.4z"/>
			</defs>
			<clipPath id="SVGID_36_">
				<use xlink:href="#SVGID_35_"  style="overflow:visible;"/>
			</clipPath>
			<g class="st38">
				<g>
					<path class="st10" d="M225.4,152.4l0.3,4.9c0,0.4,0,0.8-0.1,1.2l-0.3-4.9C225.4,153.3,225.4,152.8,225.4,152.4"/>
					<path class="st9" d="M225.3,153.7l0.3,4.9c-0.1,0.5-0.2,0.9-0.4,1.3l-0.3-4.9C225.1,154.6,225.2,154.1,225.3,153.7"/>
					<path class="st8" d="M224.9,155l0.3,4.9c-0.2,0.4-0.5,0.9-0.8,1.2l-0.2-4.9C224.4,155.9,224.7,155.4,224.9,155"/>
					<path class="st6" d="M224.1,156.2l0.2,4.9c-1.2,1.4-3,2.1-4.8,2.1l-0.2-4.9C221.1,158.3,222.9,157.6,224.1,156.2"/>
				</g>
			</g>
		</g>
	</g>
	<polygon class="st4" points="219.3,158.3 219.5,163.2 190.8,163.1 190.7,158.3 	"/>
	<g>
		<g>
			<defs>
				<path id="SVGID_37_" d="M190.7,158.3l0.1,4.9c-3.6,0-6.7-2.7-6.8-6l-0.1-4.9C184.2,155.7,187.2,158.4,190.7,158.3z"/>
			</defs>
			<clipPath id="SVGID_38_">
				<use xlink:href="#SVGID_37_"  style="overflow:visible;"/>
			</clipPath>
			<g class="st39">
				<g>
					<path class="st6" d="M190.7,158.3l0.1,4.9c-3.6,0-6.7-2.7-6.8-6l-0.1-4.9C184.2,155.7,187.2,158.4,190.7,158.3"/>
				</g>
			</g>
		</g>
	</g>
	<path class="st21" d="M216.6,120c3.5,0,6.4,2.6,6.8,6l2,26.3c0.2,3.3-2.5,6-6.1,6h-28.6c-3.5,0.1-6.4-2.5-6.8-6l-1.1-26.3
		c-0.1-3.2,2.5-5.9,5.7-6c0.1,0,0.2,0,0.4,0H216.6z M221.4,152.3l-1.9-26.3c-0.1-1.3-1.3-2.4-2.6-2.3H189c-1.3-0.1-2.3,0.9-2.4,2.2
		c0,0,0,0.1,0,0.1l1.2,26.3c0.1,1.4,1.3,2.4,2.6,2.3h28.6c1.2,0.1,2.3-0.9,2.4-2.1C221.4,152.4,221.4,152.3,221.4,152.3"/>
</g>
<g>
	<polygon class="st4" points="135.6,74.6 135.6,79.4 108.7,79.4 108.9,74.6 	"/>
	<g>
		<g>
			<defs>
				<path id="SVGID_39_" d="M138,76.9v4.8c0-1.3-1.1-2.3-2.4-2.3l0.1-4.8C136.9,74.6,138,75.6,138,76.9z"/>
			</defs>
			<clipPath id="SVGID_40_">
				<use xlink:href="#SVGID_39_"  style="overflow:visible;"/>
			</clipPath>
			<g class="st40">
				<g>
					<path class="st6" d="M138,76.9v4.8c0-1.3-1.1-2.3-2.4-2.3l0.1-4.8C136.9,74.6,138,75.6,138,76.9"/>
				</g>
			</g>
		</g>
	</g>
	<g>
		<g>
			<defs>
				<path id="SVGID_41_" d="M106.3,81.7l0.2-4.8c0.1-1.3,1.1-2.3,2.4-2.3l-0.2,4.8C107.4,79.4,106.3,80.4,106.3,81.7z"/>
			</defs>
			<clipPath id="SVGID_42_">
				<use xlink:href="#SVGID_41_"  style="overflow:visible;"/>
			</clipPath>
			<g class="st41">
				<g>
					<path class="st6" d="M108.9,74.6l-0.2,4.8c-0.7,0-1.4,0.3-1.8,0.8l0.2-4.8C107.5,74.9,108.2,74.6,108.9,74.6"/>
					<path class="st8" d="M107.1,75.4l-0.2,4.8c-0.1,0.1-0.2,0.3-0.3,0.5l0.2-4.8C106.8,75.7,106.9,75.5,107.1,75.4"/>
					<path class="st9" d="M106.7,75.9l-0.2,4.8c-0.1,0.2-0.1,0.3-0.2,0.5l0.2-4.8C106.6,76.2,106.6,76,106.7,75.9"/>
					<path class="st10" d="M106.5,76.4l-0.2,4.8c0,0.2-0.1,0.3-0.1,0.5l0.2-4.8C106.5,76.7,106.5,76.5,106.5,76.4"/>
				</g>
			</g>
		</g>
	</g>
	<g>
		<g>
			<defs>
				<polygon id="SVGID_43_" points="106.3,81.7 106.5,76.9 106.5,76.9 106.3,81.7 				"/>
			</defs>
			<clipPath id="SVGID_44_">
				<use xlink:href="#SVGID_43_"  style="overflow:visible;"/>
			</clipPath>
			<g class="st42">
				<g>
					<path class="st43" d="M106.5,76.9l-0.2,4.8l0,0L106.5,76.9L106.5,76.9"/>
				</g>
			</g>
		</g>
	</g>
	<g>
		<g>
			<defs>
				<path id="SVGID_45_" d="M102.5,81.6l0.2-4.8c0,0,0,0.1,0,0.1l-0.2,4.8C102.5,81.7,102.5,81.7,102.5,81.6z"/>
			</defs>
			<clipPath id="SVGID_46_">
				<use xlink:href="#SVGID_45_"  style="overflow:visible;"/>
			</clipPath>
			<g class="st44">
				<g>
					<path class="st6" d="M102.7,76.9l-0.2,4.8c0,0,0-0.1,0-0.1l0.2-4.8C102.7,76.8,102.7,76.9,102.7,76.9"/>
				</g>
			</g>
		</g>
	</g>
	<polygon class="st4" points="138.2,103.2 138.2,108 138,81.7 138,76.9 	"/>
	<g>
		<g>
			<defs>
				<polygon id="SVGID_47_" points="138.2,103.2 138.2,108 138.2,108 138.2,103.2 				"/>
			</defs>
			<clipPath id="SVGID_48_">
				<use xlink:href="#SVGID_47_"  style="overflow:visible;"/>
			</clipPath>
			<g class="st45">
				<g>
					<path class="st6" d="M138.2,103.2l-0.1,4.8v0L138.2,103.2L138.2,103.2"/>
				</g>
			</g>
		</g>
	</g>
	<polygon class="st46" points="105.9,103.1 105.8,108 106.3,81.8 106.5,76.9 	"/>
	<polygon class="st4" points="102.1,103.1 101.9,108 102.5,81.8 102.7,76.9 	"/>
	<g>
		<g>
			<defs>
				<path id="SVGID_49_" d="M135.7,110.3c0-1.6,0.1-3.2,0.1-4.8c1.3,0,2.4-1,2.4-2.3l-0.1,4.8C138.1,109.3,137,110.4,135.7,110.3z"
					/>
			</defs>
			<clipPath id="SVGID_50_">
				<use xlink:href="#SVGID_49_"  style="overflow:visible;"/>
			</clipPath>
			<g class="st47">
				<g>
					<path class="st48" d="M138.2,103.2l-0.1,4.8c0,0.2,0,0.3-0.1,0.5l0.1-4.8C138.2,103.5,138.2,103.4,138.2,103.2"/>
					<path class="st49" d="M138.2,103.7l-0.1,4.8c0,0.2-0.1,0.4-0.2,0.5l0.1-4.8C138.1,104,138.1,103.8,138.2,103.7"/>
					<path class="st50" d="M138,104.2l-0.1,4.8c-0.1,0.2-0.2,0.3-0.3,0.5l0.1-4.8C137.8,104.5,137.9,104.4,138,104.2"/>
					<path class="st43" d="M137.6,104.7l-0.1,4.8c-0.5,0.5-1.2,0.8-1.9,0.8l0.1-4.8C136.5,105.5,137.2,105.2,137.6,104.7"/>
				</g>
			</g>
		</g>
	</g>
	<polygon class="st46" points="135.8,105.5 135.7,110.3 108.2,110.3 108.3,105.5 	"/>
	<path class="st51" d="M135.6,74.6c1.3,0,2.3,1.1,2.4,2.3l0.2,26.2c0,1.3-1.1,2.3-2.4,2.3c0,0,0,0,0,0h-27.4c-1.3,0-2.4-1-2.4-2.3
		c0,0,0,0,0-0.1l0.5-26.2c0-1.3,1.1-2.3,2.4-2.3L135.6,74.6z"/>
	<g>
		<g>
			<defs>
				<path id="SVGID_51_" d="M108.2,110.3c-1.3,0-2.4-1-2.4-2.3c0,0,0,0,0-0.1l0.2-4.8c0,1.3,1.1,2.3,2.3,2.3c0,0,0,0,0.1,0
					C108.3,106.9,108.2,108.9,108.2,110.3z"/>
			</defs>
			<clipPath id="SVGID_52_">
				<use xlink:href="#SVGID_51_"  style="overflow:visible;"/>
			</clipPath>
			<g class="st52">
				<g>
					<path class="st43" d="M108.3,105.5l-0.2,4.8c-1.3,0-2.4-1-2.4-2.3c0,0,0,0,0-0.1l0.2-4.8C106,104.4,107,105.5,108.3,105.5
						C108.3,105.5,108.3,105.5,108.3,105.5"/>
				</g>
			</g>
		</g>
	</g>
	<g>
		<g>
			<defs>
				<path id="SVGID_53_" d="M142,103.3v4.8c-0.1,3.3-2.9,6-6.2,5.9l0.1-4.8C139.1,109.2,141.9,106.6,142,103.3z"/>
			</defs>
			<clipPath id="SVGID_54_">
				<use xlink:href="#SVGID_53_"  style="overflow:visible;"/>
			</clipPath>
			<g class="st53">
				<g>
					<path class="st10" d="M142,103.3v4.8c0,0.4,0,0.8-0.1,1.2l0.1-4.8C142,104.1,142,103.7,142,103.3"/>
					<path class="st9" d="M141.9,104.5l-0.1,4.8c-0.1,0.5-0.3,0.9-0.5,1.3v-4.8C141.6,105.4,141.7,104.9,141.9,104.5"/>
					<path class="st8" d="M141.4,105.8v4.8c-0.2,0.4-0.5,0.9-0.9,1.2l0.1-4.8C141,106.7,141.2,106.2,141.4,105.8"/>
					<path class="st6" d="M140.6,107l-0.1,4.8c-1.2,1.4-3,2.1-4.8,2.1l0.1-4.8C137.6,109.1,139.4,108.4,140.6,107"/>
				</g>
			</g>
		</g>
	</g>
	<polygon class="st4" points="135.8,109.1 135.7,114 108.1,114 108.3,109.1 	"/>
	<g>
		<g>
			<defs>
				<path id="SVGID_55_" d="M108.3,109.1l-0.2,4.9c-3.3,0.1-6.1-2.5-6.2-5.8c0-0.1,0-0.1,0-0.2l0.2-4.8c0,3.3,2.7,6,6,6
					C108.2,109.1,108.2,109.1,108.3,109.1z"/>
			</defs>
			<clipPath id="SVGID_56_">
				<use xlink:href="#SVGID_55_"  style="overflow:visible;"/>
			</clipPath>
			<g class="st54">
				<g>
					<path class="st6" d="M108.3,109.1l-0.2,4.9c-3.3,0.1-6.1-2.5-6.2-5.8c0-0.1,0-0.1,0-0.2l0.2-4.8c0,3.3,2.7,6,6,6
						C108.2,109.2,108.2,109.2,108.3,109.1"/>
				</g>
			</g>
		</g>
	</g>
	<path class="st21" d="M135.6,70.9c3.3,0,6.1,2.7,6.1,6l0.3,26.3c0,3.4-2.8,6-6.2,6c0,0,0,0-0.1,0h-27.5c-3.3,0.1-6.1-2.5-6.1-5.8
		c0-0.1,0-0.1,0-0.2l0.6-26.2c0.1-3.4,2.9-6,6.2-6L135.6,70.9z M138.2,103.2L138,76.9c0-1.3-1.1-2.3-2.4-2.3h-26.8
		c-1.3,0-2.4,1-2.4,2.3l-0.4,26.2c0,1.3,1.1,2.3,2.3,2.3c0,0,0,0,0.1,0h27.4C137.1,105.5,138.2,104.5,138.2,103.2
		C138.2,103.2,138.2,103.2,138.2,103.2"/>
</g>
<g>
	<polygon class="st4" points="135.9,122.4 135.8,127.2 107.9,127.2 108.1,122.4 	"/>
	<g>
		<g>
			<defs>
				<path id="SVGID_57_" d="M138.4,124.7l-0.1,4.8c0-1.3-1.2-2.4-2.5-2.3l0.1-4.8C137.2,122.4,138.3,123.4,138.4,124.7z"/>
			</defs>
			<clipPath id="SVGID_58_">
				<use xlink:href="#SVGID_57_"  style="overflow:visible;"/>
			</clipPath>
			<g class="st55">
				<g>
					<path class="st6" d="M138.4,124.7l-0.1,4.8c0-1.3-1.2-2.4-2.5-2.3l0.1-4.8C137.2,122.4,138.3,123.4,138.4,124.7"/>
				</g>
			</g>
		</g>
	</g>
	<g>
		<g>
			<defs>
				<path id="SVGID_59_" d="M105.3,129.5l0.2-4.8c0.1-1.3,1.2-2.3,2.5-2.3l-0.2,4.8C106.6,127.2,105.4,128.2,105.3,129.5z"/>
			</defs>
			<clipPath id="SVGID_60_">
				<use xlink:href="#SVGID_59_"  style="overflow:visible;"/>
			</clipPath>
			<g class="st56">
				<g>
					<path class="st6" d="M108.1,122.4l-0.2,4.8c-0.7,0-1.4,0.3-1.9,0.8l0.2-4.8C106.7,122.6,107.4,122.3,108.1,122.4"/>
					<path class="st8" d="M106.2,123.2L106,128c-0.1,0.1-0.2,0.3-0.3,0.5l0.2-4.8C105.9,123.5,106.1,123.3,106.2,123.2"/>
					<path class="st9" d="M105.8,123.7l-0.2,4.8c-0.1,0.2-0.2,0.3-0.2,0.5l0.2-4.8C105.6,124,105.7,123.8,105.8,123.7"/>
					<path class="st10" d="M105.6,124.2l-0.2,4.8c0,0.2-0.1,0.3-0.1,0.5l0.2-4.8C105.5,124.5,105.6,124.3,105.6,124.2"/>
				</g>
			</g>
		</g>
	</g>
	<g>
		<g>
			<defs>
				<polygon id="SVGID_61_" points="105.3,129.5 105.5,124.7 105.5,124.7 				"/>
			</defs>
			<clipPath id="SVGID_62_">
				<use xlink:href="#SVGID_61_"  style="overflow:visible;"/>
			</clipPath>
			<g class="st57">
				<g>
					<path class="st43" d="M105.5,124.7l-0.2,4.8v-0.1L105.5,124.7L105.5,124.7"/>
				</g>
			</g>
		</g>
	</g>
	<g>
		<g>
			<defs>
				<path id="SVGID_63_" d="M101.4,129.4l0.2-4.8c0,0,0,0.1,0,0.1l-0.2,4.8L101.4,129.4z"/>
			</defs>
			<clipPath id="SVGID_64_">
				<use xlink:href="#SVGID_63_"  style="overflow:visible;"/>
			</clipPath>
			<g class="st58">
				<g>
					<path class="st6" d="M101.6,124.7l-0.2,4.8v-0.1l0.2-4.8C101.7,124.6,101.7,124.7,101.6,124.7"/>
				</g>
			</g>
		</g>
	</g>
	<polygon class="st4" points="138.5,151 138.5,155.8 138.3,129.6 138.4,124.7 	"/>
	<g>
		<g>
			<defs>
				<polygon id="SVGID_65_" points="138.6,151 138.5,155.8 138.5,155.8 138.6,151 				"/>
			</defs>
			<clipPath id="SVGID_66_">
				<use xlink:href="#SVGID_65_"  style="overflow:visible;"/>
			</clipPath>
			<g class="st59">
				<g>
					<path class="st6" d="M138.6,151l-0.1,4.8l0,0L138.6,151L138.6,151"/>
				</g>
			</g>
		</g>
	</g>
	<polygon class="st46" points="105,150.9 104.8,155.8 105.3,129.6 105.5,124.7 	"/>
	<polygon class="st4" points="101.1,150.9 100.8,155.8 101.4,129.6 101.6,124.7 	"/>
	<g>
		<g>
			<defs>
				<path id="SVGID_67_" d="M138.5,155.9c-0.1,1.3-1.2,2.3-2.5,2.3c0-1.4,0-2.9,0.1-4.3v-0.6c1.3,0.1,2.5-1,2.5-2.3
					C138.5,152.5,138.5,154.4,138.5,155.9z"/>
			</defs>
			<clipPath id="SVGID_68_">
				<use xlink:href="#SVGID_67_"  style="overflow:visible;"/>
			</clipPath>
			<g class="st60">
				<g>
					<path class="st48" d="M138.6,151l-0.1,4.8c0,0.2,0,0.3-0.1,0.5l0.1-4.8C138.5,151.3,138.5,151.2,138.6,151"/>
					<path class="st49" d="M138.5,151.5l-0.1,4.8c0,0.2-0.1,0.4-0.2,0.5l0.1-4.9C138.4,151.9,138.4,151.7,138.5,151.5"/>
					<path class="st50" d="M138.3,152l-0.1,4.9c-0.1,0.2-0.2,0.3-0.3,0.5l0.1-4.8C138.1,152.3,138.2,152.2,138.3,152"/>
					<path class="st43" d="M138,152.5l-0.1,4.8c-0.5,0.5-1.2,0.8-1.9,0.8l0.1-4.9C136.8,153.3,137.5,153,138,152.5"/>
				</g>
			</g>
		</g>
	</g>
	<polygon class="st46" points="136,153.3 135.9,158.2 107.3,158.1 107.5,153.3 	"/>
	<path class="st51" d="M135.9,122.4c1.3,0,2.4,1,2.5,2.3l0.2,26.2c-0.1,1.3-1.2,2.4-2.5,2.3c0,0,0,0,0,0h-28.5
		c-1.3,0.1-2.4-1-2.5-2.3c0,0,0,0,0-0.1l0.5-26.2c0.1-1.3,1.2-2.4,2.5-2.3L135.9,122.4z"/>
	<g>
		<g>
			<defs>
				<path id="SVGID_69_" d="M107.5,153.3l-0.2,4.9c-1.3,0.1-2.4-1-2.5-2.3c0,0,0,0,0,0l0.2-4.8C105,152.3,106.1,153.3,107.5,153.3
					C107.5,153.3,107.5,153.3,107.5,153.3z"/>
			</defs>
			<clipPath id="SVGID_70_">
				<use xlink:href="#SVGID_69_"  style="overflow:visible;"/>
			</clipPath>
			<g class="st61">
				<g>
					<path class="st43" d="M107.5,153.3l-0.2,4.9c-1.3,0.1-2.4-1-2.5-2.3c0,0,0,0,0,0l0.2-4.8C105,152.3,106.1,153.3,107.5,153.3
						C107.5,153.3,107.5,153.3,107.5,153.3"/>
				</g>
			</g>
		</g>
	</g>
	<g>
		<g>
			<defs>
				<path id="SVGID_71_" d="M142.5,151.1v4.9c-0.2,3.4-3.1,6-6.5,5.9l0-4.8C139.4,157.2,142.3,154.5,142.5,151.1
					C142.5,151.1,142.5,151.1,142.5,151.1z"/>
			</defs>
			<clipPath id="SVGID_72_">
				<use xlink:href="#SVGID_71_"  style="overflow:visible;"/>
			</clipPath>
			<g class="st62">
				<g>
					<path class="st10" d="M142.5,151.1v4.9c0,0.4-0.1,0.8-0.1,1.2l0.1-4.9C142.5,151.9,142.6,151.5,142.5,151.1"/>
					<path class="st9" d="M142.4,152.3l-0.1,4.9c-0.1,0.5-0.3,0.9-0.5,1.3l0.1-4.9C142.1,153.2,142.3,152.8,142.4,152.3"/>
					<path class="st8" d="M141.9,153.6l-0.1,4.9c-0.2,0.4-0.5,0.9-0.9,1.2l0.1-4.9C141.3,154.5,141.6,154.1,141.9,153.6"/>
					<path class="st6" d="M141,154.9l-0.1,4.9c-1.3,1.4-3.1,2.1-5,2.1l0.1-4.8C137.9,157,139.7,156.3,141,154.9"/>
				</g>
			</g>
		</g>
	</g>
	<polygon class="st4" points="136,157 136,161.8 107.3,161.8 107.4,156.9 	"/>
	<g>
		<g>
			<defs>
				<path id="SVGID_73_" d="M107.4,156.9l-0.2,4.8c-3.4,0.2-6.3-2.5-6.4-5.9c0,0,0-0.1,0-0.1l0.2-4.8c0.1,3.4,2.9,6.1,6.3,6
					C107.3,156.9,107.4,156.9,107.4,156.9z"/>
			</defs>
			<clipPath id="SVGID_74_">
				<use xlink:href="#SVGID_73_"  style="overflow:visible;"/>
			</clipPath>
			<g class="st63">
				<g>
					<path class="st6" d="M107.4,156.9l-0.2,4.8c-3.4,0.2-6.3-2.5-6.4-5.9c0,0,0-0.1,0-0.1l0.2-4.8c0.1,3.4,2.9,6.1,6.3,6
						C107.3,156.9,107.4,156.9,107.4,156.9"/>
				</g>
			</g>
		</g>
	</g>
	<path class="st21" d="M135.9,118.8c3.4-0.1,6.3,2.6,6.4,6l0.3,26.2c-0.1,3.4-3,6.1-6.4,6c0,0,0,0-0.1,0h-28.6
		c-3.4,0.1-6.2-2.5-6.4-5.9c0,0,0-0.1,0-0.1l0.6-26.2c0.2-3.4,3-6.1,6.5-6L135.9,118.8z M138.6,151l-0.2-26.2c0-1.3-1.2-2.4-2.5-2.3
		h-27.8c-1.3,0-2.5,1-2.5,2.3l-0.5,26.2c0,1.3,1.1,2.4,2.4,2.3c0,0,0,0,0.1,0H136C137.3,153.3,138.5,152.3,138.6,151
		C138.5,150.9,138.5,150.9,138.6,151"/>
</g>
<g>
	<polygon class="st4" points="135.4,26.7 135.4,31.6 109.6,31.6 109.7,26.8 	"/>
	<g>
		<g>
			<defs>
				<path id="SVGID_75_" d="M137.7,29.1l-0.1,4.9c0-1.3-1-2.3-2.3-2.3c0,0,0,0,0,0l0.1-4.9C136.7,26.7,137.7,27.8,137.7,29.1z"/>
			</defs>
			<clipPath id="SVGID_76_">
				<use xlink:href="#SVGID_75_"  style="overflow:visible;"/>
			</clipPath>
			<g class="st64">
				<g>
					<path class="st6" d="M137.7,29.1l-0.1,4.9c0-1.3-1-2.3-2.3-2.3c0,0,0,0,0,0l0.1-4.9C136.7,26.7,137.7,27.8,137.7,29.1"/>
				</g>
			</g>
		</g>
	</g>
	<g>
		<g>
			<defs>
				<path id="SVGID_77_" d="M107.2,33.9l0.2-4.8c0-1.3,1.1-2.3,2.3-2.3l-0.2,4.8C108.3,31.6,107.3,32.6,107.2,33.9z"/>
			</defs>
			<clipPath id="SVGID_78_">
				<use xlink:href="#SVGID_77_"  style="overflow:visible;"/>
			</clipPath>
			<g class="st65">
				<g>
					<path class="st6" d="M109.7,26.8l-0.2,4.8c-0.7,0-1.3,0.3-1.8,0.8l0.2-4.8C108.4,27.1,109.1,26.8,109.7,26.8"/>
					<path class="st8" d="M108,27.6l-0.2,4.8c-0.1,0.1-0.2,0.3-0.3,0.5l0.2-4.8C107.8,27.9,107.9,27.7,108,27.6"/>
					<path class="st9" d="M107.7,28.1l-0.2,4.8c-0.1,0.2-0.1,0.3-0.2,0.5l0.2-4.8C107.5,28.4,107.6,28.2,107.7,28.1"/>
					<path class="st10" d="M107.5,28.6l-0.2,4.8c0,0.2-0.1,0.3-0.1,0.5l0.2-4.8C107.4,28.9,107.4,28.8,107.5,28.6"/>
				</g>
			</g>
		</g>
	</g>
	<g>
		<g>
			<defs>
				<polygon id="SVGID_79_" points="107.2,33.9 107.4,29.1 107.4,29.1 107.2,34 				"/>
			</defs>
			<clipPath id="SVGID_80_">
				<use xlink:href="#SVGID_79_"  style="overflow:visible;"/>
			</clipPath>
			<g class="st66">
				<g>
					<path class="st43" d="M107.4,29.1l-0.2,4.9v0L107.4,29.1L107.4,29.1"/>
				</g>
			</g>
		</g>
	</g>
	<g>
		<g>
			<defs>
				<path id="SVGID_81_" d="M103.6,33.8l0.2-4.8v0.1l-0.2,4.9C103.6,33.9,103.6,33.9,103.6,33.8z"/>
			</defs>
			<clipPath id="SVGID_82_">
				<use xlink:href="#SVGID_81_"  style="overflow:visible;"/>
			</clipPath>
			<g class="st67">
				<g>
					<path class="st6" d="M103.8,29.1l-0.2,4.9c0,0,0-0.1,0-0.1l0.2-4.9V29.1"/>
				</g>
			</g>
		</g>
	</g>
	<polygon class="st4" points="137.9,55.3 137.8,60.2 137.7,33.9 137.7,29.1 	"/>
	<g>
		<g>
			<defs>
				<polygon id="SVGID_83_" points="137.9,55.4 137.8,60.2 137.8,60.2 137.9,55.4 				"/>
			</defs>
			<clipPath id="SVGID_84_">
				<use xlink:href="#SVGID_83_"  style="overflow:visible;"/>
			</clipPath>
			<g class="st68">
				<g>
					<path class="st6" d="M137.9,55.4l-0.1,4.8l0,0L137.9,55.4L137.9,55.4"/>
				</g>
			</g>
		</g>
	</g>
	<polygon class="st46" points="106.9,55.3 106.7,60.2 107.2,34 107.4,29.1 	"/>
	<polygon class="st4" points="103.2,55.3 103,60.2 103.6,34 103.8,29.1 	"/>
	<g>
		<g>
			<defs>
				<path id="SVGID_85_" d="M137.8,60.2c0,1.3-1.1,2.3-2.3,2.3l0.1-4.3v-0.6c1.3,0,2.3-1,2.3-2.3C137.9,56.8,137.9,58.8,137.8,60.2z
					"/>
			</defs>
			<clipPath id="SVGID_86_">
				<use xlink:href="#SVGID_85_"  style="overflow:visible;"/>
			</clipPath>
			<g class="st69">
				<g>
					<path class="st48" d="M137.9,55.4l-0.1,4.8c0,0.2,0,0.3-0.1,0.5l0.1-4.8C137.9,55.7,137.9,55.5,137.9,55.4"/>
					<path class="st49" d="M137.8,55.8l-0.1,4.8c0,0.2-0.1,0.3-0.2,0.5l0.1-4.8C137.7,56.2,137.8,56,137.8,55.8"/>
					<path class="st50" d="M137.7,56.3l-0.1,4.8c-0.1,0.2-0.2,0.3-0.3,0.5l0.1-4.8C137.5,56.7,137.6,56.5,137.7,56.3"/>
					<path class="st43" d="M137.3,56.8l-0.1,4.8c-0.4,0.5-1.1,0.8-1.8,0.8l0.1-4.8C136.2,57.7,136.9,57.4,137.3,56.8"/>
				</g>
			</g>
		</g>
	</g>
	<polygon class="st46" points="135.6,57.7 135.5,62.5 109,62.5 109.2,57.7 	"/>
	<path class="st51" d="M135.4,26.7c1.3,0,2.3,1.1,2.3,2.3l0.2,26.2c0,1.3-1,2.3-2.3,2.3h-26.4c-1.3,0-2.3-1-2.3-2.3c0,0,0,0,0-0.1
		l0.5-26.2c0-1.3,1-2.3,2.3-2.3L135.4,26.7z"/>
	<g>
		<g>
			<defs>
				<path id="SVGID_87_" d="M109.2,57.7l-0.2,4.8c-1.3,0-2.3-1-2.3-2.3c0,0,0,0,0-0.1l0.2-4.8C106.8,56.6,107.9,57.7,109.2,57.7
					C109.1,57.7,109.2,57.7,109.2,57.7z"/>
			</defs>
			<clipPath id="SVGID_88_">
				<use xlink:href="#SVGID_87_"  style="overflow:visible;"/>
			</clipPath>
			<g class="st70">
				<g>
					<path class="st43" d="M109.2,57.7l-0.2,4.8c-1.3,0-2.3-1-2.3-2.3c0,0,0,0,0-0.1l0.2-4.8C106.8,56.6,107.9,57.7,109.2,57.7
						C109.1,57.7,109.2,57.7,109.2,57.7"/>
				</g>
			</g>
		</g>
	</g>
	<g>
		<g>
			<defs>
				<path id="SVGID_89_" d="M141.6,55.4v4.8c-0.1,3.3-2.7,5.9-6,5.9l0.1-4.8C138.9,61.3,141.5,58.7,141.6,55.4z"/>
			</defs>
			<clipPath id="SVGID_90_">
				<use xlink:href="#SVGID_89_"  style="overflow:visible;"/>
			</clipPath>
			<g class="st71">
				<g>
					<path class="st10" d="M141.6,55.4v4.8c0,0.4,0,0.8-0.1,1.2l0.1-4.8C141.6,56.2,141.6,55.8,141.6,55.4"/>
					<path class="st9" d="M141.4,56.7l-0.1,4.8c-0.1,0.5-0.3,0.9-0.5,1.3L141,58C141.2,57.6,141.4,57.1,141.4,56.7"/>
					<path class="st8" d="M141,58l-0.1,4.8c-0.2,0.4-0.5,0.9-0.8,1.2v-4.8C140.5,58.9,140.8,58.4,141,58"/>
					<path class="st6" d="M140.2,59.2V64c-1.1,1.3-2.8,2.1-4.6,2.1l0.1-4.8C137.4,61.3,139.1,60.5,140.2,59.2"/>
				</g>
			</g>
		</g>
	</g>
	<polygon class="st4" points="135.6,61.3 135.5,66.1 108.9,66.2 109.1,61.3 	"/>
	<g>
		<g>
			<defs>
				<path id="SVGID_91_" d="M109.1,61.3l-0.2,4.8c-3.2,0-5.9-2.6-5.9-5.8c0-0.1,0-0.1,0-0.2l0.2-4.8c-0.1,3.2,2.5,5.9,5.7,6
					C109,61.3,109,61.3,109.1,61.3z"/>
			</defs>
			<clipPath id="SVGID_92_">
				<use xlink:href="#SVGID_91_"  style="overflow:visible;"/>
			</clipPath>
			<g class="st72">
				<g>
					<path class="st6" d="M109.1,61.3l-0.2,4.8c-3.2,0-5.9-2.6-5.9-5.8c0-0.1,0-0.1,0-0.2l0.2-4.8c-0.1,3.2,2.5,5.9,5.7,6
						C109,61.3,109,61.3,109.1,61.3"/>
				</g>
			</g>
		</g>
	</g>
	<path class="st21" d="M135.4,23.1c3.3,0.1,5.9,2.7,5.9,6l0.3,26.3c0,3.3-2.7,6-6,6h-26.5c-3.2,0-5.9-2.6-5.9-5.8c0-0.1,0-0.1,0-0.2
		l0.6-26.2c0.1-3.3,2.7-5.9,6-6L135.4,23.1z M137.9,55.3l-0.2-26.2c0-1.3-1-2.3-2.3-2.3l-25.7,0c-1.3,0-2.3,1.1-2.3,2.3l-0.5,26.2
		c0,1.3,1,2.3,2.2,2.3c0,0,0,0,0.1,0h26.4C136.9,57.7,137.9,56.6,137.9,55.3"/>
</g>
<g>
	<polygon class="st4" points="87.1,39.7 86.8,44.5 86.9,41.5 87.2,36.6 	"/>
	<polygon class="st4" points="86.9,43.3 86.7,48.2 86.8,44.5 87.1,39.7 	"/>
	<polygon class="st21" points="87.2,36.6 95.4,41.5 86.8,46.4 86.9,43.3 87.1,39.7 	"/>
	<polygon class="st73" points="95.4,41.5 95.2,46.4 86.5,51.3 86.8,46.4 	"/>
	<polygon class="st4" points="86.8,46.4 86.5,51.3 86.7,48.2 86.9,43.3 	"/>
</g>
<g>
	<polygon class="st21" points="87.1,39.7 86.9,43.3 74.1,43.4 74.3,39.7 	"/>
	<polygon class="st4" points="86.9,43.3 86.7,48.2 73.8,48.2 74.1,43.4 	"/>
	<polygon class="st4" points="74.1,43.4 73.8,48.2 74,44.6 74.3,39.7 	"/>
</g>
<g>
	<polygon class="st4" points="165.3,137.5 165.3,142.4 165.2,139.3 165.2,134.4 	"/>
	<polygon class="st4" points="165.4,141.2 165.4,146 165.3,142.4 165.3,137.5 	"/>
	<polygon class="st21" points="165.2,134.4 174.5,139.4 165.5,144.3 165.4,141.2 165.3,137.5 	"/>
	<polygon class="st73" points="174.5,139.4 174.6,144.2 165.5,149.1 165.5,144.3 	"/>
	<polygon class="st4" points="165.5,144.3 165.5,149.1 165.4,146 165.4,141.2 	"/>
</g>
<g>
	<polygon class="st21" points="165.3,137.5 165.4,141.2 151.5,141.2 151.5,137.5 	"/>
	<polygon class="st4" points="165.4,141.2 165.4,146 151.5,146 151.5,141.2 	"/>
	<polygon class="st4" points="151.5,141.2 151.5,146 151.5,142.4 151.5,137.5 	"/>
</g>
<g>
	<polygon class="st4" points="206.7,43.3 206.9,48.2 149.8,48.2 149.8,43.4 	"/>
	<polygon class="st4" points="149.8,43.4 149.8,48.2 149.7,44.6 149.7,39.8 	"/>
	<polygon class="st4" points="209.6,87.6 209.8,92.4 206.9,48.2 206.7,43.3 	"/>
	<polygon class="st21" points="210,39.7 213.6,91.2 163.9,91.2 163.9,87.6 209.6,87.6 206.7,43.3 149.8,43.4 149.7,39.8 	"/>
	<polygon class="st4" points="213.6,91.2 213.8,96.1 164,96.1 163.9,91.2 	"/>
	<polygon class="st4" points="163.9,91.2 164,96.1 163.9,92.4 163.9,87.6 	"/>
	<polygon class="st21" points="163.7,83.9 163.9,87.6 163.9,91.2 164.1,94.9 154.1,89.4 	"/>
	<polygon class="st4" points="164.1,94.9 164.1,99.7 154.1,94.3 154.1,89.4 	"/>
</g>
<g>
	<polygon class="st4" points="93.9,92.6 93.7,97.5 33.4,97.5 33.9,92.6 	"/>
	<polygon class="st4" points="77.9,136.8 77.7,141.6 77.8,137.9 78.1,133.1 	"/>
	<polygon class="st4" points="77.8,140.4 77.5,145.2 77.7,141.6 77.9,136.8 	"/>
	<polygon class="st21" points="94.1,89 93.9,92.6 33.9,92.6 30.4,136.7 77.9,136.8 77.8,140.4 26.2,140.3 30.4,89 	"/>
	<polygon class="st4" points="77.8,140.4 77.5,145.2 25.7,145.2 26.2,140.3 	"/>
	<polygon class="st4" points="26.2,140.3 25.7,145.2 29.9,93.8 30.4,89 	"/>
	<polygon class="st4" points="77.7,144 77.3,148.9 77.5,145.2 77.8,140.4 	"/>
	<polygon class="st73" points="88,138.6 87.8,143.4 77.3,148.9 77.7,144 	"/>
	<polygon class="st21" points="78.1,133.1 88,138.6 77.7,144 77.8,140.4 77.9,136.8 	"/>
</g>
<rect x="4" y="5" class="st74" width="236" height="178"/>
</svg>
