<svg xmlns="http://www.w3.org/2000/svg" viewBox="0 0 1920 947"><defs><style>.cls-1{fill:#f4f4f4;}.cls-2,.cls-3,.cls-5{fill:#d8be50;}.cls-2,.cls-3,.cls-4{stroke:#d8be50;}.cls-15,.cls-2,.cls-3,.cls-4,.cls-6,.cls-7{stroke-miterlimit:10;}.cls-15,.cls-2,.cls-4,.cls-6,.cls-7{stroke-width:3px;}.cls-4,.cls-7{fill:none;}.cls-14,.cls-6{fill:#476d80;}.cls-15,.cls-6,.cls-7{stroke:#333;}.cls-15,.cls-8{fill:#dd8024;}.cls-9{fill:#333;}.cls-10{fill:#009245;}.cls-11{fill:#006837;}.cls-12{font-size:28.48px;fill:#f2f2f2;}.cls-12,.cls-16{font-family:ArialMT, Arial;}.cls-13{letter-spacing:-0.04em;}.cls-16{font-size:30px;}.cls-17{letter-spacing:-0.06em;}</style></defs><g id="arrows"><rect class="cls-1" width="1920" height="948"/><line class="cls-2" x1="183.55" y1="174.36" x2="319.45" y2="174.36"/><path class="cls-3" d="M337.55,174.36c-8.51,3.16-19.09,8.56-25.64,14.27l5.16-14.27-5.16-14.26C318.46,165.81,329,171.21,337.55,174.36Z"/><line class="cls-2" x1="491.55" y1="174.36" x2="619.45" y2="174.36"/><path class="cls-3" d="M637.55,174.36c-8.51,3.16-19.09,8.56-25.64,14.27l5.16-14.27-5.16-14.26C618.46,165.81,629,171.21,637.55,174.36Z"/><line class="cls-2" x1="890.55" y1="174.36" x2="989.45" y2="174.36"/><path class="cls-3" d="M1007.55,174.36c-8.51,3.16-19.09,8.56-25.64,14.27l5.16-14.27-5.16-14.26C988.46,165.81,999,171.21,1007.55,174.36Z"/><line class="cls-4" x1="985.55" y1="495.52" x2="1314.45" y2="495.52"/><path class="cls-5" d="M1332.55,495.52c-8.51,3.16-19.09,8.55-25.64,14.27l5.16-14.27-5.16-14.27C1313.46,487,1324,492.36,1332.55,495.52Z"/><path class="cls-4" d="M1231.55,174.36h44.85a1.63,1.63,0,0,0,.31,0h0a1.53,1.53,0,0,1,1.84,1.51V495"/><path class="cls-4" d="M1583.55,749H1476.28a7.73,7.73,0,0,1-7.73-7.73V576.06"/><path class="cls-3" d="M1468.55,560c3.17,8.52,8.56,19.09,14.27,25.64l-14.27-5.16-14.26,5.16C1460,579,1465.4,568.47,1468.55,560Z"/></g><g id="Layer_2" data-name="Layer 2"><rect class="cls-6" x="1334.43" y="430.95" width="248.62" height="127.14"/><line class="cls-7" x1="1357.5" y1="432" x2="1357.5" y2="559"/><path class="cls-8" d="M479,48.64H464.23a9.87,9.87,0,0,0-9.83-9.8H374.92a9.87,9.87,0,0,0-9.83,9.8H348.71a9.86,9.86,0,0,0-9.84,9.83V287.88a9.87,9.87,0,0,0,9.84,9.83h8.34v8a1.76,1.76,0,0,0,1.76,1.76h10.26a1.76,1.76,0,0,0,1.76-1.76v-8h87.81v8a1.77,1.77,0,0,0,1.76,1.76h9.44a1.76,1.76,0,0,0,1.76-1.76v-8H479a9.87,9.87,0,0,0,9.83-9.83V58.47A9.86,9.86,0,0,0,479,48.64Z"/><path class="cls-9" d="M338.06,174.64q0-57.28,0-114.57a13,13,0,0,1,9.89-12.92,15.57,15.57,0,0,1,3.81-.13c2.63,0,5.25,0,7.88,0,3.46,0,3.54,0,3.44-3.38A4.37,4.37,0,0,1,364.68,40a3.8,3.8,0,0,1,2.68-1q47.25,0,94.52,0a4.24,4.24,0,0,1,4.22,4.27C466.16,47,466.16,47,470,47c3,0,5.93.15,8.88,0,5.85-.36,11.47,5.56,11.93,10.2.14,1.43.32,2.87.32,4.31q0,113.77,0,227.54c0,7.57-5.19,13.89-13.4,13.6-1.21-.05-1.76.22-1.55,1.51a12,12,0,0,1,0,1.8,3.63,3.63,0,0,1-3.89,3.93c-4.78,0-9.56,0-14.34,0-3.18,0-4.39-1.18-4.39-4.29,0-2.93,0-2.93-2.92-2.93q-36.56,0-73.11,0c-1.56,0-2.08.35-2,1.94.14,2,.5,4.14-2.21,5a5.9,5.9,0,0,1-1.92.27q-7.06,0-14.13,0c-3,0-4.31-1.35-4.32-4.36a4.27,4.27,0,0,1,0-.8c.4-1.87-.53-2.13-2.18-2.1a12.4,12.4,0,0,1-12.43-10.5,27.48,27.48,0,0,1-.34-4.51Zm147.43-6.71q0-54.08.05-108.14A7.66,7.66,0,0,0,478,52.21q-63.4.06-126.82,0a7.57,7.57,0,0,0-7.5,7.39q.07,108.44,0,216.88c0,1.79.46,2.13,2.18,2.13q68.76-.08,137.52,0c1.77,0,2.17-.41,2.17-2.16Q485.45,222.2,485.49,167.93ZM414.59,283.8h-70c-.43,0-.85,0-.82.59.16,2.51-.33,5,.28,7.53.79,3.28,4.28,5.54,8.54,5.53q40.07,0,80.14,0H476.9c5.14,0,9.19-3.52,8.61-8.46a12.32,12.32,0,0,1,0-3.21c.25-1.75-.48-2-2.09-2Q449,283.85,414.59,283.8Zm0-236.78q22.31,0,44.63,0c1.22,0,1.71-.18,1.72-1.58,0-1.63-1-1.24-1.83-1.24H394.86c-8.28,0-16.56,0-24.84,0-1.23,0-1.72.18-1.73,1.58,0,1.63,1,1.24,1.84,1.24ZM364.32,302.66H359.5c-.68,0-1.29-.12-1.28.95s.36,1.08,1.18,1.07c3.27,0,6.55,0,9.82,0,.81,0,1.18-.12,1.19-1.06s-.6-1-1.28-1Zm100.52,2c1.74,0,3.48,0,5.21,0,.7,0,.94-.23.92-.92s0-1.13-.92-1.12c-3.4.05-6.81,0-10.22,0-.79,0-1,.25-1,1s.23,1,1,1C461.5,304.63,463.17,304.67,464.84,304.67Z"/><path class="cls-9" d="M469.74,121.77v52.55c0,3.42-2.09,5.54-5.45,5.54-33.18,0-66.35,0-99.53.07a5.46,5.46,0,0,1-5.29-5,9.61,9.61,0,0,1,0-1.2V69.26c0-4.27,1.93-6.19,6.26-6.19,32.7,0,65.41,0,98.11,0a5.67,5.67,0,0,1,5.93,6C469.7,86.6,469.74,104.19,469.74,121.77Zm-104.62-.11c0,17,0,34,0,51,0,1.66.38,2.05,2.06,2.05q47.46-.09,94.92,0c1.68,0,2.07-.38,2.07-2.05q-.09-51,0-101.93c0-1.66-.39-2-2.07-2q-47.46.09-94.92,0c-1.67,0-2.07.38-2.06,2C365.15,87.69,365.12,104.68,365.12,121.66Z"/><path class="cls-9" d="M480.24,178.43q0,40.62,0,81.24c0,1.4-.45,2.45-1.68,2.79a2.77,2.77,0,0,1-3.24-.94,2.5,2.5,0,0,1-.35-1.69q0-81.33,0-162.68A2.92,2.92,0,0,1,477.65,94c1.71,0,2.59,1.08,2.59,3.21Z"/><path class="cls-9" d="M438.11,184.27a7.79,7.79,0,0,1,7.8,7.82,7.7,7.7,0,0,1-7.63,7.8,7.89,7.89,0,0,1-8.11-7.91A7.75,7.75,0,0,1,438.11,184.27Zm2.14,7.45c.28-1.55-1.18-2.07-2.15-2a2.19,2.19,0,0,0-2.27,2.49,2.11,2.11,0,0,0,2.33,2.12C439.69,194.21,440.3,193.31,440.25,191.72Z"/><path class="cls-9" d="M399.05,192.13a8.14,8.14,0,0,1-7.86,7.79,8,8,0,0,1-7.86-8,7.66,7.66,0,0,1,7.93-7.67A7.77,7.77,0,0,1,399.05,192.13Zm-5.63,0A2.24,2.24,0,1,0,389,192a2.12,2.12,0,0,0,2.2,2.24C392.56,194.32,393.22,193.39,393.42,192.12Z"/><path class="cls-9" d="M480.24,74.71c0,3.28-.05,6.56,0,9.83,0,1.83-1.05,2.47-2.55,2.58a2.3,2.3,0,0,1-2.7-2.43C475,77.8,475,70.92,475,64c0-1.79,1.38-2.42,2.67-2.47a2.32,2.32,0,0,1,2.59,2.53C480.23,67.63,480.24,71.17,480.24,74.71Z"/><path class="cls-9" d="M414.61,132.5q-17.88,0-35.74,0c-1.65,0-2.86-.46-3.23-2.17a2.83,2.83,0,0,1,2.56-3.45,7,7,0,0,1,1.21,0h70.46c2.7,0,3.61.69,3.71,2.7s-.81,2.89-2.83,2.91c-3.23,0-6.46,0-9.69,0Z"/><path class="cls-9" d="M414.4,165c-11.85,0-23.69,0-35.54,0-1.65,0-2.86-.46-3.22-2.17s.8-3.23,2.77-3.45a9.77,9.77,0,0,1,1.21,0h70.06c3,0,3.87.67,3.9,2.91,0,1.77-.88,2.68-2.84,2.7-3.5,0-7,0-10.5,0Z"/><path class="cls-9" d="M414.81,94.38h35.53c2.52,0,3.51,1.08,3.25,3.32-.21,1.82-1.77,1.81-3,2.26a4.74,4.74,0,0,1-1.6,0H380.16a7.08,7.08,0,0,1-2.72-.37,2.51,2.51,0,0,1-1.79-3.09,2.44,2.44,0,0,1,2.61-2.15h36.55Z"/><path class="cls-9" d="M414.81,78.32h35.52c2.45,0,3.26.67,3.25,2.66s-.86,2.56-3.14,2.56q-35.93,0-71.85,0c-1.51,0-2.45-.49-2.86-1.83a2.59,2.59,0,0,1,.87-3,2.81,2.81,0,0,1,2.08-.38Q396.74,78.31,414.81,78.32Z"/><path class="cls-9" d="M414.59,110.83h35.93c2.24,0,3.07.72,3.06,2.64s-.86,2.58-3.12,2.58q-35.93,0-71.85,0c-1.51,0-2.46-.48-2.87-1.82a2.58,2.58,0,0,1,.85-3,2.8,2.8,0,0,1,2.08-.39Q396.63,110.81,414.59,110.83Z"/><path class="cls-9" d="M414.6,143.34h35.92c2.24,0,3.07.72,3.06,2.64s-.86,2.57-3.13,2.57q-35.93,0-71.85,0c-1.5,0-2.45-.48-2.86-1.82a2.58,2.58,0,0,1,.85-3,2.81,2.81,0,0,1,2.08-.39Q396.64,143.32,414.6,143.34Z"/><rect class="cls-10" x="412.05" y="205.79" width="134.58" height="73.93" rx="8.72"/><path class="cls-11" d="M479.3,205q30.32,0,60.63,0a7.86,7.86,0,0,1,8.08,8c.07,19.58,0,39.17,0,58.75a8.07,8.07,0,0,1-8.28,8.25q-60.49,0-121,0a7.9,7.9,0,0,1-8-8q0-29.51,0-59a8,8,0,0,1,8-8Q449,205.09,479.3,205Zm-63.95,51.75a18.45,18.45,0,0,1,13.1,5.54c3.61,3.61,5.09,8.08,5.37,13h91.12a18.19,18.19,0,0,1,5.42-13.11,18.59,18.59,0,0,1,13-5.47V228.23c-5.07-.34-9.49-1.91-13.06-5.52a18.31,18.31,0,0,1-5.37-13H433.86c-.64,10.54-7.49,17.78-18.51,18.65Zm128.11,4.76c-7.59-.82-14.91,7.53-13.66,13.9h10.05a3.33,3.33,0,0,0,3.35-2.52,9.75,9.75,0,0,0,.25-2.53C543.48,267.44,543.46,264.49,543.46,261.55ZM429.1,275.44c.34-8.4-7.9-14.88-13.82-13.81,0,3.57,0,7.15,0,10.74a3.47,3.47,0,0,0,2.91,3C421.81,275.5,425.41,275.44,429.1,275.44Zm100.63-65.86c-.78,7.6,6.87,14.48,13.72,13.88,0-3.65.12-7.32-.05-11a3.31,3.31,0,0,0-3.39-2.93c-1.41.11-2.83,0-4.24,0ZM415.28,223.49c7.75.38,14.47-7.18,13.68-13.9-3.6,0-7.21-.05-10.82,0a3.14,3.14,0,0,0-2.85,3.16c0,1.73,0,3.46,0,5.2Z"/><path class="cls-11" d="M458.62,242.48c-.56-10.81,9.24-21.57,22.34-20.64,9.45.68,19.76,8.95,19.18,21.68a20.74,20.74,0,0,1-21.86,19.63C467.93,262.8,458.22,253.76,458.62,242.48ZM477.83,230c-3.67,1.12-4.7,1.71-6.1,3.51-1.63,2.09-1.7,6.45,1.34,8.19,1.3.75,2.71,1.32,4.05,2,.31.16.75.48.76.74.05,3,0,5.92,0,9-1.53-.35-3-.37-4.1-1.59.35-.37.62-.62.85-.91A2.41,2.41,0,0,0,473.3,247a2.81,2.81,0,0,0-3.08,1.2,3.38,3.38,0,0,0,.58,3.64c1.85,2.11,4.32,2.83,7.07,3.11.12,1-.26,2.22,1.52,2.17s.92-1.4,1.3-2.14a3.4,3.4,0,0,1,.34-.12c2.27-.47,4.45-1.07,6.07-2.91,2-2.34,2.41-5.78-.06-8.11a16.07,16.07,0,0,0-5.68-3.05c-.3-.12-.74-.48-.74-.73-.06-2.79,0-5.59,0-8.74l4,1.08a11.75,11.75,0,0,0-.88,1.34,2.32,2.32,0,0,0,.47,2.9,2.07,2.07,0,0,0,2.71.27,2.27,2.27,0,0,0,1-2.77,4.4,4.4,0,0,0-2.48-2.89c-1.55-.67-3.22-1.08-4.85-1.61-.19-.75.39-1.93-1.14-2C478.36,227.65,478,228.06,477.83,230Z"/><path class="cls-11" d="M480.65,253.16v-8.24c1.5.4,2.9.86,3.7,2.17a3.74,3.74,0,0,1-.25,4.26A3.65,3.65,0,0,1,480.65,253.16Z"/><path class="cls-11" d="M477.87,231.83v7.83c-2.47-.38-3.82-1.82-3.78-4A3.89,3.89,0,0,1,477.87,231.83Z"/><path class="cls-9" d="M897,559.89v18.48h3.22c17.27,0,34.55-.07,51.82,0,4.23,0,8,1.33,10.06,5.67,2.91,6.29.06,13.91-7.27,14.88a44.29,44.29,0,0,1-5.86.52q-67,0-134,0c-4.19,0-8-1-10.32-5-4.41-7.56.57-16.15,9.38-16.17,17.55,0,35.1,0,52.64,0h3.45V559.89H867c-21.8,0-43.6,0-65.39,0-9.12,0-17-2.65-23.13-9.66-3.86-4.43-6.32-9.56-6.33-15.48q-.14-46.8,0-93.6c0-8.55,4.27-15.09,10.88-20.23,5.24-4.06,11.32-5.4,17.78-5.4q80.85,0,161.71,0c12.34,0,23.26,7.34,26.72,19.76a22.77,22.77,0,0,1,1,6q.1,46.26,0,92.52c0,12.62-11,24.85-23.59,25.42-13,.59-26,.51-39,.62C917.59,560,907.47,559.89,897,559.89Zm86.19-22.77a40.86,40.86,0,0,0,.53-4.63q0-44.78,0-89.54a19.35,19.35,0,0,0-.87-5.77,21.47,21.47,0,0,0-21-15.14q-77.74,0-155.48,0a65.21,65.21,0,0,0-10.74.59c-9.22,1.55-16.87,9.36-17,18.87-.25,30.56-.09,61.14-.09,91.71,0,3.89,0,3.9,3.9,3.9H983.22Zm-3,6.64H782.14a20.91,20.91,0,0,0,18.22,9.59q80.85.14,161.69,0C969.36,553.33,975.46,550.19,980.26,543.76ZM876.82,560c0,6.93,0,13.61,0,20.29,0,4-.54,4.55-4.44,4.55q-28.08,0-56.17,0a8.2,8.2,0,0,0-3.89.63,5.4,5.4,0,0,0-2.59,3.13c-.16,1,.94,2.42,1.85,3.27.58.55,1.82.54,2.76.54q68.79,0,137.57,0c.45,0,.91,0,1.36,0a3.18,3.18,0,0,0,3.31-3.18c.11-1.92-.57-3.55-2.8-3.89a30.21,30.21,0,0,0-4.22-.52q-26.87,0-53.73,0h-1.62c-3.61,0-3.79-.2-3.8-3.91q0-9.09,0-18.18c0-.88-.08-1.76-.13-2.75Z"/><path class="cls-9" d="M817,458.73c0-6,5.84-11.23,11.87-11.21,28.49.08,57,0,85.48,0a12.17,12.17,0,0,1,11.84,11.51c.06,1.8,0,3.61,0,5.63h14.13c0-1.82,0-3.68,0-5.55.06-2.87,2.53-4.28,5-2.85q13.07,7.49,26.11,15c2.57,1.48,2.62,4.14.08,5.61q-12.93,7.47-25.88,14.88c-2.94,1.68-5.31.24-5.34-3.14,0-1.62,0-3.25,0-5.08H925.53c2.33,1.31,5.3.4,5.52,3.26.16,2.15,0,4.32,0,6.85h8.22c5.06,0,10.13,0,15.19,0,2.18,0,3.77.58,3.73,3.08,0,2.33-1.57,2.91-3.63,2.9-8.32,0-16.64,0-25,0-3.91,0-4.44-.54-4.47-4.51v-2.58L907.3,502.64l17.38,9.92c.26-.37.42-.5.42-.62-.13-6.68.56-6.34,6.53-6.32,7.69,0,15.38,0,23.07,0,3,0,4.47,2.21,3,4.56a3.75,3.75,0,0,1-2.77,1.32c-7,.11-13.93.05-20.89.06H931.1a38.79,38.79,0,0,1-.06,5.32c-.16,1.19-.62,3-1.4,3.3a6.37,6.37,0,0,1-4.46-.31c-3.72-1.86-7.25-4.09-11.08-6.3-2.86,7-8.66,8.33-15.29,8.32q-39.62-.07-79.24,0c-9.15,0-14.56-5.25-14.42-14.35q.27-17.24,0-34.46C805.05,466.08,808.52,459.94,817,458.73Zm91.29,51.63c-2.82-1.64-5.56-3.12-8.18-4.78-3-1.92-2.94-4.14.11-5.93,2.3-1.34,4.7-2.54,6.87-4.06a4.2,4.2,0,0,0,1.68-2.85c.15-6.7,0-13.39.1-20.08a7.49,7.49,0,0,0-7.86-7.83q-40.85.21-81.68,0c-5.08,0-8.31,3.34-8.25,8.29.14,11.3.17,22.61,0,33.92-.1,6.46,3.16,8.73,9,8.89,4.61.13,9.23,0,13.84,0h66.49C904.62,515.94,907.19,514.14,908.31,510.36Zm6.51-19.05c1.64-1,2.77-1.64,3.9-2.29.23-.14.54-.16.75-.31,1.37-1,1-4.9-.35-5.93-.88-.7-2.07-2.25-1.81-2.89a4.21,4.21,0,0,1,3-2.37c7.77-.2,15.55-.1,23.32-.12,1.95,0,2.79.92,2.73,2.83,0,1.19,0,2.39,0,4l17.79-10.11L946.3,464c0,1.75,0,2.91,0,4.08.06,1.92-.82,2.8-2.76,2.79-7.77,0-15.55.07-23.32-.1a3.77,3.77,0,0,1-2.8-2.16c-.25-.86.8-2.16,1.42-3.18.29-.48,1.14-.67,1.34-1.15,2-5-2-10.77-7.34-10.78h-83c-3.76,0-6.11,1.84-6.68,5.44h3.18q38.11,0,76.21,0a16.14,16.14,0,0,1,3.16.38c5.35,1.1,9,6.91,9.07,12.15C914.85,477.91,914.82,484.32,914.82,491.31Z"/><path class="cls-9" d="M856,470.48h6.84c-1.4,3.95,1.41,4.86,4,5.76,2,.67,2.15,1.7,1.29,3.43a48.41,48.41,0,0,0-1.78,4.55c-2.2-.67-4.26-1.45-6.39-1.87-.79-.16-1.74.51-2.62.8a10.27,10.27,0,0,0,1.86,2.24,22.92,22.92,0,0,0,3.16,1.35c3.33,1.61,6.25,3.77,6.79,7.69.63,4.53-.76,8.28-5.09,10.6a3.71,3.71,0,0,0-1.32,2.26,14,14,0,0,0,0,3.06h-7.57c1.82-6.36-5.08-4.32-7.09-7.64l2.57-7a20.76,20.76,0,0,0,2.73,1.4,25.72,25.72,0,0,0,5.27,1.37c.74.09,1.6-.84,2.4-1.31-.49-.8-.8-1.88-1.52-2.33A58.61,58.61,0,0,0,854,492a8,8,0,0,1-4.92-7.33c-.17-4,.94-7.27,4.75-8.77C856.82,474.78,855.08,472.41,856,470.48Z"/><path class="cls-9" d="M888.12,493.13c-3.35,0-6.7-.09-10,0-2.07.08-3-1.21-2.73-2.75.22-1.18,1.59-3,2.5-3.08,6.95-.26,13.92-.2,20.88-.09a2.91,2.91,0,0,1,3,3.15c-.08,1.85-1.39,2.76-3.29,2.75C895,493.11,891.55,493.13,888.12,493.13Z"/><path class="cls-9" d="M830,493.13c-3.34,0-6.69-.1-10,0a2.8,2.8,0,0,1-3.16-2.62,2.93,2.93,0,0,1,3-3.34c6.87,0,13.74-.1,20.6,0,1.84,0,2.8,1.34,2.8,3.27s-1,2.67-2.91,2.64C836.84,493.1,833.4,493.13,830,493.13Z"/><path class="cls-9" d="M184,177c-.31,18.65-7.85,36.86-22.7,52-15.69,15.23-34.46,23-56.32,22.47-20.91-.47-38.85-8.36-53.42-23.34-14.94-15.36-22.09-34-21.93-55.39.73-21.21,8.54-39.37,23.86-54.07a74.69,74.69,0,0,1,53.34-21.47C149.61,97.19,184,131.87,184,177Zm-11.42-.57c-.05-19.6-6.79-35.79-18.76-47.93-12.89-13.08-28.64-19.6-47-19.91-18,.26-33.66,6.57-46.43,19.31a65.54,65.54,0,0,0-.76,92.16,63.53,63.53,0,0,0,45.52,20c18.43.45,34.43-5.9,47.61-18.79S172.32,192.71,172.62,176.43Z"/><path class="cls-10" d="M84.05,174.06q0-12.27,0-24.55a9.83,9.83,0,0,1,.28-2.48,7.51,7.51,0,0,1,6.43-5.52,8.15,8.15,0,0,1,5.06,1.18c5.19,3,10.39,6,15.59,9L130,162.39q4.46,2.56,8.9,5.16a7.19,7.19,0,0,1,3.72,5.32,7.39,7.39,0,0,1-3.68,7.84c-5.31,3.1-10.64,6.16-16,9.23l-10.34,6q-7.77,4.49-15.54,9a16.82,16.82,0,0,1-3,1.52,7.29,7.29,0,0,1-7.79-1.79,7.48,7.48,0,0,1-2.22-5.69q0-11.46,0-22.91Z"/><rect class="cls-6" x="639.84" y="110.8" width="248.62" height="127.14"/><text class="cls-12" transform="translate(679.2 165.12)"><tspan class="cls-13">T</tspan><tspan x="16.34" y="0">ransactional</tspan><tspan x="54.87" y="34.18">Data</tspan></text><text class="cls-12" transform="translate(1366.15 485.27)">SFIS Financial<tspan x="62.51" y="34.18">Data</tspan></text><path class="cls-14" d="M1184.17,145.86l-15.33,16.5V137a11.75,11.75,0,0,0-11.74-11.74h-50.31v8h50.31a3.74,3.74,0,0,1,3.74,3.74v25.4l-15.34-16.51-4.22,3.93,23.56,25.33,23.55-25.33Z"/><path class="cls-7" d="M1184.17,145.86l-15.33,16.5V137a11.75,11.75,0,0,0-11.74-11.74h-50.31v8h50.31a3.74,3.74,0,0,1,3.74,3.74v25.4l-15.34-16.51-4.22,3.93,23.56,25.33,23.55-25.33Z"/><path class="cls-8" d="M1070.17,215.49a3.74,3.74,0,0,1-3.75-3.74V186.36l15.34,16.51,4.22-3.93-23.55-25.34-23.56,25.34,4.22,3.93,15.33-16.5v25.38a11.75,11.75,0,0,0,11.75,11.74h50.3v-8Z"/><path class="cls-7" d="M1070.17,215.49a3.74,3.74,0,0,1-3.75-3.74V186.36l15.34,16.51,4.22-3.93-23.55-25.34-23.56,25.34,4.22,3.93,15.33-16.5v25.38a11.75,11.75,0,0,0,11.75,11.74h50.3v-8Z"/><circle class="cls-6" cx="1062.42" cy="129.23" r="44.37"/><rect class="cls-15" x="1120.47" y="175.12" width="88.74" height="88.74"/><circle class="cls-6" cx="1628.42" cy="681.82" r="44.37"/><rect class="cls-15" x="1686.47" y="727.71" width="88.74" height="88.74"/><path class="cls-14" d="M1750.17,698.45l-15.33,16.49V689.56a11.74,11.74,0,0,0-11.74-11.74h-50.31v8h50.31a3.74,3.74,0,0,1,3.74,3.74V715l-15.34-16.5-4.22,3.93,23.56,25.33,23.55-25.33Z"/><path class="cls-7" d="M1750.17,698.45l-15.33,16.49V689.56a11.74,11.74,0,0,0-11.74-11.74h-50.31v8h50.31a3.74,3.74,0,0,1,3.74,3.74V715l-15.34-16.5-4.22,3.93,23.56,25.33,23.55-25.33Z"/><path class="cls-8" d="M1636.17,768.08a3.75,3.75,0,0,1-3.75-3.74V739l15.34,16.5,4.22-3.93-23.55-25.33-23.56,25.33,4.22,3.93L1624.42,739v25.38a11.76,11.76,0,0,0,11.75,11.74h50.3v-8Z"/><path class="cls-7" d="M1636.17,768.08a3.75,3.75,0,0,1-3.75-3.74V739l15.34,16.5,4.22-3.93-23.55-25.33-23.56,25.33,4.22,3.93L1624.42,739v25.38a11.76,11.76,0,0,0,11.75,11.74h50.3v-8Z"/><line class="cls-7" x1="667.5" y1="112" x2="667.5" y2="239"/></g><g id="text"><text class="cls-16" transform="translate(1485.13 855.35)">BI/ECC Interface<tspan class="cls-17" x="225.09" y="0"> </tspan><tspan x="231.77" y="0">Auto Posting</tspan></text><text class="cls-16" transform="translate(959.64 304.35)">Interface<tspan class="cls-17" x="116.73" y="0"> </tspan><tspan x="123.41" y="0">Auto Posting</tspan></text><text class="cls-16" transform="translate(305.37 355.35)">External Systems</text><path d="M836.61,639.35V617.88h15.52v2.53H839.45V627h11.88v2.52H839.45v7.31h13.18v2.53Z"/><path d="M854.46,639.35l5.69-8.08-5.26-7.47h3.29l2.39,3.65q.67,1,1.08,1.74c.43-.65.83-1.22,1.19-1.72l2.62-3.67h3.15l-5.37,7.32,5.78,8.23h-3.23l-3.2-4.83-.85-1.3-4.08,6.13Z"/><path d="M881.87,634.34l2.72.34a6.67,6.67,0,0,1-2.38,3.71,7.2,7.2,0,0,1-4.46,1.32,7.12,7.12,0,0,1-5.41-2.11,8.21,8.21,0,0,1-2-5.89,8.6,8.6,0,0,1,2-6.1,6.87,6.87,0,0,1,5.25-2.16,6.61,6.61,0,0,1,5.09,2.12,8.45,8.45,0,0,1,2,6c0,.15,0,.39,0,.7h-11.6a6,6,0,0,0,1.45,3.93,4.32,4.32,0,0,0,3.25,1.36,4.07,4.07,0,0,0,2.47-.76A5,5,0,0,0,881.87,634.34Zm-8.66-4.26h8.69a5.24,5.24,0,0,0-1-2.94,4,4,0,0,0-3.26-1.53,4.2,4.2,0,0,0-3.06,1.22A4.83,4.83,0,0,0,873.21,630.08Z"/><path d="M898.06,633.66l2.59.33a6.7,6.7,0,0,1-2.18,4.2,6.33,6.33,0,0,1-4.3,1.52,6.67,6.67,0,0,1-5.13-2.09,8.5,8.5,0,0,1-1.94-6,10.93,10.93,0,0,1,.83-4.4,5.85,5.85,0,0,1,2.55-2.84,7.5,7.5,0,0,1,3.71-.94,6.4,6.4,0,0,1,4.14,1.28,5.84,5.84,0,0,1,2.07,3.64l-2.56.39a4.26,4.26,0,0,0-1.3-2.35,3.35,3.35,0,0,0-2.25-.8,4.1,4.1,0,0,0-3.24,1.43,6.78,6.78,0,0,0-1.24,4.52,7,7,0,0,0,1.2,4.56,3.93,3.93,0,0,0,3.13,1.42,3.74,3.74,0,0,0,2.6-.95A4.81,4.81,0,0,0,898.06,633.66Z"/><path d="M913.1,639.35v-2.28a5.7,5.7,0,0,1-4.94,2.64,6.36,6.36,0,0,1-2.57-.53,4.3,4.3,0,0,1-1.77-1.33,4.79,4.79,0,0,1-.81-2,13.21,13.21,0,0,1-.16-2.46V623.8h2.63v8.63a16.18,16.18,0,0,0,.16,2.78,2.75,2.75,0,0,0,1.06,1.63,3.24,3.24,0,0,0,2,.6,4.43,4.43,0,0,0,2.23-.61,3.42,3.42,0,0,0,1.47-1.66,8.27,8.27,0,0,0,.43-3V623.8h2.64v15.55Z"/><path d="M925.35,637l.38,2.33a10.31,10.31,0,0,1-2,.23,4.54,4.54,0,0,1-2.22-.45,2.63,2.63,0,0,1-1.12-1.2,9.57,9.57,0,0,1-.32-3.11v-8.95h-1.93V623.8h1.93V620l2.62-1.59v5.44h2.66v2.05h-2.66V635a4.71,4.71,0,0,0,.14,1.45,1.19,1.19,0,0,0,.46.51,1.72,1.72,0,0,0,.9.19A10.24,10.24,0,0,0,925.35,637Z"/><path d="M938.57,634.34l2.73.34a6.68,6.68,0,0,1-2.39,3.71,8.08,8.08,0,0,1-9.87-.79,8.21,8.21,0,0,1-2-5.89,8.61,8.61,0,0,1,2-6.1,6.83,6.83,0,0,1,5.24-2.16,6.64,6.64,0,0,1,5.1,2.12,8.45,8.45,0,0,1,2,6c0,.15,0,.39,0,.7h-11.6a6,6,0,0,0,1.45,3.93,4.34,4.34,0,0,0,3.25,1.36,4.1,4.1,0,0,0,2.48-.76A5.08,5.08,0,0,0,938.57,634.34Zm-8.65-4.26h8.68a5.24,5.24,0,0,0-1-2.94,4,4,0,0,0-3.27-1.53,4.18,4.18,0,0,0-3.05,1.22A4.74,4.74,0,0,0,929.92,630.08Z"/><path d="M810.9,675.35V656.41h-7.08v-2.53h17v2.53h-7.1v18.94Z"/><path d="M822.28,675.35V659.8h2.37v2.36a6.59,6.59,0,0,1,1.68-2.19,2.93,2.93,0,0,1,1.69-.52,5.11,5.11,0,0,1,2.71.85l-.91,2.44a3.77,3.77,0,0,0-1.93-.57,2.48,2.48,0,0,0-1.55.52,2.8,2.8,0,0,0-1,1.44,10.1,10.1,0,0,0-.44,3.08v8.14Z"/><path d="M842.45,673.44a9.83,9.83,0,0,1-2.82,1.75,8,8,0,0,1-2.91.52,5.63,5.63,0,0,1-3.94-1.26,4.11,4.11,0,0,1-1.37-3.2,4.27,4.27,0,0,1,.51-2.08,4.38,4.38,0,0,1,1.37-1.52,6.27,6.27,0,0,1,1.89-.86,18.68,18.68,0,0,1,2.35-.4,23.92,23.92,0,0,0,4.7-.91c0-.36,0-.59,0-.69a2.91,2.91,0,0,0-.75-2.27,4.46,4.46,0,0,0-3-.89,4.68,4.68,0,0,0-2.75.65,3.94,3.94,0,0,0-1.31,2.31l-2.58-.35a6.3,6.3,0,0,1,1.16-2.68,5,5,0,0,1,2.33-1.56,10.26,10.26,0,0,1,3.53-.55,9.15,9.15,0,0,1,3.23.47,4.26,4.26,0,0,1,1.83,1.17,4.15,4.15,0,0,1,.82,1.8,14.34,14.34,0,0,1,.14,2.43v3.52a35.66,35.66,0,0,0,.17,4.65,5.75,5.75,0,0,0,.66,1.86H843A5.41,5.41,0,0,1,842.45,673.44Zm-.22-5.89a19.24,19.24,0,0,1-4.31,1,10.51,10.51,0,0,0-2.3.53,2.33,2.33,0,0,0-1,.86,2.34,2.34,0,0,0,.44,3,3.42,3.42,0,0,0,2.33.7,5.37,5.37,0,0,0,2.71-.67,4.15,4.15,0,0,0,1.75-1.82,6.44,6.44,0,0,0,.42-2.64Z"/><path d="M849,675.35V659.8h2.38V662a5.58,5.58,0,0,1,4.95-2.56,6.38,6.38,0,0,1,2.58.5,4.06,4.06,0,0,1,1.77,1.33,5.07,5.07,0,0,1,.82,2,14.93,14.93,0,0,1,.14,2.56v9.56H859v-9.46a7,7,0,0,0-.31-2.41,2.49,2.49,0,0,0-1.09-1.27,3.46,3.46,0,0,0-1.84-.48,4.31,4.31,0,0,0-2.91,1.07c-.81.71-1.22,2.07-1.22,4.06v8.49Z"/><path d="M864.61,670.71l2.61-.41a3.62,3.62,0,0,0,1.22,2.4,4.26,4.26,0,0,0,2.81.84,4.11,4.11,0,0,0,2.69-.74,2.21,2.21,0,0,0,.88-1.74,1.61,1.61,0,0,0-.77-1.4,11,11,0,0,0-2.7-.9,25.85,25.85,0,0,1-4-1.26,3.93,3.93,0,0,1-1.7-1.48,4.09,4.09,0,0,1-.1-4,4.27,4.27,0,0,1,1.3-1.47,5.43,5.43,0,0,1,1.67-.77,8,8,0,0,1,2.28-.31A9.1,9.1,0,0,1,874,660a4.45,4.45,0,0,1,2,1.43,5.65,5.65,0,0,1,.91,2.41l-2.58.35a2.83,2.83,0,0,0-1-1.87,3.71,3.71,0,0,0-2.38-.68,4.31,4.31,0,0,0-2.59.6,1.76,1.76,0,0,0-.78,1.41,1.47,1.47,0,0,0,.32.92,2.4,2.4,0,0,0,1,.71c.27.09,1,.32,2.33.67a34.51,34.51,0,0,1,3.91,1.22,4,4,0,0,1,1.73,1.39,3.85,3.85,0,0,1,.63,2.25,4.4,4.4,0,0,1-.77,2.49,5,5,0,0,1-2.22,1.8,8.13,8.13,0,0,1-3.28.64,7.31,7.31,0,0,1-4.62-1.26A5.9,5.9,0,0,1,864.61,670.71Z"/><path d="M890.82,673.44a9.83,9.83,0,0,1-2.82,1.75,8,8,0,0,1-2.91.52,5.63,5.63,0,0,1-3.94-1.26,4.12,4.12,0,0,1-1.38-3.2,4.33,4.33,0,0,1,1.89-3.6,6.27,6.27,0,0,1,1.89-.86,18.68,18.68,0,0,1,2.35-.4,23.92,23.92,0,0,0,4.7-.91c0-.36,0-.59,0-.69a2.91,2.91,0,0,0-.74-2.27,4.47,4.47,0,0,0-3-.89,4.67,4.67,0,0,0-2.74.65,3.94,3.94,0,0,0-1.31,2.31l-2.58-.35a6.3,6.3,0,0,1,1.16-2.68,5,5,0,0,1,2.32-1.56,10.36,10.36,0,0,1,3.54-.55,9.15,9.15,0,0,1,3.23.47,4.26,4.26,0,0,1,1.83,1.17,4.15,4.15,0,0,1,.82,1.8,14.34,14.34,0,0,1,.14,2.43v3.52a38.52,38.52,0,0,0,.16,4.65,6,6,0,0,0,.67,1.86h-2.75A5.41,5.41,0,0,1,890.82,673.44Zm-.22-5.89a19.24,19.24,0,0,1-4.31,1,10.51,10.51,0,0,0-2.3.53,2.33,2.33,0,0,0-1,.86,2.34,2.34,0,0,0,.44,3,3.42,3.42,0,0,0,2.33.7,5.37,5.37,0,0,0,2.71-.67,4.07,4.07,0,0,0,1.74-1.82,6.25,6.25,0,0,0,.43-2.64Z"/><path d="M907.5,669.66l2.6.33a6.75,6.75,0,0,1-2.18,4.2,6.35,6.35,0,0,1-4.3,1.52,6.67,6.67,0,0,1-5.13-2.09,8.45,8.45,0,0,1-1.94-6,10.93,10.93,0,0,1,.83-4.4,5.88,5.88,0,0,1,2.54-2.84,7.56,7.56,0,0,1,3.72-.94,6.4,6.4,0,0,1,4.14,1.28,5.88,5.88,0,0,1,2.07,3.64l-2.57.39a4.19,4.19,0,0,0-1.29-2.35,3.35,3.35,0,0,0-2.25-.8A4.1,4.1,0,0,0,900.5,663a6.78,6.78,0,0,0-1.24,4.52,7,7,0,0,0,1.2,4.56,3.92,3.92,0,0,0,3.13,1.42,3.74,3.74,0,0,0,2.6-.95A4.75,4.75,0,0,0,907.5,669.66Z"/><path d="M918.11,673l.38,2.33a10.22,10.22,0,0,1-2,.23,4.56,4.56,0,0,1-2.23-.45,2.56,2.56,0,0,1-1.11-1.2,9.29,9.29,0,0,1-.32-3.11v-8.95H910.9V659.8h1.94V656l2.62-1.59v5.44h2.65v2.05h-2.65V671a4.4,4.4,0,0,0,.14,1.45,1.11,1.11,0,0,0,.45.51,1.72,1.72,0,0,0,.9.19A10.06,10.06,0,0,0,918.11,673Z"/><path d="M920.7,656.91v-3h2.64v3Zm0,18.44V659.8h2.64v15.55Z"/><path d="M926.37,667.58q0-4.32,2.4-6.41a7.26,7.26,0,0,1,4.9-1.72,7,7,0,0,1,5.24,2.1,8,8,0,0,1,2,5.81,10.15,10.15,0,0,1-.91,4.72,6.25,6.25,0,0,1-2.62,2.67,7.56,7.56,0,0,1-3.75,1,7,7,0,0,1-5.29-2.1A8.38,8.38,0,0,1,926.37,667.58Zm2.71,0a6.66,6.66,0,0,0,1.3,4.47,4.2,4.2,0,0,0,3.29,1.49,4.15,4.15,0,0,0,3.26-1.5,6.75,6.75,0,0,0,1.31-4.55,6.43,6.43,0,0,0-1.31-4.37,4.35,4.35,0,0,0-6.55,0A6.63,6.63,0,0,0,929.08,667.58Z"/><path d="M944,675.35V659.8h2.37V662a5.58,5.58,0,0,1,5-2.56,6.47,6.47,0,0,1,2.59.5,4.09,4.09,0,0,1,1.76,1.33,4.92,4.92,0,0,1,.82,2,14.64,14.64,0,0,1,.15,2.56v9.56H954v-9.46a7,7,0,0,0-.31-2.41,2.44,2.44,0,0,0-1.09-1.27,3.43,3.43,0,0,0-1.84-.48,4.26,4.26,0,0,0-2.9,1.07c-.82.71-1.23,2.07-1.23,4.06v8.49Z"/><path d="M959.67,670.71l2.6-.41a3.63,3.63,0,0,0,1.23,2.4,4.23,4.23,0,0,0,2.8.84,4.16,4.16,0,0,0,2.7-.74,2.24,2.24,0,0,0,.88-1.74,1.59,1.59,0,0,0-.78-1.4,11,11,0,0,0-2.69-.9,25.7,25.7,0,0,1-4-1.26,3.85,3.85,0,0,1-2.27-3.57,4,4,0,0,1,.47-1.93,4.27,4.27,0,0,1,1.3-1.47,5.49,5.49,0,0,1,1.68-.77,7.88,7.88,0,0,1,2.27-.31,9.06,9.06,0,0,1,3.22.52,4.45,4.45,0,0,1,2,1.43,5.65,5.65,0,0,1,.91,2.41l-2.58.35a2.75,2.75,0,0,0-1-1.87,3.71,3.71,0,0,0-2.38-.68,4.31,4.31,0,0,0-2.59.6,1.75,1.75,0,0,0-.77,1.41,1.41,1.41,0,0,0,.32.92,2.28,2.28,0,0,0,1,.71c.26.09,1,.32,2.33.67a34.85,34.85,0,0,1,3.9,1.22,4,4,0,0,1,1.74,1.39,3.85,3.85,0,0,1,.63,2.25,4.48,4.48,0,0,1-.77,2.49,5.07,5.07,0,0,1-2.22,1.8,8.17,8.17,0,0,1-3.28.64,7.29,7.29,0,0,1-4.62-1.26A5.86,5.86,0,0,1,959.67,670.71Z"/></g></svg>