<svg xmlns="http://www.w3.org/2000/svg" xmlns:xlink="http://www.w3.org/1999/xlink" viewBox="0 0 1716 1080"><defs><style>.cls-1,.cls-18,.cls-42,.cls-46,.cls-5,.cls-6,.cls-7,.cls-8{fill:none;}.cls-2{fill:#f4f4f4;}.cls-10,.cls-3,.cls-4{fill:#d8be50;}.cls-3,.cls-4,.cls-6{stroke:#d8be50;}.cls-17,.cls-18,.cls-20,.cls-21,.cls-22,.cls-24,.cls-28,.cls-3,.cls-31,.cls-33,.cls-34,.cls-36,.cls-37,.cls-4,.cls-42,.cls-46,.cls-5,.cls-6,.cls-7,.cls-8{stroke-miterlimit:10;}.cls-3,.cls-42,.cls-6,.cls-7,.cls-8{stroke-width:2px;}.cls-5{stroke:#0e3f47;}.cls-46,.cls-5{stroke-width:4px;}.cls-7,.cls-8{stroke:#ab4d1b;}.cls-8{stroke-dasharray:12.67 4.87;}.cls-9{fill:#ab4d1b;}.cls-11,.cls-32{fill:#333;}.cls-12{fill:#009245;}.cls-13{fill:#c1272d;}.cls-14{fill:#dd8024;}.cls-15{fill:#006837;}.cls-16{clip-path:url(#clip-path);}.cls-17{fill:#8d8d8d;}.cls-17,.cls-18,.cls-20,.cls-21,.cls-22,.cls-24,.cls-31,.cls-33,.cls-34,.cls-36,.cls-37,.cls-42{stroke:#333;}.cls-19{clip-path:url(#clip-path-2);}.cls-20{fill:#97abb5;}.cls-21{fill:#393939;}.cls-22,.cls-45{fill:#476d80;}.cls-23{clip-path:url(#clip-path-3);}.cls-24{fill:#ddd9d9;}.cls-25{clip-path:url(#clip-path-4);}.cls-26{clip-path:url(#clip-path-5);}.cls-27{clip-path:url(#clip-path-6);}.cls-28{fill:#eb8d63;stroke:#9c4310;}.cls-29,.cls-32{font-size:12.86px;}.cls-29,.cls-34{fill:#f2f2f2;}.cls-29,.cls-32,.cls-47,.cls-52{font-family:ArialMT, Arial;}.cls-30{letter-spacing:-0.04em;}.cls-31{fill:#e0b128;}.cls-33{fill:#bdccd4;}.cls-35,.cls-36,.cls-47,.cls-52{fill:#0a313a;}.cls-37{fill:#a19f9e;}.cls-38{fill:#2b89c6;}.cls-39{fill:#bae36c;}.cls-40{opacity:0.11;}.cls-41{fill:#123d48;}.cls-43{fill:#fdfffe;}.cls-44{fill:#1aa94b;}.cls-46{stroke:#0a313a;}.cls-47{font-size:13px;}.cls-48{letter-spacing:-0.06em;}.cls-49{letter-spacing:0em;}.cls-50{letter-spacing:-0.02em;}.cls-51{letter-spacing:-0.04em;}.cls-52{font-size:14px;}.cls-53{letter-spacing:-0.09em;}</style><clipPath id="clip-path"><path class="cls-1" d="M1327.28,962.17v30.88c0-13.27-17.17-24.08-38.26-24.08s-38.25,10.81-38.25,24.08V962.17c0-13.29,17.15-24.08,38.25-24.08S1327.28,948.88,1327.28,962.17Z"/></clipPath><clipPath id="clip-path-2"><path class="cls-1" d="M1327.28,962.17v30.88c0,13.28-17.17,24.09-38.26,24.09s-38.25-10.81-38.25-24.09V962.17c0,13.27,17.15,24.07,38.25,24.07S1327.28,975.44,1327.28,962.17Z"/></clipPath><clipPath id="clip-path-3"><path class="cls-1" d="M1328.78,962.17v30.88c0,13.81-17.84,25-39.76,25s-39.76-11.23-39.76-25V962.17c0,13.81,17.84,25,39.76,25S1328.78,976,1328.78,962.17Z"/></clipPath><clipPath id="clip-path-4"><path class="cls-1" d="M1327.28,193.17v30.88c0-13.27-17.17-24.08-38.26-24.08s-38.25,10.81-38.25,24.08V193.17c0-13.29,17.15-24.08,38.25-24.08S1327.28,179.88,1327.28,193.17Z"/></clipPath><clipPath id="clip-path-5"><path class="cls-1" d="M1327.28,193.17v30.88c0,13.28-17.17,24.09-38.26,24.09s-38.25-10.81-38.25-24.09V193.17c0,13.27,17.15,24.07,38.25,24.07S1327.28,206.44,1327.28,193.17Z"/></clipPath><clipPath id="clip-path-6"><path class="cls-1" d="M1328.78,193.17v30.88c0,13.81-17.84,25-39.76,25s-39.76-11.23-39.76-25V193.17c0,13.81,17.84,25,39.76,25S1328.78,207,1328.78,193.17Z"/></clipPath></defs><g id="arrows"><rect class="cls-2" x="4" y="1" width="1712" height="1080"/><line class="cls-3" x1="114" y1="111.12" x2="157.06" y2="111.12"/><path class="cls-4" d="M161.29,111.12A37.39,37.39,0,0,0,150.47,118l2.18-6.89-2.18-6.88A37.15,37.15,0,0,0,161.29,111.12Z"/><line class="cls-3" x1="165.29" y1="735.12" x2="122.23" y2="735.12"/><path class="cls-4" d="M118,735.12A37.39,37.39,0,0,1,128.82,742l-2.18-6.89,2.18-6.88A37.15,37.15,0,0,1,118,735.12Z"/><line class="cls-3" x1="398" y1="733.12" x2="228.23" y2="733.12"/><path class="cls-4" d="M224,733.12A37.39,37.39,0,0,1,234.82,740l-2.18-6.89,2.18-6.88A37.15,37.15,0,0,1,224,733.12Z"/><line class="cls-3" x1="721" y1="399.12" x2="622.23" y2="399.12"/><path class="cls-4" d="M618,399.12A37.39,37.39,0,0,1,628.82,406l-2.18-6.89,2.18-6.88A37.15,37.15,0,0,1,618,399.12Z"/><line class="cls-3" x1="935" y1="399.12" x2="842.23" y2="399.12"/><path class="cls-4" d="M838,399.12A37.39,37.39,0,0,1,848.82,406l-2.18-6.89,2.18-6.88A37.15,37.15,0,0,1,838,399.12Z"/><line class="cls-3" x1="230" y1="110.12" x2="301.06" y2="110.12"/><path class="cls-4" d="M305.29,110.12A37.39,37.39,0,0,0,294.47,117l2.18-6.89-2.18-6.88A37.15,37.15,0,0,0,305.29,110.12Z"/><line class="cls-3" x1="685" y1="729.12" x2="769.06" y2="729.12"/><path class="cls-4" d="M773.29,729.12A37.39,37.39,0,0,0,762.47,736l2.18-6.89-2.18-6.88A37.15,37.15,0,0,0,773.29,729.12Z"/><line class="cls-3" x1="1157" y1="214.12" x2="1241.06" y2="214.12"/><path class="cls-4" d="M1245.29,214.12a37.39,37.39,0,0,0-10.82,6.89l2.18-6.89-2.18-6.88A37.15,37.15,0,0,0,1245.29,214.12Z"/><line class="cls-3" x1="495" y1="732.12" x2="579.06" y2="732.12"/><path class="cls-4" d="M583.29,732.12A37.39,37.39,0,0,0,572.47,739l2.18-6.89-2.18-6.88A37.15,37.15,0,0,0,583.29,732.12Z"/><path class="cls-3" d="M839.14,818.37C839,831,839,843,839.14,856"/><path class="cls-3" d="M839.14,772c-.14,9-.14,18,0,27.13"/><path class="cls-4" d="M839.14,860.27A37.39,37.39,0,0,1,846,849.45l-6.89,2.18-6.88-2.18A37.15,37.15,0,0,1,839.14,860.27Z"/><path class="cls-3" d="M1289.12,584.15c-.12,115.86-.11,230.91,0,346.89V584.15Z"/><path class="cls-3" d="M1289.14,257.05V216q0,20.55,0,41.05Z"/><path class="cls-3" d="M1289.07,294.92c-.06,83.38,0,166.52.07,250.45V294.92Z"/><path class="cls-4" d="M1289.14,935.27a37.39,37.39,0,0,1,6.89-10.82l-6.89,2.18-6.88-2.18A37.15,37.15,0,0,1,1289.14,935.27Z"/><path class="cls-3" d="M838.14,641.74c-.14-10.74-.14-22.74,0-33.53"/><path class="cls-3" d="M838.14,692.27c-.14-10.27-.14-20.27,0-29.79"/><path class="cls-4" d="M838.14,604A37.39,37.39,0,0,0,845,614.8l-6.89-2.18-6.88,2.18A37.15,37.15,0,0,0,838.14,604Z"/><path class="cls-3" d="M1103.14,616.45q-.21-180.68,0-360.24"/><path class="cls-3" d="M1103,654.67c0,9.42,0,18.7.1,28.33V654.62Z"/><path class="cls-4" d="M1103.14,252A37.39,37.39,0,0,0,1110,262.8l-6.89-2.18-6.88,2.18A37.15,37.15,0,0,0,1103.14,252Z"/><path class="cls-3" d="M956.71,730.12c11.29-.12,23.29-.12,34.35,0"/><path class="cls-3" d="M891,730.12c13-.12,25-.12,37.72,0"/><path class="cls-4" d="M995.29,730.12A37.39,37.39,0,0,0,984.47,737l2.18-6.89-2.18-6.88A37.15,37.15,0,0,0,995.29,730.12Z"/><line class="cls-3" x1="391" y1="109.12" x2="462.06" y2="109.12"/><path class="cls-4" d="M466.29,109.12A37.39,37.39,0,0,0,455.47,116l2.18-6.89-2.18-6.88A37.15,37.15,0,0,0,466.29,109.12Z"/><path class="cls-3" d="M826,110.12h24"/><path class="cls-3" d="M768,110.12c10-.12,19-.12,28.62,0"/><path class="cls-4" d="M854.29,110.12A37.39,37.39,0,0,0,843.47,117l2.18-6.89-2.18-6.88A37.15,37.15,0,0,0,854.29,110.12Z"/><line class="cls-3" x1="590" y1="110.12" x2="644.06" y2="110.12"/><path class="cls-4" d="M648.29,110.12A37.39,37.39,0,0,0,637.47,117l2.18-6.89-2.18-6.88A37.15,37.15,0,0,0,648.29,110.12Z"/><path class="cls-5" d="M1028.33,635.58h-6.53a9.93,9.93,0,0,0-9.93,9.92V807a23.52,23.52,0,0,0,23.52,23.52H1159.5"/><line class="cls-6" x1="1103.14" y1="372.24" x2="1139.7" y2="372.24"/><line class="cls-7" x1="1319" y1="984.27" x2="1325.5" y2="984.27"/><path class="cls-8" d="M1330.37,984.27h15.24a5.85,5.85,0,0,0,5.85-5.85V843a5.85,5.85,0,0,1,5.85-5.85l3.92-.08"/><line class="cls-7" x1="1363.67" y1="837.01" x2="1370.17" y2="836.88"/><path class="cls-9" d="M1379.58,836.69c-4.39,1.73-9.83,4.65-13.18,7.69l2.53-7.47-2.83-7.37C1369.57,832.45,1375.12,835.14,1379.58,836.69Z"/><line class="cls-6" x1="777.89" y1="567.86" x2="450.5" y2="567.86"/><path class="cls-6" d="M713.93,229.7C714,246,715,262,714,278c-1,9-10,18-20,18-75,1-150,0-225,0a20.88,20.88,0,0,0-16,8,26.63,26.63,0,0,0-3,12c-1,123-.06,246,0,368.93"/><path class="cls-10" d="M450,697c-2.12-5.68-5.73-12.72-9.55-17.08l9.52,3.43,9.51-3.46C455.68,684.26,452.09,691.32,450,697Z"/><path class="cls-6" d="M713.93,144c.07,20,.07,40,0,60.13"/><line class="cls-6" x1="450" y1="474.45" x2="388.83" y2="474.45"/><line class="cls-6" x1="495" y1="400.23" x2="450.5" y2="400.23"/></g><g id="graphics"><path class="cls-11" d="M114.42,115.18a31,31,0,0,1-31.71,29.89,29.92,29.92,0,0,1-21.44-9.36,30.84,30.84,0,0,1,.78-43.93,29.93,29.93,0,0,1,21.4-8.61C100.6,83.16,114.41,97.07,114.42,115.18Zm-4.59-.23c0-7.86-2.72-14.36-7.53-19.23a26.25,26.25,0,0,0-37.48-.24,26.3,26.3,0,0,0-.3,37,26.3,26.3,0,0,0,37.37.49A25.54,25.54,0,0,0,109.83,115Z"/><path class="cls-12" d="M74.3,114c0-3.28,0-6.57,0-9.85a4.12,4.12,0,0,1,.11-1A3,3,0,0,1,77,100.94a3.21,3.21,0,0,1,2,.47c2.09,1.22,4.17,2.42,6.26,3.62l7.43,4.29c1.2.69,2.39,1.37,3.58,2.07a2.9,2.9,0,0,1,1.49,2.14,3,3,0,0,1-1.48,3.14l-6.4,3.71q-2.09,1.19-4.15,2.39l-6.24,3.6a7.08,7.08,0,0,1-1.2.6,2.92,2.92,0,0,1-3.12-.71,3,3,0,0,1-.9-2.29c0-3.06,0-6.13,0-9.19Z"/><path class="cls-11" d="M81.27,763.05a31,31,0,1,1,31.06-29.19A30.8,30.8,0,0,1,81.27,763.05Zm.15-3.14a27.79,27.79,0,1,0-27.8-27.55A27.81,27.81,0,0,0,81.42,759.91Z"/><path class="cls-13" d="M65.19,732.08q0-6.89,0-13.78a2.11,2.11,0,0,1,2.42-2.39H95.09a2.33,2.33,0,0,1,2.65,2.65q0,13.63,0,27.27a2.53,2.53,0,0,1-2.57,2.62H67.79a2.29,2.29,0,0,1-2.59-2.58V732.08Z"/><path class="cls-11" d="M838.9,920.08A28,28,0,1,1,867,893.7,27.84,27.84,0,0,1,838.9,920.08Zm.13-2.83a25.12,25.12,0,1,0-25.12-24.9A25.15,25.15,0,0,0,839,917.25Z"/><path class="cls-13" d="M824.37,892.1V879.64a1.92,1.92,0,0,1,2.2-2.16h24.82a2.1,2.1,0,0,1,2.39,2.4q0,12.33,0,24.64a2.3,2.3,0,0,1-2.33,2.37H826.71a2.06,2.06,0,0,1-2.33-2.33V892.1Z"/><path class="cls-14" d="M218.07,678.69H211.5a4.31,4.31,0,0,0-4.38-4.18h-35.4a4.31,4.31,0,0,0-4.38,4.18H160a4.3,4.3,0,0,0-4.38,4.19V780.7a4.3,4.3,0,0,0,4.38,4.19h3.72v3.4a.77.77,0,0,0,.78.75h4.57a.78.78,0,0,0,.79-.75v-3.4H209v3.4a.77.77,0,0,0,.78.75H214a.77.77,0,0,0,.78-.75v-3.4h3.29a4.3,4.3,0,0,0,4.38-4.19V682.88A4.3,4.3,0,0,0,218.07,678.69Z"/><path class="cls-11" d="M155.3,732.41V683.56a5.59,5.59,0,0,1,4.4-5.51,7.38,7.38,0,0,1,1.7,0h3.51c1.54,0,1.58,0,1.53-1.44a1.83,1.83,0,0,1,.72-1.55,1.69,1.69,0,0,1,1.19-.44h42.1a1.85,1.85,0,0,1,1.88,1.82c0,1.6,0,1.6,1.74,1.6,1.32,0,2.65.06,4,0a5.52,5.52,0,0,1,5.31,4.34,16.45,16.45,0,0,1,.14,1.84q0,48.51,0,97a5.59,5.59,0,0,1-6,5.8c-.54,0-.79.1-.7.64a4,4,0,0,1,0,.77,1.58,1.58,0,0,1-1.73,1.68h-6.39c-1.42,0-2-.51-2-1.83s0-1.25-1.3-1.25q-16.29,0-32.57,0c-.69,0-.92.15-.88.83.07.84.23,1.76-1,2.15a2.86,2.86,0,0,1-.86.11h-6.29c-1.33,0-1.92-.58-1.92-1.86a1.93,1.93,0,0,1,0-.34c.18-.8-.23-.91-1-.9a5.46,5.46,0,0,1-5.54-4.47,11.49,11.49,0,0,1-.15-1.93ZM221,729.55c0-15.37,0-30.74,0-46.11a3.35,3.35,0,0,0-3.36-3.23q-28.24,0-56.48,0a3.32,3.32,0,0,0-3.35,3.16q0,46.23,0,92.47c0,.77.2.91,1,.91q30.63,0,61.25,0c.79,0,1-.17,1-.92Q220.95,752.69,221,729.55ZM189.39,779h-31.2c-.19,0-.38,0-.37.25a17.25,17.25,0,0,0,.13,3.21c.35,1.4,1.9,2.36,3.8,2.36h55.39c2.29,0,4.1-1.5,3.84-3.61a4.77,4.77,0,0,1,0-1.36c.11-.75-.21-.86-.93-.86Q204.72,779,189.39,779Zm0-101c6.63,0,13.26,0,19.88,0,.55,0,.77-.08.77-.68s-.44-.53-.82-.53H180.6c-3.69,0-7.38,0-11.07,0-.54,0-.76.08-.76.68s.43.53.81.53ZM167,787h-2.15c-.3,0-.57,0-.57.4s.16.46.53.46c1.45,0,2.91,0,4.37,0,.36,0,.53-.05.53-.45s-.27-.42-.57-.41Zm44.77.85c.77,0,1.55,0,2.32,0,.31,0,.42-.1.41-.39s0-.48-.41-.48c-1.52,0-3,0-4.55,0-.35,0-.46.11-.46.44s.11.44.46.43C210.28,787.84,211,787.85,211.77,787.85Z"/><path class="cls-11" d="M214,709.87v22.41a2.22,2.22,0,0,1-2.43,2.36c-14.77,0-29.55,0-44.33,0a2.38,2.38,0,0,1-2.35-2.12,4.34,4.34,0,0,1,0-.51V687.48c0-1.82.86-2.64,2.79-2.64,14.56,0,29.13,0,43.7,0a2.48,2.48,0,0,1,2.64,2.56C213.93,694.88,214,702.37,214,709.87Zm-46.6,0c0,7.24,0,14.48,0,21.73,0,.71.17.87.92.87q21.13,0,42.27,0c.75,0,.92-.16.92-.87q0-21.73,0-43.46c0-.71-.17-.88-.92-.88q-21.14,0-42.27,0c-.75,0-.93.16-.92.88C167.37,695.34,167.35,702.58,167.35,709.83Z"/><path class="cls-11" d="M218.63,734q0,17.33,0,34.64c0,.59-.2,1.05-.75,1.19a1.26,1.26,0,0,1-1.44-.4,1,1,0,0,1-.15-.72q0-34.68,0-69.37a1.27,1.27,0,0,1,1.19-1.35c.76,0,1.15.46,1.15,1.37Z"/><path class="cls-11" d="M199.86,736.52a3.4,3.4,0,0,1,3.48,3.33,3.36,3.36,0,0,1-3.4,3.33,3.44,3.44,0,0,1-3.61-3.37A3.38,3.38,0,0,1,199.86,736.52Zm1,3.18c.12-.66-.53-.89-1-.87a1,1,0,0,0-1,1.06.91.91,0,0,0,1,.9C200.57,740.76,200.84,740.38,200.82,739.7Z"/><path class="cls-11" d="M182.47,739.87a3.56,3.56,0,0,1-3.5,3.32,3.5,3.5,0,0,1-3.51-3.39,3.34,3.34,0,0,1,3.54-3.27A3.38,3.38,0,0,1,182.47,739.87Zm-2.51,0a1,1,0,1,0-2,0,.92.92,0,0,0,1,1C179.58,740.81,179.87,740.41,180,739.86Z"/><path class="cls-11" d="M218.63,689.81c0,1.39,0,2.79,0,4.19,0,.78-.47,1-1.14,1.1a1,1,0,0,1-1.2-1c0-2.94,0-5.87,0-8.81,0-.76.61-1,1.19-1a1,1,0,0,1,1.15,1.07C218.62,686.79,218.63,688.3,218.63,689.81Z"/><path class="cls-11" d="M189.4,714.45H173.48c-.74,0-1.28-.19-1.44-.92a1.21,1.21,0,0,1,1.14-1.47,3.23,3.23,0,0,1,.54,0H205.1c1.2,0,1.61.29,1.66,1.15s-.36,1.23-1.27,1.24c-1.44,0-2.87,0-4.31,0Z"/><path class="cls-11" d="M189.3,728.31H173.47c-.73,0-1.27-.2-1.43-.93s.36-1.37,1.23-1.47a4.86,4.86,0,0,1,.54,0H205c1.32,0,1.72.29,1.74,1.24,0,.76-.4,1.14-1.27,1.15-1.56,0-3.12,0-4.68,0Z"/><path class="cls-11" d="M189.49,698.19h15.82c1.12,0,1.57.46,1.45,1.42-.09.77-.79.77-1.32,1a2.15,2.15,0,0,1-.72,0H174.05a3.37,3.37,0,0,1-1.21-.16,1.14,1.14,0,0,1,.37-2.24h16.28Z"/><path class="cls-11" d="M189.49,691.35h15.82c1.09,0,1.45.28,1.45,1.13s-.39,1.09-1.4,1.09q-16,0-32,0c-.68,0-1.1-.21-1.28-.78a1.08,1.08,0,0,1,.39-1.3,1.26,1.26,0,0,1,.92-.16Z"/><path class="cls-11" d="M189.39,705.21h16c1,0,1.37.3,1.37,1.12s-.39,1.1-1.4,1.1q-16,0-32,0a1.15,1.15,0,0,1-1.28-.78,1.08,1.08,0,0,1,.38-1.29,1.3,1.3,0,0,1,.93-.17Z"/><path class="cls-11" d="M189.39,719.07h16c1,0,1.37.3,1.37,1.12s-.39,1.1-1.4,1.1q-16,0-32,0a1.15,1.15,0,0,1-1.28-.78,1.08,1.08,0,0,1,.38-1.29,1.3,1.3,0,0,1,.93-.17C178.72,719.06,184.06,719.07,189.39,719.07Z"/><rect class="cls-12" x="188.26" y="745.7" width="59.94" height="31.52" rx="8.72"/><path class="cls-15" d="M218.21,745.37h27a3.43,3.43,0,0,1,3.6,3.39q0,12.53,0,25.06a3.52,3.52,0,0,1-3.68,3.51h-53.9a3.45,3.45,0,0,1-3.59-3.42q0-12.57,0-25.16a3.49,3.49,0,0,1,3.55-3.39C200.21,745.39,209.21,745.37,218.21,745.37Zm-28.48,22.07a8.37,8.37,0,0,1,5.83,2.36,8,8,0,0,1,2.39,5.55h40.59a7.6,7.6,0,0,1,2.41-5.58,8.45,8.45,0,0,1,5.79-2.34V755.26a8.74,8.74,0,0,1-5.81-2.35,7.63,7.63,0,0,1-2.39-5.56H198c-.29,4.49-3.33,7.58-8.24,7.95Zm57.06,2c-3.38-.35-6.64,3.21-6.09,5.93h4.48a1.48,1.48,0,0,0,1.49-1.08,4.31,4.31,0,0,0,.12-1.08C246.8,772,246.79,770.72,246.79,769.47Zm-50.94,5.92c.15-3.58-3.52-6.34-6.15-5.89,0,1.53,0,3,0,4.58a1.51,1.51,0,0,0,1.29,1.3C192.6,775.42,194.21,775.39,195.85,775.39Zm44.82-28.08c-.34,3.24,3.06,6.17,6.12,5.92,0-1.56.05-3.12,0-4.68a1.46,1.46,0,0,0-1.51-1.25c-.62.05-1.26,0-1.89,0Zm-51,5.93c3.45.16,6.44-3.06,6.09-5.93-1.61,0-3.21,0-4.82,0a1.37,1.37,0,0,0-1.27,1.35c0,.74,0,1.48,0,2.22Z"/><path class="cls-15" d="M209,761.34c-.25-4.61,4.12-9.2,9.95-8.8,4.21.29,8.8,3.82,8.54,9.24a9.09,9.09,0,0,1-9.74,8.37C213.15,770,208.82,766.15,209,761.34Zm8.55-5.33c-1.63.48-2.09.73-2.71,1.5a2.4,2.4,0,0,0,.6,3.49c.58.32,1.2.56,1.8.86.14.06.34.2.34.31,0,1.26,0,2.52,0,3.82-.68-.15-1.35-.15-1.82-.68a4.26,4.26,0,0,0,.37-.39,1,1,0,0,0-.6-1.65,1.28,1.28,0,0,0-1.37.52,1.37,1.37,0,0,0,.26,1.55,4.59,4.59,0,0,0,3.14,1.32c.06.42-.11,1,.68.93s.41-.6.58-.91l.15,0a4.61,4.61,0,0,0,2.7-1.25,2.34,2.34,0,0,0,0-3.45,7.25,7.25,0,0,0-2.53-1.3c-.14-.06-.33-.21-.33-.31,0-1.2,0-2.39,0-3.73l1.8.46a6,6,0,0,0-.39.57,1,1,0,1,0,1.87.17,1.88,1.88,0,0,0-1.1-1.23c-.69-.29-1.44-.46-2.16-.69-.08-.32.17-.82-.51-.84C217.79,755,217.65,755.19,217.55,756Z"/><path class="cls-15" d="M218.81,765.89v-3.51a2.55,2.55,0,0,1,1.65.92,1.55,1.55,0,0,1-.11,1.82A1.63,1.63,0,0,1,218.81,765.89Z"/><path class="cls-15" d="M217.57,756.8v3.34c-1.1-.17-1.7-.78-1.68-1.71A1.69,1.69,0,0,1,217.57,756.8Z"/><path class="cls-11" d="M346,504.27v8.49h1.48c7.93,0,15.87,0,23.8,0,2,0,3.71.61,4.63,2.6,1.34,2.9,0,6.4-3.35,6.84a20.21,20.21,0,0,1-2.68.24q-30.79,0-61.58,0c-1.93,0-3.69-.47-4.75-2.28a4.83,4.83,0,0,1,4.32-7.43c8.06,0,16.12,0,24.18,0h1.58v-8.49h-1.44c-10,0-20,0-30,0-4.19,0-7.82-1.22-10.63-4.44a10.8,10.8,0,0,1-2.91-7.11q-.06-21.51,0-43c0-3.93,2-6.93,5-9.29a12.81,12.81,0,0,1,8.17-2.48q37.16,0,74.3,0A12.39,12.39,0,0,1,388.35,447a10.49,10.49,0,0,1,.46,2.76q0,21.25,0,42.51c0,5.79-5.05,11.41-10.83,11.68-6,.27-11.94.23-17.91.28C355.44,504.3,350.79,504.27,346,504.27Zm39.6-10.47a18.86,18.86,0,0,0,.24-2.12q0-20.56,0-41.14a8.47,8.47,0,0,0-.4-2.65,9.86,9.86,0,0,0-9.66-7q-35.72,0-71.43,0a30,30,0,0,0-4.93.27,9.17,9.17,0,0,0-7.79,8.67c-.12,14,0,28.09,0,42.13,0,1.79,0,1.79,1.79,1.79H385.6Zm-1.36,3.06h-91a9.61,9.61,0,0,0,8.37,4.4q37.16.06,74.29,0A10.08,10.08,0,0,0,384.24,496.86Zm-47.53,7.47c0,3.18,0,6.25,0,9.32,0,1.84-.24,2.09-2,2.09q-12.9,0-25.8,0a3.76,3.76,0,0,0-1.79.29,2.52,2.52,0,0,0-1.19,1.44c-.08.45.43,1.11.85,1.5a2,2,0,0,0,1.27.25h63.83a1.65,1.65,0,0,0,.23-3.25,12.7,12.7,0,0,0-1.94-.24q-12.35,0-24.68,0h-.75c-1.66,0-1.74-.09-1.74-1.8v-8.35c0-.4,0-.81-.06-1.26Z"/><path class="cls-11" d="M332.85,459.64c.11-.37.21-.75.34-1.12a9.68,9.68,0,0,1,1-2.19.43.43,0,0,0,0-.46c-.08-.18-.2-.35-.29-.52-.38-.74-.76-1.47-1.15-2.24.4-.44.81-.83,1.21-1.23l1.19-1.2,2.93,1.54a13.74,13.74,0,0,1,3.61-1.46c.31-1,.63-1.91.92-2.86a.36.36,0,0,1,.41-.32h3.07a3.75,3.75,0,0,1,.25.63c.14.78.5,1.49.69,2.26a.48.48,0,0,0,.36.34,13.93,13.93,0,0,1,2.7,1.07l.59.33,3-1.49,2.4,2.39-1.51,3a10.82,10.82,0,0,1,1.3,3.06c.11.48.13.5.6.65l2.68.82v3.45c-.92.3-1.87.63-2.82.91a.45.45,0,0,0-.37.39,12.73,12.73,0,0,1-1.09,2.74c-.09.17-.2.34-.3.51l1.51,3L353.72,474l-3-1.5a12.15,12.15,0,0,1-3,1.32.8.8,0,0,1-.31.1c-.17,0-.22.12-.26.23l-.72,2.19c-.08.26-.16.51-.24.79H343a.31.31,0,0,1-.34-.27c-.29-1-.6-1.91-.92-2.91a14.06,14.06,0,0,1-3.61-1.47L335.26,474l-2.41-2.41c0-.08.06-.2.11-.31l1.11-2.11a2.59,2.59,0,0,0,.17-.33.5.5,0,0,0,0-.47,9.69,9.69,0,0,1-1.25-3.07.8.8,0,0,0-.13-.24l-3.15-1v-3.37Zm18.31,2.76a6.55,6.55,0,0,0-.09-1.46,7,7,0,0,0-1.44-2.92,6.67,6.67,0,0,0-3.07-2.07,7.06,7.06,0,0,0-2.29-.34,5,5,0,0,0-1.34.16,7.19,7.19,0,0,0-2.16,1,8.28,8.28,0,0,0-1.86,1.83,6.28,6.28,0,0,0-.78,1.47,7.16,7.16,0,0,0-.44,2,6,6,0,0,0,.22,1.93,6.11,6.11,0,0,0,1.23,2.5,7.25,7.25,0,0,0,1.87,1.66,6.24,6.24,0,0,0,2.62.92,6.75,6.75,0,0,0,3.4-.49,7.72,7.72,0,0,0,2.62-1.89,3.48,3.48,0,0,0,.28-.39,6.72,6.72,0,0,0,1-2A4.28,4.28,0,0,0,351.16,462.4Z"/><path class="cls-11" d="M329.74,466.9l1.63,1.64c-.26.46-.54,1-.85,1.5a.62.62,0,0,0,.05.7,6.38,6.38,0,0,1,.76,1.94l2,.65v2.24c-.54.19-1.09.4-1.66.56a.61.61,0,0,0-.49.48,8.15,8.15,0,0,1-.82,2l1,2c-.42.42-.87.85-1.3,1.3a.43.43,0,0,1-.58.08c-.48-.25-1-.48-1.46-.71l-.25-.11a6.93,6.93,0,0,1-2,.87.48.48,0,0,0-.34.29c-.17.51-.34,1-.47,1.54-.06.22-.15.3-.37.3h-2L322,482a8.74,8.74,0,0,1-2-.8.54.54,0,0,0-.61,0c-.39.23-.78.45-1.18.66s-.43.17-.71-.11l-1.29-1.28,1-2a7,7,0,0,1-.9-2.26l-2.17-.71c0-.64,0-1.24,0-1.85,0-.23.05-.36.31-.43.55-.14,1.08-.36,1.63-.53a.33.33,0,0,0,.27-.24,8.41,8.41,0,0,1,.28-1c.16-.39.38-.77.58-1.16l-1-1.89,1.58-1.58a12.29,12.29,0,0,1,1.86,1,7.77,7.77,0,0,1,2.16-.87c.23,0,.27-.28.33-.46.16-.49.31-1,.45-1.49.05-.2.17-.25.36-.25h1.91c.16.45.32.91.47,1.36.05.14.07.28.12.41s.18.51.53.44a8,8,0,0,1,1.85.85Zm-1.63,7.63a4.39,4.39,0,0,0-4.28-4.45,4.28,4.28,0,0,0-3.08,1.23,4.17,4.17,0,0,0-1.36,3.18,4.41,4.41,0,0,0,4.15,4.32,4.23,4.23,0,0,0,3.33-1.28A3.86,3.86,0,0,0,328.11,474.53Z"/><path class="cls-11" d="M343.56,486.78c-.28.28-.56.54-.83.82a.38.38,0,0,1-.49.08c-.3-.16-.6-.34-.86-.49-.46.19-.89.37-1.33.53a.41.41,0,0,0-.27.3c-.1.34-.23.67-.35,1H338c-.08-.32-.16-.65-.26-1a.52.52,0,0,0-.4-.37c-.39-.13-.76-.32-1.17-.5-.27.13-.57.29-.88.43s-.41.16-.67-.09l-.47-.47a.41.41,0,0,1-.1-.54l.48-1-.62-1.44-1.21-.4v-1.47l1.24-.39c.21-.41.21-.93.56-1.3.09-.11,0-.23,0-.36-.17-.33-.33-.67-.52-1.05l1-1c.34.16.65.3,1,.47a.61.61,0,0,0,.61,0c.34-.17.7-.28,1.1-.44a10.24,10.24,0,0,0,.35-1c.06-.27.2-.32.43-.31h1.08c.12.37.26.73.36,1.11.05.21.14.27.35.33.4.12.79.31,1.22.48l1.16-.57,1,1c-.07.46-.48.79-.63,1.26a2.4,2.4,0,0,1,.51,1.15.35.35,0,0,0,.29.34c.38.11.75.24,1.13.37v1.41l-1.11.37a.4.4,0,0,0-.31.39,1.33,1.33,0,0,1-.18.45c-.34.75-.37.5,0,1.29C343.35,486.38,343.45,486.57,343.56,486.78Zm-2.1-3.77a2.73,2.73,0,0,0-4.81-1.81,3.4,3.4,0,0,0-.71,1.82,2.76,2.76,0,0,0,5.52,0Z"/><path class="cls-11" d="M992,430.05v8.49h1.48c7.93,0,15.87,0,23.8,0,2,0,3.71.61,4.63,2.6,1.34,2.9,0,6.4-3.35,6.84a20.21,20.21,0,0,1-2.68.24q-30.79,0-61.58,0c-1.93,0-3.69-.47-4.75-2.28a4.83,4.83,0,0,1,4.32-7.43c8.06,0,16.12,0,24.18,0h1.58v-8.49h-1.44c-10,0-20,0-30,0-4.19,0-7.82-1.22-10.63-4.44a10.8,10.8,0,0,1-2.91-7.11q-.06-21.51,0-43c0-3.93,2-6.93,5-9.29a12.81,12.81,0,0,1,8.17-2.48q37.15,0,74.3,0a12.39,12.39,0,0,1,12.27,9.07,10.49,10.49,0,0,1,.46,2.76q0,21.26,0,42.51c0,5.79-5,11.41-10.83,11.68-6,.27-11.94.23-17.91.28C1001.44,430.08,996.79,430.05,992,430.05Zm39.6-10.47a18.86,18.86,0,0,0,.24-2.12q0-20.58,0-41.14a8.47,8.47,0,0,0-.4-2.65,9.86,9.86,0,0,0-9.66-7q-35.71,0-71.43,0a30,30,0,0,0-4.93.27,9.17,9.17,0,0,0-7.79,8.67c-.12,14,0,28.09,0,42.13,0,1.79,0,1.79,1.79,1.79h92.23Zm-1.36,3.06h-91a9.61,9.61,0,0,0,8.37,4.4q37.15.06,74.29,0A10.08,10.08,0,0,0,1030.24,422.64Zm-47.53,7.47c0,3.18,0,6.25,0,9.32,0,1.83-.24,2.09-2,2.09q-12.9,0-25.8,0a3.76,3.76,0,0,0-1.79.29,2.49,2.49,0,0,0-1.19,1.44c-.08.45.43,1.11.85,1.5A2,2,0,0,0,954,445h63.2c.21,0,.42,0,.63,0a1.46,1.46,0,0,0,1.52-1.46,1.48,1.48,0,0,0-1.29-1.78,12.7,12.7,0,0,0-1.94-.24q-12.35,0-24.68,0h-.75c-1.66,0-1.74-.09-1.74-1.8v-8.35c0-.4,0-.81-.06-1.26Z"/><path class="cls-11" d="M978.85,385.42c.11-.37.21-.75.34-1.12a9.68,9.68,0,0,1,1-2.19.43.43,0,0,0,0-.46c-.08-.18-.2-.35-.29-.53-.38-.73-.76-1.46-1.15-2.23.4-.44.81-.83,1.21-1.23l1.19-1.2,2.93,1.54a13.74,13.74,0,0,1,3.61-1.46c.31-1,.63-1.91.92-2.86.07-.25.18-.33.41-.32h3.07a3.45,3.45,0,0,1,.25.63c.14.78.5,1.49.69,2.26a.48.48,0,0,0,.36.34,13.93,13.93,0,0,1,2.7,1.07l.59.33,3-1.49,2.4,2.39-1.51,3a10.82,10.82,0,0,1,1.3,3.06c.11.48.13.5.6.65l2.68.82v3.45c-.92.3-1.87.63-2.82.91a.45.45,0,0,0-.37.39,12.73,12.73,0,0,1-1.09,2.74c-.09.17-.2.34-.3.51l1.51,3-2.39,2.39-3-1.5a12.15,12.15,0,0,1-3,1.32,1,1,0,0,1-.31.1c-.17,0-.22.12-.26.23l-.72,2.19c-.08.25-.16.51-.24.79H989a.31.31,0,0,1-.34-.27c-.29-1-.6-1.91-.92-2.91a14.06,14.06,0,0,1-3.61-1.47l-2.88,1.52-2.41-2.41c0-.08.06-.2.11-.31l1.11-2.11a2.59,2.59,0,0,0,.17-.33.5.5,0,0,0,0-.47,9.69,9.69,0,0,1-1.25-3.07.8.8,0,0,0-.13-.24l-3.15-1v-3.37Zm18.31,2.76a6.55,6.55,0,0,0-.09-1.46,7,7,0,0,0-1.44-2.92,6.67,6.67,0,0,0-3.07-2.07,7.06,7.06,0,0,0-2.29-.34,5,5,0,0,0-1.34.16,7,7,0,0,0-2.16.95,8.45,8.45,0,0,0-1.86,1.82,6.35,6.35,0,0,0-.78,1.48,7.16,7.16,0,0,0-.44,2,6,6,0,0,0,.22,1.93,6.11,6.11,0,0,0,1.23,2.5,7.25,7.25,0,0,0,1.87,1.66,6.24,6.24,0,0,0,2.62.92,6.75,6.75,0,0,0,3.4-.49,7.72,7.72,0,0,0,2.62-1.89,4.73,4.73,0,0,0,.28-.39,6.72,6.72,0,0,0,1-2A4.28,4.28,0,0,0,997.16,388.18Z"/><path class="cls-11" d="M975.74,392.67l1.63,1.65c-.26.46-.54,1-.85,1.5a.62.62,0,0,0,.05.7,6.38,6.38,0,0,1,.76,1.94l2,.64v2.25c-.54.19-1.09.4-1.66.56a.6.6,0,0,0-.49.48,7.92,7.92,0,0,1-.82,1.95l1,2c-.42.43-.87.86-1.3,1.31a.43.43,0,0,1-.58.08c-.48-.25-1-.48-1.46-.71l-.25-.11a6.93,6.93,0,0,1-2,.87.48.48,0,0,0-.34.29c-.17.51-.34,1-.47,1.53-.06.23-.15.31-.37.31h-2L968,407.8a8.74,8.74,0,0,1-2-.8.54.54,0,0,0-.61,0c-.39.23-.78.45-1.18.66s-.43.16-.71-.11l-1.29-1.28,1-2a7,7,0,0,1-.9-2.26l-2.17-.71c0-.64,0-1.25,0-1.85,0-.23,0-.36.31-.43.55-.15,1.08-.36,1.63-.53a.33.33,0,0,0,.27-.24,8.41,8.41,0,0,1,.28-1c.16-.4.38-.77.58-1.16l-.95-1.89,1.58-1.58a13.18,13.18,0,0,1,1.86,1,8.06,8.06,0,0,1,2.16-.86c.23,0,.27-.28.33-.46.16-.49.31-1,.45-1.49,0-.2.17-.25.36-.25h1.91c.16.45.32.91.47,1.36,0,.14.07.28.12.41s.18.51.53.44a8,8,0,0,1,1.85.85Zm-1.63,7.64a4.39,4.39,0,0,0-4.28-4.45,4.24,4.24,0,0,0-3.08,1.23,4.16,4.16,0,0,0-1.36,3.18,4.42,4.42,0,0,0,4.15,4.32,4.23,4.23,0,0,0,3.33-1.28A3.86,3.86,0,0,0,974.11,400.31Z"/><path class="cls-11" d="M989.56,412.56c-.28.28-.56.54-.83.82a.38.38,0,0,1-.49.08c-.3-.16-.6-.34-.86-.49-.46.19-.89.37-1.33.53a.41.41,0,0,0-.27.3c-.1.34-.23.67-.35,1H984c-.08-.32-.16-.65-.26-1a.55.55,0,0,0-.4-.38,11.27,11.27,0,0,1-1.17-.49l-.88.43c-.36.17-.41.16-.67-.09l-.47-.47a.41.41,0,0,1-.1-.54l.48-1-.62-1.44-1.21-.4V408l1.24-.39c.21-.41.21-.93.56-1.3.09-.11,0-.23,0-.36-.17-.33-.33-.67-.52-1.06l1-1c.34.16.65.3,1,.46a.58.58,0,0,0,.61,0c.34-.17.7-.28,1.1-.44.1-.29.26-.66.35-1s.2-.32.43-.31h1.08c.12.37.26.73.36,1.11.05.21.14.27.35.33.4.12.79.31,1.22.48l1.16-.57,1,1c-.07.45-.48.79-.63,1.26a2.4,2.4,0,0,1,.51,1.15.35.35,0,0,0,.29.34c.38.1.75.24,1.13.37v1.41l-1.11.37a.4.4,0,0,0-.31.39,1.33,1.33,0,0,1-.18.45c-.34.75-.37.5,0,1.29C989.35,412.16,989.45,412.35,989.56,412.56Zm-2.1-3.77a2.73,2.73,0,0,0-4.81-1.81,3.4,3.4,0,0,0-.71,1.82,2.76,2.76,0,0,0,5.52,0Z"/><path class="cls-11" d="M642,764.27v8.49h1.48c7.93,0,15.87,0,23.8,0,2,0,3.71.61,4.63,2.6,1.34,2.9,0,6.4-3.35,6.84a20.21,20.21,0,0,1-2.68.24q-30.79,0-61.58,0c-1.93,0-3.69-.47-4.75-2.28a4.83,4.83,0,0,1,4.32-7.43c8.06,0,16.12,0,24.18,0h1.58v-8.49h-1.44c-10,0-20,0-30,0-4.19,0-7.82-1.22-10.63-4.44a10.8,10.8,0,0,1-2.91-7.11q-.06-21.51,0-43c0-3.93,2-6.93,5-9.29a12.81,12.81,0,0,1,8.17-2.48q37.15,0,74.3,0A12.39,12.39,0,0,1,684.35,707a10.49,10.49,0,0,1,.46,2.76q0,21.26,0,42.51c0,5.79-5.05,11.41-10.83,11.68-6,.27-11.94.23-17.91.28C651.44,764.3,646.79,764.27,642,764.27Zm39.6-10.47a18.86,18.86,0,0,0,.24-2.12q0-20.56,0-41.14a8.47,8.47,0,0,0-.4-2.65,9.86,9.86,0,0,0-9.66-7q-35.71,0-71.43,0a30,30,0,0,0-4.93.27,9.17,9.17,0,0,0-7.79,8.67c-.12,14,0,28.09,0,42.13,0,1.79,0,1.79,1.79,1.79H681.6Zm-1.36,3.06h-91a9.61,9.61,0,0,0,8.37,4.4q37.15.06,74.29,0A10.08,10.08,0,0,0,680.24,756.86Zm-47.53,7.47c0,3.18,0,6.25,0,9.32,0,1.84-.24,2.09-2,2.09q-12.9,0-25.8,0a3.76,3.76,0,0,0-1.79.29,2.52,2.52,0,0,0-1.19,1.44c-.08.45.43,1.11.85,1.5a2,2,0,0,0,1.27.25h63.83a1.65,1.65,0,0,0,.23-3.25,12.7,12.7,0,0,0-1.94-.24q-12.35,0-24.68,0h-.75c-1.66,0-1.74-.09-1.74-1.8v-8.35c0-.4,0-.81-.06-1.26Z"/><path class="cls-11" d="M628.85,719.64c.11-.37.21-.75.34-1.12a9.68,9.68,0,0,1,1-2.19.43.43,0,0,0,0-.46c-.08-.18-.2-.35-.29-.52-.38-.74-.76-1.47-1.15-2.24.4-.44.81-.83,1.21-1.23l1.19-1.2,2.93,1.54a13.74,13.74,0,0,1,3.61-1.46c.31-1,.63-1.91.92-2.86a.36.36,0,0,1,.41-.32h3.07a3.75,3.75,0,0,1,.25.63c.14.78.5,1.49.69,2.26a.48.48,0,0,0,.36.34,13.93,13.93,0,0,1,2.7,1.07l.59.33,3-1.49,2.4,2.39-1.51,3a10.82,10.82,0,0,1,1.3,3.06c.11.48.13.5.6.65l2.68.82v3.45c-.92.3-1.87.63-2.82.91a.45.45,0,0,0-.37.39,12.73,12.73,0,0,1-1.09,2.74c-.09.17-.2.34-.3.51l1.51,3L649.72,734l-3-1.5a12.15,12.15,0,0,1-3,1.32.8.8,0,0,1-.31.1c-.17,0-.22.12-.26.23l-.72,2.19c-.08.26-.16.51-.24.79H639a.31.31,0,0,1-.34-.27c-.29-1-.6-1.91-.92-2.91a14.06,14.06,0,0,1-3.61-1.47L631.26,734l-2.41-2.41c0-.08.06-.2.11-.31l1.11-2.11a2.59,2.59,0,0,0,.17-.33.5.5,0,0,0,0-.47,9.69,9.69,0,0,1-1.25-3.07.8.8,0,0,0-.13-.24l-3.15-1v-3.37Zm18.31,2.76a6.55,6.55,0,0,0-.09-1.46,7,7,0,0,0-1.44-2.92,6.67,6.67,0,0,0-3.07-2.07,7.06,7.06,0,0,0-2.29-.34,5,5,0,0,0-1.34.16,7.19,7.19,0,0,0-2.16,1,8.28,8.28,0,0,0-1.86,1.83,6.28,6.28,0,0,0-.78,1.47,7.16,7.16,0,0,0-.44,2,6,6,0,0,0,.22,1.93,6.11,6.11,0,0,0,1.23,2.5,7.25,7.25,0,0,0,1.87,1.66,6.24,6.24,0,0,0,2.62.92,6.75,6.75,0,0,0,3.4-.49,7.72,7.72,0,0,0,2.62-1.89,3.48,3.48,0,0,0,.28-.39,6.72,6.72,0,0,0,1-2A4.28,4.28,0,0,0,647.16,722.4Z"/><path class="cls-11" d="M625.74,726.9l1.63,1.64c-.26.46-.54,1-.85,1.5a.62.62,0,0,0,.05.7,6.38,6.38,0,0,1,.76,1.94l2,.65v2.24c-.54.19-1.09.4-1.66.56a.61.61,0,0,0-.49.48,8.15,8.15,0,0,1-.82,2l1,2c-.42.42-.87.85-1.3,1.3a.43.43,0,0,1-.58.08c-.48-.25-1-.48-1.46-.71l-.25-.11a6.93,6.93,0,0,1-2,.87.48.48,0,0,0-.34.29c-.17.51-.34,1-.47,1.54-.06.22-.15.3-.37.3h-2L618,742a8.74,8.74,0,0,1-2-.8.54.54,0,0,0-.61,0c-.39.23-.78.45-1.18.66s-.43.17-.71-.11l-1.29-1.28,1-2a7,7,0,0,1-.9-2.26l-2.17-.71c0-.64,0-1.24,0-1.85,0-.23,0-.36.31-.43.55-.14,1.08-.36,1.63-.53a.33.33,0,0,0,.27-.24,8.41,8.41,0,0,1,.28-1c.16-.39.38-.77.58-1.16l-.95-1.89,1.58-1.58a12.29,12.29,0,0,1,1.86,1,7.77,7.77,0,0,1,2.16-.87c.23,0,.27-.28.33-.46.16-.49.31-1,.45-1.49,0-.2.17-.25.36-.25h1.91c.16.45.32.91.47,1.36,0,.14.07.28.12.41s.18.51.53.44a8,8,0,0,1,1.85.85Zm-1.63,7.63a4.39,4.39,0,0,0-4.28-4.45,4.28,4.28,0,0,0-3.08,1.23,4.17,4.17,0,0,0-1.36,3.18,4.41,4.41,0,0,0,4.15,4.32,4.23,4.23,0,0,0,3.33-1.28A3.86,3.86,0,0,0,624.11,734.53Z"/><path class="cls-11" d="M639.56,746.78c-.28.28-.56.54-.83.82a.38.38,0,0,1-.49.08c-.3-.16-.6-.34-.86-.49-.46.19-.89.37-1.33.53a.41.41,0,0,0-.27.3c-.1.34-.23.67-.35,1H634c-.08-.32-.16-.65-.26-1a.52.52,0,0,0-.4-.37c-.39-.13-.76-.32-1.17-.5-.27.13-.57.29-.88.43s-.41.16-.67-.09l-.47-.47a.41.41,0,0,1-.1-.54l.48-1-.62-1.44-1.21-.4v-1.47l1.24-.39c.21-.41.21-.93.56-1.3.09-.11,0-.23,0-.36-.17-.33-.33-.67-.52-1.05l1-1c.34.16.65.3,1,.47a.61.61,0,0,0,.61,0c.34-.17.7-.28,1.1-.44a10.24,10.24,0,0,0,.35-1c.06-.27.2-.32.43-.31h1.08c.12.37.26.73.36,1.11.05.21.14.27.35.33.4.12.79.31,1.22.48l1.16-.57,1,1c-.07.46-.48.79-.63,1.26a2.4,2.4,0,0,1,.51,1.15.35.35,0,0,0,.29.34c.38.11.75.24,1.13.37v1.41l-1.11.37a.4.4,0,0,0-.31.39,1.33,1.33,0,0,1-.18.45c-.34.75-.37.5,0,1.29C639.35,746.38,639.45,746.57,639.56,746.78Zm-2.1-3.77a2.73,2.73,0,0,0-4.81-1.81,3.4,3.4,0,0,0-.71,1.82,2.76,2.76,0,0,0,5.52,0Z"/><g class="cls-16"><path class="cls-17" d="M1327.28,962.17v30.88c0-13.27-17.17-24.08-38.26-24.08s-38.25,10.81-38.25,24.08V962.17c0-13.29,17.15-24.08,38.25-24.08s38.26,10.79,38.26,24.08"/></g><path class="cls-18" d="M1327.28,962.17v30.88c0-13.27-17.17-24.08-38.26-24.08s-38.25,10.81-38.25,24.08V962.17c0-13.29,17.15-24.08,38.25-24.08S1327.28,948.88,1327.28,962.17Z"/><g class="cls-19"><path class="cls-20" d="M1327.28,962.17v30.88c0,13.28-17.17,24.09-38.26,24.09s-38.25-10.81-38.25-24.09V962.17c0,13.27,17.15,24.07,38.25,24.07s38.26-10.8,38.26-24.07"/></g><path class="cls-18" d="M1327.28,962.17v30.88c0,13.28-17.17,24.09-38.26,24.09s-38.25-10.81-38.25-24.09V962.17c0,13.27,17.15,24.07,38.25,24.07S1327.28,975.44,1327.28,962.17Z"/><path class="cls-21" d="M1289,937.14c21.92,0,39.76,11.23,39.76,25s-17.84,25-39.76,25-39.76-11.23-39.76-25S1267.1,937.14,1289,937.14Zm0,49.11c21.09,0,38.26-10.8,38.26-24.08s-17.17-24.08-38.26-24.08-38.25,10.8-38.25,24.08,17.15,24.08,38.25,24.08"/><ellipse class="cls-22" cx="1289.02" cy="962.17" rx="38.25" ry="24.08"/><g class="cls-23"><path class="cls-24" d="M1328.78,962.17v30.88c0,13.81-17.84,25-39.76,25s-39.76-11.23-39.76-25V962.17c0,13.81,17.84,25,39.76,25s39.76-11.23,39.76-25"/></g><path class="cls-18" d="M1328.78,962.17v30.88c0,13.81-17.84,25-39.76,25s-39.76-11.23-39.76-25V962.17c0,13.81,17.84,25,39.76,25S1328.78,976,1328.78,962.17Z"/><g class="cls-25"><path class="cls-17" d="M1327.28,193.17v30.88c0-13.27-17.17-24.08-38.26-24.08s-38.25,10.81-38.25,24.08V193.17c0-13.29,17.15-24.08,38.25-24.08s38.26,10.79,38.26,24.08"/></g><path class="cls-18" d="M1327.28,193.17v30.88c0-13.27-17.17-24.08-38.26-24.08s-38.25,10.81-38.25,24.08V193.17c0-13.29,17.15-24.08,38.25-24.08S1327.28,179.88,1327.28,193.17Z"/><g class="cls-26"><path class="cls-20" d="M1327.28,193.17v30.88c0,13.28-17.17,24.09-38.26,24.09s-38.25-10.81-38.25-24.09V193.17c0,13.27,17.15,24.07,38.25,24.07s38.26-10.8,38.26-24.07"/></g><path class="cls-18" d="M1327.28,193.17v30.88c0,13.28-17.17,24.09-38.26,24.09s-38.25-10.81-38.25-24.09V193.17c0,13.27,17.15,24.07,38.25,24.07S1327.28,206.44,1327.28,193.17Z"/><path class="cls-21" d="M1289,168.14c21.92,0,39.76,11.23,39.76,25s-17.84,25-39.76,25-39.76-11.23-39.76-25S1267.1,168.14,1289,168.14Zm0,49.11c21.09,0,38.26-10.8,38.26-24.08s-17.17-24.08-38.26-24.08-38.25,10.8-38.25,24.08,17.15,24.08,38.25,24.08"/><ellipse class="cls-22" cx="1289.02" cy="193.17" rx="38.25" ry="24.08"/><g class="cls-27"><path class="cls-24" d="M1328.78,193.17v30.88c0,13.81-17.84,25-39.76,25s-39.76-11.23-39.76-25V193.17c0,13.81,17.84,25,39.76,25s39.76-11.23,39.76-25"/></g><path class="cls-18" d="M1328.78,193.17v30.88c0,13.81-17.84,25-39.76,25s-39.76-11.23-39.76-25V193.17c0,13.81,17.84,25,39.76,25S1328.78,207,1328.78,193.17Z"/><circle class="cls-28" cx="1041.33" cy="635.58" r="13"/><circle class="cls-28" cx="1490.5" cy="733.5" r="13"/><circle class="cls-28" cx="1667.5" cy="937.5" r="13"/><circle class="cls-28" cx="1172.5" cy="830.5" r="13"/><line class="cls-18" x1="797.68" y1="546.84" x2="797.68" y2="600.08"/><rect class="cls-22" x="777.89" y="537.08" width="120.38" height="61.56"/><line class="cls-18" x1="789.06" y1="537.59" x2="789.06" y2="599.08"/><text class="cls-29" transform="translate(823.61 549.29)">Create<tspan x="-13.58" y="15.43">Reversal or</tspan><tspan x="-10.36" y="30.87">Correction </tspan><tspan x="-1.43" y="46.3">Record</tspan></text><rect class="cls-22" x="390.31" y="703.08" width="120.38" height="61.56"/><line class="cls-18" x1="401.48" y1="703.59" x2="401.48" y2="765.08"/><text class="cls-29" transform="translate(436.19 728.29)">1801<tspan x="0.72" y="15.43">Data</tspan></text><rect class="cls-22" x="495.89" y="369.99" width="120.38" height="61.56"/><line class="cls-18" x1="507.06" y1="370.49" x2="507.06" y2="431.99"/><text class="cls-29" transform="translate(541.61 382.19)">Create<tspan x="-13.58" y="15.43">Reversal or</tspan><tspan x="-10.36" y="30.87">Correction </tspan><tspan x="-1.43" y="46.3">Record</tspan></text><rect class="cls-22" x="308.31" y="77.58" width="120.38" height="61.56"/><line class="cls-18" x1="319.48" y1="78.09" x2="319.48" y2="139.58"/><text class="cls-29" transform="translate(353.49 98.79)">Cash <tspan class="cls-30" x="-18.35" y="15.43">T</tspan><tspan x="-10.97" y="15.43">ransaction</tspan><tspan x="4.65" y="30.87">File</tspan></text><polygon class="cls-31" points="774.34 109.58 713.93 66.75 651.34 109.58 713.93 152.41 774.34 109.58"/><text class="cls-32" transform="translate(689.4 97.79)">Matching<tspan x="-10.01" y="15.43">Document in</tspan><tspan x="0.72" y="30.87">GFEBS?</tspan></text><polygon class="cls-31" points="899.34 729.58 838.93 686.75 776.34 729.58 838.93 772.41 899.34 729.58"/><text class="cls-32" transform="translate(808.11 733.79)">Resolved?</text><rect class="cls-22" x="856.31" y="80.33" width="120.38" height="61.56"/><line class="cls-18" x1="867.48" y1="80.84" x2="867.48" y2="142.33"/><text class="cls-29" transform="translate(883.61 108.04)">Unmatched<tspan x="3.58" y="15.43">Document</tspan></text><rect class="cls-22" x="1042.31" y="185.33" width="120.38" height="61.56"/><line class="cls-18" x1="1053.48" y1="185.84" x2="1053.48" y2="247.33"/><text class="cls-29" transform="translate(1060.68 209.21)">SFIS Financial<tspan x="28.23" y="15.43">Data</tspan></text><rect class="cls-22" x="1037.89" y="667.08" width="120.38" height="61.56"/><line class="cls-18" x1="1049.06" y1="667.59" x2="1049.06" y2="729.08"/><text class="cls-29" transform="translate(1060.02 678.29)">Post Corrected<tspan x="6.43" y="15.43">Document to</tspan><tspan x="10" y="30.87">Clear Open</tspan><tspan x="13.58" y="46.3">Document</tspan></text><rect class="cls-22" x="1037.89" y="746.08" width="120.38" height="61.56"/><line class="cls-18" x1="1049.06" y1="746.59" x2="1049.06" y2="808.08"/><text class="cls-29" transform="translate(1078.97 764.29)">Reverse<tspan x="-8.94" y="15.43">Unmatched</tspan><tspan x="-5.36" y="30.87">Document</tspan></text><polygon class="cls-33" points="1481.08 775.24 1429.28 775.24 1429.28 857.37 1498.84 857.37 1498.84 793 1481.08 775.24"/><path class="cls-34" d="M1481.08,793h17.36a.17.17,0,0,0,.12-.28l-17.06-17.05a.24.24,0,0,0-.42.17Z"/><path class="cls-10" d="M1463.69,813.73a19.23,19.23,0,0,0-18.86,18.86h18.86Z"/><path class="cls-35" d="M1464.06,813.72h-.37v18.86h-18.86c0,.12,0,.24,0,.37a19.24,19.24,0,1,0,19.24-19.24Z"/><circle class="cls-10" cx="1440.38" cy="804.1" r="2.96"/><circle class="cls-35" cx="1440.38" cy="793" r="2.96"/><line class="cls-18" x1="1446.67" y1="793.37" x2="1471.83" y2="793.37"/><line class="cls-18" x1="1446.67" y1="804.1" x2="1471.83" y2="804.1"/><rect class="cls-36" x="1549.28" y="785.68" width="88.55" height="8.86"/><rect class="cls-33" x="1549.28" y="802.66" width="88.55" height="44.28"/><rect class="cls-37" x="1549.28" y="794.54" width="88.55" height="8.12"/><circle class="cls-38" cx="1571.89" cy="822.5" r="14.47"/><path class="cls-39" d="M1570.92,826.54c-.06-.09-.25-.15-.33-.2s-.42-.1-.6-.15a2,2,0,0,1-.41-.21.76.76,0,0,1-.31-.2,3.31,3.31,0,0,1-.21-.46c-.06-.13-.17-.19-.31-.3s-.26,0-.36,0-.2,0-.27-.21a.24.24,0,0,0-.3-.15c-.12,0-.19-.14-.19-.2s-.19-.17-.33-.18a1.44,1.44,0,0,0-.4.07.24.24,0,0,1-.21-.11c-.06-.07,0-.1-.15-.15s-.1.12-.11.13-.13,0-.15,0,0-.08.06-.11,0-.08-.07-.09-.1.05-.14.14-.2.09-.35.1-.13.35-.23.36-.21-.12-.33-.17-.25.08-.34.09-.13-.12-.22-.25,0-.33,0-.46a.56.56,0,0,0-.05-.32c0-.06-.11,0-.19,0s0,0-.08-.09-.08,0-.09.07-.1.07-.21.06,0-.28,0-.31.09-.12.07-.17,0-.17.07-.17,0-.08,0-.18-.11,0-.27,0-.25.23-.3.38-.32.14-.53.11-.26-.28-.34-.5a.73.73,0,0,1,.08-.64c.09-.07,0-.06-.08-.14s0-.12.16-.25.28-.11.44-.21.21,0,.29.06l.24.06s0-.07-.05-.16.24-.06.27-.08a.3.3,0,0,1,.25.07c.07.07.15,0,.23,0s.14,0,.19.14.09.41.15.5.15.14.2,0a1.11,1.11,0,0,0-.16-.69c-.14-.19,0-.24.17-.41a1.63,1.63,0,0,1,.48-.36c.18-.08.16-.08.15-.2a.87.87,0,0,1,0-.46.6.6,0,0,1,.57-.44c.17,0,.22-.06.14-.21s.14-.26.23-.31.21-.12.29-.06a.3.3,0,0,0,.27.11c.1,0,.15-.14.28-.2s.3-.07.38-.16,0-.1-.1-.17-.15.12-.24.16-.16-.09-.22-.19-.12,0-.16-.13.12-.14.16-.21-.1-.05-.21-.08-.29.12-.38.17a1.68,1.68,0,0,0-.28.22s0-.15.23-.28.15-.15.34-.3.38,0,.58,0,.27,0,.36-.1a.73.73,0,0,1,.4-.17c.08,0,.07-.09.11-.23s-.1-.16-.22-.23-.21-.14-.4-.27a.44.44,0,0,1-.25-.31l-.15-.37c-.09-.22-.16-.34-.2-.34s-.08.14-.15.33-.21.09-.35.07-.14-.17-.19-.32,0-.15,0-.23-.13,0-.22-.09a4.22,4.22,0,0,0-.36-.27c-.1-.08-.19.11-.24.09a1.2,1.2,0,0,0-.25-.09c-.09,0-.07.11,0,.26s0,.31,0,.45-.13.07-.12.19.19.18.24.36-.06.22-.12.32-.24.11-.27.23.07.21.13.31,0,.12-.12.19-.12,0-.27-.11-.11-.53-.12-.59-.13,0-.27,0a.54.54,0,0,1-.31-.08c-.09,0-.39-.28-.53-.34s-.12,0-.24,0-.08-.2-.13-.3-.1,0-.2,0,0-.36,0-.5a3.31,3.31,0,0,1,.6-.63c0-.05.16,0,.28-.05s.08-.08.11-.23.1-.13,0-.19,0-.1.12-.14.22.08.34.06.28-.24.27-.33-.09-.12-.13-.17.13-.12.17-.16,0-.07-.14-.1,0-.06,0-.1.17.05.26,0a.79.79,0,0,1,.29,0c.18,0,.15,0,.19,0s.16.09.18.13a.15.15,0,0,1,0,.09s-.12,0-.21.06-.07.17-.07.22.1.07.16.06a2.82,2.82,0,0,0,.31-.15c.08,0,.06-.08.09-.06a.26.26,0,0,1,.11.2c0,.11-.21.21-.26.25s0,.14,0,.17-.17,0-.21,0l-.22,0c-.07,0-.12.06-.12.17s.09.09.17.11.23-.06.28-.07a.67.67,0,0,1,.2,0l.13.11s.07.11.1.14l.25.19a.66.66,0,0,0,.21.08l.21.1s.14,0,.13-.07,0-.06-.09-.09-.26-.18-.25-.22,0,0,0-.05.13.08.23.1.12.07.2.16.07-.09.08-.21-.09-.18-.18-.28-.28-.24-.29-.29,0-.11.13-.12.15.08.26.19.11.11.18.13.1-.07.16-.15a1.5,1.5,0,0,0,.14-.19c0-.06,0-.08-.06-.11a.73.73,0,0,1-.23-.1c-.06-.06,0-.09-.15-.12l-.36-.1c-.09,0-.1-.13-.13-.22s.15,0,.2,0,0-.09-.06-.17a.77.77,0,0,0-.21-.23c-.06,0-.19,0-.23-.08a1.1,1.1,0,0,0-.28-.17c-.07,0-.11.08-.16.06s0-.11-.07-.14a.6.6,0,0,0-.16-.14c-.09-.06-.07,0-.13,0s0-.09,0-.16,0-.07-.12-.13a.61.61,0,0,0-.3,0c-.11,0-.16-.06-.18,0s-.06.15-.07.11a.31.31,0,0,0-.15-.11c-.06,0-.16.07-.26.06s-.09.11-.13.17a.45.45,0,0,0,0,.3c0,.14-.09,0-.13,0a.92.92,0,0,1,0-.33c0-.07.15-.11.2-.14s-.11-.08-.18-.08a.7.7,0,0,0-.32.21.66.66,0,0,0-.17.37.48.48,0,0,0,.23.38.92.92,0,0,0,.35.17.63.63,0,0,1,0,.25.66.66,0,0,1-.11.25s-.2,0-.21,0a1.13,1.13,0,0,1,0-.26s-.1,0-.16-.09-.06.15-.12.21-.06-.2-.07-.26-.13-.05-.17-.13a1.93,1.93,0,0,1-.09-.33c0-.11-.13-.15-.18-.23s.08-.15.14-.19a1.15,1.15,0,0,1,.3-.16c.14-.06,0-.17,0-.21s-.21,0-.3,0h-.36s-.07.14-.08.27a1.63,1.63,0,0,0,0,.36c0,.07-.1.36-.09.49s.16.14.16.14a.89.89,0,0,1,.14.28c0,.07-.14.06-.17.06h-.28l-.16.09s-.36,0-.42,0a1.28,1.28,0,0,1-.44-.15.46.46,0,0,0-.21-.14c-.1,0-.14.14-.18.17s0,.4,0,.4a.41.41,0,0,1-.15-.17c-.08-.13-.24-.11-.34-.1a1.33,1.33,0,0,1-.52,0c-.12,0,0-.11.1-.13s0-.12-.13-.14h-.06a14.39,14.39,0,0,0-1.93,3.53l.05.05a1.5,1.5,0,0,1,.26.3.21.21,0,0,1-.14,0c-.06,0,0,.19.07.24s.34.18.41.23.09.26.13.36,0,.19,0,.33-.05.63,0,.69a.91.91,0,0,0,.09.35c0,.07.36.64.4.7a1.94,1.94,0,0,0,.31.17c.11.08.12.14.18.21s.14.37.21.46a1,1,0,0,1,.18.21c0,.06,0,.17,0,.2s.18.11.19.14a.65.65,0,0,0,.1.24,1.9,1.9,0,0,0,.22.2s0,0,0-.11-.17-.25-.2-.34a.81.81,0,0,0-.15-.26s-.29-.41-.32-.46a.16.16,0,0,1,0-.19c.07,0,.18.13.23.3a.44.44,0,0,0,.17.28c.09.09.22.19.32.3s.31.41.36.46a.76.76,0,0,1,.15.3c0,.1,0,.16,0,.23a6.91,6.91,0,0,0,.61.37c.15.08.48.21.48.21a.57.57,0,0,0,.3,0c.1-.06.22.05.28.1a.83.83,0,0,1,.2.27c.06.09.34.09.39.09a.47.47,0,0,1,.18,0,1.66,1.66,0,0,1,.23.32,2.93,2.93,0,0,0,.32.3.66.66,0,0,0,.37.17s.1-.08.14-.14.11,0,.16.07a.83.83,0,0,1,.1.37c0,.16,0,.35-.12.38s-.13.17-.16.18a1.14,1.14,0,0,0-.16.48c0,.07,0,.22,0,.25s0,.28.07.37a3.8,3.8,0,0,1,.33.55,5.3,5.3,0,0,0,.48.8,4.1,4.1,0,0,0,.46.3c.2.13.1.44.15.66a4.18,4.18,0,0,1-.16,1c0,.16-.08.72-.09,1a1.37,1.37,0,0,1-.2.57c-.06.08,0,.33,0,.41a1.36,1.36,0,0,1-.09.36.83.83,0,0,0,0,.36.88.88,0,0,1-.08.32s.1.25.06.32a4,4,0,0,0-.08.41s.07.23.11.33,0,.24,0,.34.16.12.28.25a.79.79,0,0,0,.41.16,2.63,2.63,0,0,1,.34,0,.28.28,0,0,0,.22-.14,3.13,3.13,0,0,1-.33-.14s0-.21-.11-.34-.11-.15-.1-.26a.47.47,0,0,1,.28-.4c.17-.06.12-.17.17-.3s-.11-.09-.21-.23.06-.11.1-.14a.48.48,0,0,0,.2-.09c.07-.07,0-.12,0-.21s.15-.09.18-.1,0-.07-.15-.08,0-.17,0-.24.28.05.39,0,.06-.23.09-.36.25,0,.37-.08a.65.65,0,0,0,.29-.32c0-.12-.23-.34-.19-.37s.19.11.4.14.1-.15.2-.2.18-.18.32-.33a3.3,3.3,0,0,0,.37-.63c.06-.11,0-.24,0-.42s.13-.13.38-.16.07-.06.13-.1a.54.54,0,0,1,.33-.07c.11,0,.13-.06.18-.16a1.84,1.84,0,0,1,.16-.31.69.69,0,0,0,.11-.4,1.31,1.31,0,0,0,0-.55c-.06-.27,0-.07.12-.15s.17-.12.21-.31.22-.18.28-.29,0-.31-.07-.44S1571,826.63,1570.92,826.54Z"/><path class="cls-39" d="M1568.47,818.15c-.07,0-.16,0-.1-.12s.13-.21.05-.2-.14,0-.17.1-.12.08-.16.23a.39.39,0,0,1-.12.23c0,.05,0,0,0,.11a.17.17,0,0,0,.23.06c.1,0,.18,0,.22.05s.08.13.15.07.07,0,.17,0,.19.08.14-.08,0-.18-.11-.23-.14,0-.14-.11S1568.54,818.17,1568.47,818.15Z"/><path class="cls-39" d="M1561,814c.17,0,.4-.15.47-.2s.24,0,.3.1a.7.7,0,0,0,.45,0s-.12-.13-.1-.21.18-.06.17-.11-.17-.08-.37-.18-.08-.1-.07-.23,0-.12-.1-.21,0-.13,0-.21,0-.1,0-.15-.16,0-.23,0a.3.3,0,0,0-.22.25c0,.16,0,.32-.08.21a1.07,1.07,0,0,1-.13-.19l-.49.57a.86.86,0,0,0-.07.1l-.2.25a1,1,0,0,1,.23.08A.93.93,0,0,0,1561,814Z"/><path class="cls-39" d="M1562.6,814c.1,0,.07,0,.2,0a.8.8,0,0,0,.23-.05c.07,0,0,0-.09-.15s-.11-.08-.15-.13-.08,0-.15,0,0,.1-.06.16-.12,0-.12.1S1562.51,814,1562.6,814Z"/><path class="cls-39" d="M1562.31,812.85c-.08,0-.08-.1-.17-.07s-.11.18,0,.18.18,0,.2.08,0,.08.11.15.16.07.2,0,.07-.05.14-.08.11-.08.1-.14-.05-.08-.1-.13-.19,0-.11-.08.12-.06.12-.13,0-.18-.08-.15l-.29,0c-.12,0-.23,0-.19.05s.17.09.17.15S1562.39,812.88,1562.31,812.85Z"/><path class="cls-39" d="M1563.4,811.23c.11.11.28.07.48.09s.09,0,.13-.16.07-.1.17-.14a.36.36,0,0,0,.2-.18c0-.08.12,0,.2.13s0,.08-.12,0-.17.05-.28.12,0,.06.06.13.21,0,.23.11.12.12.08.15-.1,0-.24-.07-.12-.1-.24-.1,0,.17.07.24-.1,0-.27,0-.1.09,0,.17.14,0,.27,0a1.53,1.53,0,0,0,.38,0,1.15,1.15,0,0,0,.4,0c.17-.06.18.06.32.06s.22-.1.22-.19-.15,0-.18-.07.16-.11.11-.22.18,0,.28,0,.17-.17.19-.21,0-.11-.12-.09-.09-.06-.11-.17.24,0,.31,0,.12-.06.25-.07a.33.33,0,0,0,.28-.19c0-.11.17-.09.28-.16a2.15,2.15,0,0,0,.3-.14c.09-.06,0-.1.16-.11s.14-.08.26-.17.38-.07.32-.16-.08-.08-.18-.08a3.46,3.46,0,0,1-.64-.13,2.16,2.16,0,0,0-.81,0,7.78,7.78,0,0,1-.78,0,.88.88,0,0,0-.22,0l0,0-.09,0c-.34.18-.67.38-1,.59l-.22.15-.54.39a1.52,1.52,0,0,1,.24,0s0,.06-.22.11S1563.29,811.11,1563.4,811.23Z"/><path class="cls-39" d="M1563.46,812.25c0,.1.15.09.24.09a2.06,2.06,0,0,1,.34,0,.62.62,0,0,0,.3,0,1.08,1.08,0,0,1,.36,0l.35,0a.27.27,0,0,0,.18-.18c0-.07-.09-.1-.19-.16s-.17,0-.3,0a2.69,2.69,0,0,0-.32,0c-.1,0-.23,0-.36,0s-.16,0-.21-.06l-.19-.22c-.08-.1-.12,0-.18-.06s-.12,0-.24,0-.1-.06-.17-.09-.18,0-.18.12.13.14.19.16.22,0,.3,0,0,0,.07.11S1563.45,812.14,1563.46,812.25Z"/><path class="cls-39" d="M1563.29,812.34c0-.07.06-.14,0-.2s0-.12-.16-.09-.18,0-.22.06,0,.07,0,.12.1,0,.16.1S1563.26,812.4,1563.29,812.34Z"/><path class="cls-39" d="M1562,812.05c0,.1.2-.07.27,0s0,.14.08.16.2,0,.24,0,.09,0,.09-.15.06-.14,0-.23a.2.2,0,0,0-.23-.09c-.12,0-.12,0-.21,0s-.08.17-.17.09v0l-.09.09A.18.18,0,0,1,1562,812.05Z"/><path class="cls-39" d="M1562.81,811.4c.07.06,0,.09.13.1s.22.09.29,0,.12,0,.17-.09,0-.14-.06-.09-.14.08-.2.06-.13,0-.12,0,.07,0,.08-.1,0-.1,0-.13-.07,0-.13,0l-.18.15S1562.76,811.36,1562.81,811.4Z"/><path class="cls-39" d="M1565.55,823.14c-.07,0-.18.07-.17.12s.14.07.22,0,.17,0,.12-.07A.2.2,0,0,0,1565.55,823.14Z"/><path class="cls-39" d="M1565.91,822.93s0-.07-.1-.1-.14,0-.22-.09-.09-.06-.21-.14a.56.56,0,0,0-.3-.12c-.13,0-.19-.07-.29,0a.9.9,0,0,0-.22.11c-.07.06-.11.12-.07.16s.1-.06.21-.1.13-.09.2,0l.2.13c.05,0,.17,0,.21.09s.13,0,.15,0-.06.12,0,.12a.5.5,0,0,0,.23,0C1565.83,823,1565.91,823,1565.91,822.93Z"/><path class="cls-39" d="M1567.26,823.12c-.08,0-.09.07-.19,0a1.29,1.29,0,0,0-.21,0c-.11,0-.07,0-.22-.07s-.14-.14-.3-.12-.2,0-.27.05-.19.11-.13.2.1.08.2.06.09,0,.14.06.14-.07.2-.08a.44.44,0,0,1,.23,0c.11,0,.13.07.21,0s.09,0,.19,0,.14,0,.17,0S1567.35,823.09,1567.26,823.12Z"/><path class="cls-39" d="M1572.87,813.59c0-.05-.07-.05-.21-.2s0-.07.09,0a1.59,1.59,0,0,0,.34.14c.1,0,0-.11-.06-.23s0-.17,0-.28-.08-.1-.14-.23.08,0,.3,0,0-.11.06-.32,0-.08.06-.11a.16.16,0,0,0,0-.24c-.09-.13,0-.21,0-.34s.15.08.25.15.08-.12.06-.3-.18-.07-.29-.2-.11,0-.17,0,0-.11.05-.25.12,0,.14-.18.09-.09.13-.24.21-.08.21-.08.13-.08,0-.16,0-.05.15-.07a1.13,1.13,0,0,0,.4-.12c.19-.08.14-.09.07-.18a.81.81,0,0,0-.62,0c-.14.06-.22.17-.36.08s-.12,0-.21.09-.23.19-.25.12.13-.18.18-.26,0-.06-.08-.11-.16.06-.23.12-.24.08-.19.06.09-.09,0-.11-.28,0-.45,0a2.38,2.38,0,0,0-.52.09,1.34,1.34,0,0,1,.27-.17c.18-.1.54,0,.81,0a1.31,1.31,0,0,0,.35-.07c.1,0,.1-.06.07-.12s-.19,0-.4-.11-.28-.07-.47-.11a2.51,2.51,0,0,0-.47-.11,5.25,5.25,0,0,0-.79,0c-.28,0-.27.24-.41.21a2.61,2.61,0,0,0-.47-.07c-.2,0-.17.15-.2.27s.16.15.16.21-.15,0-.34-.08-.41-.15-.5-.16,0,.27-.1.2a.56.56,0,0,0-.2-.11c-.1,0,0,.16-.11.14s0-.11-.1-.15a.79.79,0,0,0-.46.08,1,1,0,0,1-.46.11c-.16,0,0,.22-.07.26s-.06,0-.19,0-.25.1-.42.16-.18.11-.12.2.2,0,.26.13-.07.15-.17.2a.35.35,0,0,1-.3,0,1.11,1.11,0,0,0-.59.19c-.12.1.09,0,.27.14a.67.67,0,0,0,.39.08c.14,0,.23,0,.18.09s-.1,0-.3,0-.29,0-.33,0,.17.1.21.23.27.12.35.15.23,0,.38-.07a2.53,2.53,0,0,1,.66.08c.18,0,.28.27.35.4l.17.31c.06.1.16.14.08.26a.27.27,0,0,0,0,.34c.08.06.14-.14.19-.15s.07.15,0,.22-.2.09-.23.24.19.19.31.2.1-.22.22-.14,0,.11.08.24-.17.11-.3.19-.08.29-.08.44a1.68,1.68,0,0,0,.33.67,1.4,1.4,0,0,1,.3.43c.05.15.16.2.35.15s.16.12.28.23.17,0,.24-.19,0-.29.09-.41a3.51,3.51,0,0,0,.2-.58c0-.2.2,0,.28-.09s.18-.09.33-.13.15-.08.26-.28.28-.06.43-.19.17-.08.32-.15a2.82,2.82,0,0,1,.56-.22C1572.84,813.72,1572.88,813.65,1572.87,813.59Z"/><path class="cls-39" d="M1574.12,814.93c0-.08.06-.17,0-.21s-.1,0-.13-.08,0-.18-.09-.15-.1.08-.26.08-.17-.14-.29,0-.14.19-.2.15-.06-.25-.16-.19-.12.1-.16.09a.14.14,0,0,0-.13,0c0,.07,0,.17.13.13s.17-.06.18,0a.08.08,0,0,1-.08.09c-.06,0-.15,0-.13.06s.12,0,.18.07,0,.07,0,.14.1,0,.2,0,.12.12.25.09.16-.11.24-.11.19-.07.26-.1S1574.09,815,1574.12,814.93Z"/><path class="cls-39" d="M1564.42,815.27a.23.23,0,0,0,.18-.11s0-.12.1-.07.18.12.25.1.16-.05.15-.08a.32.32,0,0,0-.16-.13.9.9,0,0,1-.22-.14.44.44,0,0,0-.18-.11.22.22,0,0,0-.22,0c0,.07,0,.08,0,.18a1,1,0,0,1-.09.18s-.1.11,0,.1.14-.08.17,0S1564.33,815.29,1564.42,815.27Z"/><path class="cls-39" d="M1575,816.59c0,.07-.07.11,0,.15s.12,0,.16,0,0,.06,0,.1.07,0,.13,0,.12.06.1.12,0,.1-.08.1-.15,0-.13.08.15.19.06.2-.14.06-.12.1.21.06.13.12-.21.14-.19.22.2,0,.26-.06.08-.11.19-.07a.36.36,0,0,0,.27,0c.08,0,.23,0,.23-.11s-.1-.11-.06-.13.13,0,.1-.13-.16-.07-.17-.11,0-.16-.09-.21a.59.59,0,0,1-.19-.23c0-.07-.16-.12-.18-.17s.2-.19.16-.27-.26,0-.29-.08.2-.17.17-.23-.2.06-.26.06-.12.08-.13.12-.09-.12-.15-.07-.12.11-.11.18S1575,816.52,1575,816.59Z"/><path class="cls-39" d="M1574.6,817.29c0,.07-.09.18,0,.24s.15.12.21,0,0-.12.12-.11.14,0,.15-.05,0-.18,0-.25.11-.07.07-.15,0-.16-.13-.17-.19-.07-.22,0,0,.14,0,.15-.23,0-.21.08S1574.63,817.23,1574.6,817.29Z"/><path class="cls-39" d="M1582.75,827.66c-.06-.07-.13,0-.14.06s-.13.23-.18.27-.08.17-.2.2a.27.27,0,0,0-.23.3c0,.06.06.09,0,.19a.58.58,0,0,1-.09.23c0,.1-.11.13,0,.24s0,.15,0,.27,0,.23.14.22.17.1.27,0a.71.71,0,0,0,.16-.36c.08-.27,0-.25.12-.47a1.81,1.81,0,0,0,.19-.49c0-.16.06-.16,0-.3S1582.81,827.72,1582.75,827.66Z"/><path class="cls-39" d="M1577.82,811.19l.27-.11c.1,0,.05.08.05.17s-.1.07-.32.18.12.07.17.12.15.19.25.2.13-.17.25-.3.12-.21.2-.27.11.09.14.2.06.11.1.11.12.07.2,0l.29-.11c.11,0-.1,0-.18-.09s-.14,0-.24-.09-.12-.14-.22-.2-.16,0-.22-.14-.11,0-.17-.08-.12-.14-.17-.12,0,.23-.08.2a.33.33,0,0,0-.13-.14c-.06,0,0,.06-.08.16s-.1,0-.15-.11-.26,0-.3.12,0,.13.14.26S1577.74,811.22,1577.82,811.19Z"/><path class="cls-39" d="M1578.7,810.72c.15,0,.11,0,.14.11s0,.1.17.09.26.11.36,0a1.5,1.5,0,0,1,.23-.15c.12,0,.21-.08.11-.15s-.11-.11-.22-.07a.66.66,0,0,1-.31,0c-.11,0-.13.08-.18.08a1,1,0,0,1-.23-.06.2.2,0,0,0-.19,0C1578.51,810.71,1578.54,810.74,1578.7,810.72Z"/><path class="cls-39" d="M1586,825.13s0-.12,0-.18a.09.09,0,0,0,0-.12s-.08,0-.12.07,0,.05,0,.14a.66.66,0,0,0,0,.17c0,.07,0,.12-.07.26s.07.19.11.25,0,.16-.06.24a.07.07,0,0,0,0,.1c.06-.23.12-.47.16-.71v0A.58.58,0,0,1,1586,825.13Z"/><path class="cls-39" d="M1583.59,814a.63.63,0,0,1-.19,0c-.05,0,0-.16,0-.17a.61.61,0,0,0-.35.12c-.09.08-.15,0-.28.13s-.16.12-.18.2-.12.12-.22.08-.19,0-.18-.1.11,0,.15-.11a.15.15,0,0,0,0-.19c-.06-.06-.23-.14-.28-.08s0,.18,0,.27-.06.12,0,.23,0,.25,0,.2-.09-.21-.19-.16-.31.11-.33.18,0,.21,0,.25-.12.06-.17,0-.19-.22-.25-.11.13.16.1.23a.13.13,0,0,1-.21,0c-.07-.07-.19,0-.2-.16s0-.16,0-.24-.22-.17-.15-.2.61.17.68.12.28,0,.32-.14,0-.21-.06-.27a2,2,0,0,1-.4-.25.4.4,0,0,0-.33-.15c-.14,0-.26,0-.3,0s-.31,0-.32-.09.15-.08,0-.14a2.88,2.88,0,0,0-.31-.13c-.11-.05-.23.07-.27.07s0-.13-.1-.13-.19.13-.3.14-.13-.12-.17-.08,0,.19-.07.21-.22-.12-.33-.05a.73.73,0,0,0-.24.27c-.05.08-.06.13-.1.12s-.17-.12-.26,0-.31.19-.27.25.24-.11.3-.06-.12.25-.19.3-.12.26-.22.35a3.67,3.67,0,0,1-.7.65c-.18.07-.3.06-.26.21s0,.25.06.4,0,.34.13.37.24.07.34,0,.14-.23.22-.18,0,.17.09.23a1.14,1.14,0,0,1,.19.36.18.18,0,0,0,.16.21c.08,0,.07-.06.09-.14s.17,0,.32-.12,0-.24,0-.39.19-.18.22-.35-.13-.13-.2-.3.08-.24.14-.32.26-.13.35-.19.07-.17,0-.29.36-.19.43-.17.09.11.09.23-.07.14-.11.21a1.41,1.41,0,0,1-.3.24c-.13.1,0,.33,0,.44s.17.14.3.19.27,0,.35-.08.26,0,.28,0-.05.09-.15.16-.35,0-.51,0-.11.06-.18.13,0,.1,0,.12.15,0,.21,0,0,.14-.07.2-.09-.06-.19-.1-.1.06-.17.18,0,.11,0,.22-.18.17-.35.2-.19,0-.31,0a.33.33,0,0,1-.31,0c-.08,0-.08-.11-.13-.09s-.14,0-.15,0a.35.35,0,0,0,0-.14c0-.08-.09-.07-.1-.1s0-.15,0-.26,0-.18-.12-.13-.19,0-.26.18.07.59,0,.63-.11,0-.22,0-.19.07-.24.12,0,.17-.09.22-.25.13-.31.21,0,.14-.09.17-.15.13-.2.11-.14-.11-.19-.07.06.2,0,.2-.42,0-.42,0,.3.13.36.23a1.12,1.12,0,0,1,.12.39c0,.14,0,.26-.06.26a5.93,5.93,0,0,0-.75,0c-.12,0-.22,0-.24.08s.09.17,0,.24,0,.23,0,.3a.49.49,0,0,0,0,.34c.06.13.11.17.21.16s.12,0,.17.07a.78.78,0,0,0,.46,0,1.49,1.49,0,0,0,.36-.31c.1-.1,0-.21,0-.34s.26-.15.39-.22,0-.22.08-.3.26,0,.36,0,.16-.09.23-.14a.18.18,0,0,1,.21,0c0,.06.2.16.25.25s.21.15.3.27a.39.39,0,0,0,.22.12.26.26,0,0,1,.06.21c0,.1-.15.11-.23.13s-.17,0-.24,0,.16.08.28.13.16-.14.22-.18a.38.38,0,0,0,.13-.22c0-.08.18-.09.14-.18s-.13-.13-.3-.24-.15-.18-.25-.29-.18-.17-.2-.25.11,0,.23.05.13.15.26.27.21.06.34.14.11.11.1.24.14.27.15.43.25.24.37.29.09-.46.08-.58.2-.1.32,0,.12.42.17.55.33.14.45.12.16,0,.21,0a.25.25,0,0,0,.32,0c.17-.12.18.06.16.17s0,.17,0,.32a.64.64,0,0,1-.16.32.35.35,0,0,1-.37.05c-.14-.08-.27,0-.38,0s-.55-.15-.64-.2a1,1,0,0,0-.47-.09c-.11,0-.09.27-.19.38s-.16-.07-.31-.12a2.37,2.37,0,0,1-.79-.47c0-.11,0-.13,0-.26s.14-.23,0-.25-.74.08-1,.06a1.13,1.13,0,0,0-.64.21.79.79,0,0,1-.46,0c-.16,0-.17-.07-.25,0s-.19.28-.29.35-.28,0-.22.18,0,.17,0,.27-.32.39-.43.48-.14.22-.23.37-.37.42-.31.59.14.16.11.3a2.28,2.28,0,0,1,0,.44c0,.14-.13.17-.06.31s0,.32.06.4.18,0,.26.07.17.42.3.51.46.48.6.44.12-.1.3-.08a3.78,3.78,0,0,0,.46,0c.14,0,.3-.14.48-.16s.33-.11.44,0,.3.21.35.19.31,0,.37.1-.24.54-.08.81.34.29.38.47.16.14.19.42.12.49.07.55a3.5,3.5,0,0,0-.29.82c0,.2.23.38.29.56a3.35,3.35,0,0,1,.13.77.52.52,0,0,0,.15.39c.12.15.34.34.32.52s-.09.43.18.48a1.65,1.65,0,0,0,.67-.09c.19,0,.64-.15.74-.37a8.67,8.67,0,0,0,.38-.82c.09-.22.37-.27.33-.42s-.13-.53,0-.64.64-.31.67-.57a4.44,4.44,0,0,0-.08-1,4.22,4.22,0,0,1,0-.72,10.35,10.35,0,0,0,1.13-1.15,3.49,3.49,0,0,0,.45-1.08c0-.11-.36,0-.45.07a.72.72,0,0,1-.43.05.8.8,0,0,1-.35-.4,1.81,1.81,0,0,0-.26-.32c-.15-.18-.06-.21-.23-.32s-.1-.17-.12-.34-.11-.18-.13-.29a.77.77,0,0,0-.19-.33c-.12-.15-.07-.2-.15-.36s-.08-.15,0-.23.12-.15.18,0,.09.18.17.28a1.22,1.22,0,0,1,.22.29c.11.21.22.19.2.37s-.09.18,0,.24a.83.83,0,0,1,.24.22c.06.1.19.12.21.31a1.13,1.13,0,0,0,.11.58c.07.09.27,0,.31,0s.5-.15.62-.23.26-.08.37-.2.22-.08.36-.19.55-.5.53-.67a.41.41,0,0,0-.21-.35c-.12,0-.18-.28-.24-.31s-.13.26-.31.29-.22.11-.33,0,0-.22-.17-.34a1.19,1.19,0,0,1-.25-.3c0-.09,0-.31.13-.23s.24.25.37.36.31.24.36.17.18-.14.24-.1,0,.2.22.23.28,0,.4.05a.53.53,0,0,0,.31,0c.08,0,.4,0,.48.07s.13.27.22.35.12.26.26.22.27-.11.29-.07-.08.63.08.78a3.07,3.07,0,0,1,.28.7,15.67,15.67,0,0,0,.09-1.69A14.39,14.39,0,0,0,1583.59,814Zm-2,5.54c-.13,0-.23.11-.31.05s-.27,0-.36-.07-.08-.18-.25-.11-.24.14-.37.13-.32.05-.36,0-.13-.16-.1-.21.13-.13.12-.21-.06-.1,0-.15.13-.1.13-.17a.1.1,0,0,1,0-.1c.1-.08.15-.13.19-.09s0,.08.1.09.11,0,.13,0-.08,0-.1.08.07.08.09.13.06.08.09.07.06-.06.09-.08.08,0,.08-.06-.12-.07-.1-.12a.41.41,0,0,1,.15-.14c.08,0,.08-.07.16,0s.18,0,.13.11-.14.14-.05.22a3.07,3.07,0,0,0,.27.2c.06.06.21.14.23.2S1581.72,819.5,1581.58,819.54Zm1.85.13c0,.11-.15,0-.21.07s.08.15.12.26a.45.45,0,0,1,0,.3c0,.11-.16,0-.34.07s-.16,0-.29-.12-.12-.15-.11-.27.1-.13.14-.21,0-.14-.1-.27-.14-.15-.13-.23-.09-.2-.13-.35.13-.11.23-.19a.85.85,0,0,1,.32-.21c.12,0,.19,0,.27.09s0,.16.09.3-.09,0-.22,0-.15.07-.18.15.07.11.17.23.07.16.18.13S1583.45,819.56,1583.43,819.67Z"/><g class="cls-40"><path class="cls-41" d="M1579.36,810.11a14.47,14.47,0,0,1-18.12,22.18,14.47,14.47,0,1,0,18.12-22.18Z"/></g><line class="cls-42" x1="1594.3" y1="815.2" x2="1631.19" y2="815.2"/><line class="cls-42" x1="1594.67" y1="822.95" x2="1631.56" y2="822.95"/><line class="cls-42" x1="1594.67" y1="831.07" x2="1631.56" y2="831.07"/><rect class="cls-43" x="1551.87" y="796.38" width="51.65" height="3.69"/><rect class="cls-44" x="1602.78" y="796.38" width="11.81" height="3.69"/><path class="cls-45" d="M771.26,376.19c-.15,33.17-50.57,33.16-50.71,0C720.7,343,771.12,343,771.26,376.19Z"/><path class="cls-11" d="M745.9,402.69c-34.63-.19-34.63-52.81,0-53C780.54,349.89,780.54,402.51,745.9,402.69Zm0-50.72c-31.66.17-31.66,48.28,0,48.45C777.57,400.25,777.57,352.14,745.9,352Z"/><rect class="cls-14" x="779.08" y="402.42" width="50.71" height="50.71"/><path class="cls-11" d="M830.93,454.27h-53v-53h53ZM780.21,452h48.44V403.56H780.21Z"/><path class="cls-45" d="M815.48,385.7l-8.76,9.42c-.77-5.74,3.21-21.45-6.71-21.21H771.26v4.57H800c4.07-.54,1.43,14.8,2.14,16.65l-8.77-9.43L791,387.94l13.46,14.48,13.46-14.48Z"/><path class="cls-11" d="M804.43,404.09l-15.06-16.21,4.07-3.79,7.57,8.15c-.41-.81,1-13.11-1-12.62H770.12v-6.85H800c10-.19,7.65,13.11,7.84,19.46l7.57-8.14,4.08,3.79ZM792.58,388l11.85,12.75L816.29,388l-.75-.7-10,10.71c1.15-32-.94-21.06-33.18-23v2.3c33.23,1.87,31.33-8.61,30.88,20.68l-10-10.72Z"/><path class="cls-14" d="M750.33,425.49c-4.07.55-1.44-14.8-2.14-16.65l8.77,9.43,2.41-2.24-13.46-14.48L732.44,416l2.42,2.24,8.76-9.42c.76,5.74-3.22,21.45,6.71,21.21h28.75v-4.57Z"/><path class="cls-11" d="M780.21,431.2H750.33c-10,.19-7.65-13.11-7.85-19.46l-7.57,8.14-4.07-3.79,15.07-16.21L761,416.09l-4.07,3.79-7.57-8.15c.41.81-1.05,13.11,1,12.62h29.88ZM744.75,406c-1.14,32,1,21.07,33.19,23v-2.3c-33.24-1.87-31.34,8.61-30.89-20.68l10,10.72.75-.7-11.85-12.75L734.05,416l.75.7Z"/><path class="cls-45" d="M1195.33,344.88c-.14,33.16-50.56,33.16-50.71,0C1144.77,311.72,1195.19,311.72,1195.33,344.88Z"/><path class="cls-11" d="M1170,371.37c-34.64-.18-34.64-52.81,0-53C1204.62,318.57,1204.61,371.19,1170,371.37Zm0-50.71c-31.67.17-31.67,48.28,0,48.44C1201.65,368.93,1201.64,320.82,1170,320.66Z"/><rect class="cls-14" x="1203.15" y="371.1" width="50.71" height="50.71"/><path class="cls-11" d="M1255,423h-53V370h53Zm-50.71-2.27h48.44V372.24h-48.44Z"/><path class="cls-45" d="M1239.56,354.38l-8.77,9.43c-.76-5.75,3.22-21.46-6.7-21.22h-28.76v4.57h28.76c4.06-.54,1.42,14.81,2.13,16.65l-8.77-9.43-2.41,2.25,13.46,14.47L1242,356.63Z"/><path class="cls-11" d="M1228.5,372.77l-15.06-16.2,4.07-3.8,7.57,8.15c-.41-.8,1.05-13.11-1-12.62H1194.2v-6.84h29.89c10-.2,7.64,13.1,7.84,19.46l7.57-8.15,4.07,3.8Zm-11.85-16.09,11.85,12.76,11.86-12.76-.75-.69-9.95,10.71c1.14-32-1-21.07-33.19-23V346c33.24,1.87,31.34-8.62,30.89,20.68l-10-10.72Z"/><path class="cls-14" d="M1174.4,394.17c-4.06.55-1.43-14.8-2.14-16.65L1181,387l2.41-2.25L1170,370.24l-13.46,14.47,2.41,2.25,8.76-9.43c.77,5.75-3.21,21.46,6.71,21.22h28.75v-4.58Z"/><path class="cls-11" d="M1204.29,399.88H1174.4c-10,.19-7.65-13.1-7.84-19.46l-7.57,8.14-4.08-3.79,15.07-16.2,15.07,16.2-4.08,3.79-7.57-8.14c.41.8-1,13.11,1,12.62h29.89Zm-35.46-25.24c-1.15,32,.94,21.07,33.18,23v-2.3c-33.23-1.87-31.33,8.62-30.88-20.68l10,10.72.75-.7L1170,371.9l-11.86,12.75.75.7Z"/><path class="cls-45" d="M525.33,87.88c-.14,33.16-50.56,33.16-50.71,0C474.77,54.72,525.19,54.72,525.33,87.88Z"/><path class="cls-11" d="M500,114.37c-34.64-.18-34.64-52.81,0-53C534.62,61.57,534.61,114.19,500,114.37Zm0-50.71c-31.67.17-31.67,48.28,0,48.44C531.65,111.93,531.64,63.82,500,63.66Z"/><rect class="cls-14" x="533.15" y="114.1" width="50.71" height="50.71"/><path class="cls-11" d="M585,166H532V113h53Zm-50.71-2.27h48.44V115.24H534.29Z"/><path class="cls-45" d="M569.56,97.38l-8.77,9.43c-.76-5.75,3.22-21.46-6.7-21.22H525.33v4.57h28.76c4.06-.54,1.42,14.81,2.13,16.65l-8.77-9.43L545,99.63,558.5,114.1,572,99.63Z"/><path class="cls-11" d="M558.5,115.77l-15.06-16.2,4.07-3.8,7.57,8.15c-.41-.8,1-13.11-1-12.62H524.2V84.46h29.89c10-.2,7.64,13.1,7.84,19.46l7.57-8.15,4.07,3.8ZM546.65,99.68l11.85,12.76,11.86-12.76-.75-.69-10,10.71c1.14-32-.95-21.07-33.19-23V89c33.24,1.87,31.34-8.62,30.89,20.68L547.4,99Z"/><path class="cls-14" d="M504.4,137.17c-4.06.55-1.43-14.8-2.14-16.65L511,130l2.41-2.25L500,113.24l-13.46,14.47,2.41,2.25,8.76-9.43c.77,5.75-3.21,21.46,6.71,21.22h28.75v-4.58Z"/><path class="cls-11" d="M534.29,142.88H504.4c-10,.19-7.65-13.1-7.84-19.46L489,131.56l-4.08-3.79L500,111.57l15.07,16.2L511,131.56l-7.57-8.14c.41.8-1,13.11,1,12.62h29.89Zm-35.46-25.24c-1.15,32,.94,21.07,33.18,23v-2.3c-33.23-1.87-31.33,8.62-30.88-20.68l10,10.72.75-.7L500,114.9l-11.86,12.75.75.7Z"/><path class="cls-46" d="M1477.5,733.5h-66.86A24.49,24.49,0,0,0,1386.15,758V913a24.49,24.49,0,0,0,24.49,24.49H1654.5"/></g><g id="text"><text class="cls-47" transform="translate(1106.19 445.93)">BI/ECC Interface<tspan class="cls-48" x="97.54" y="0"> </tspan><tspan class="cls-49" x="100.43" y="0">Auto Posting</tspan></text><text class="cls-47" transform="translate(704.38 472.93)">1801<tspan class="cls-48" x="28.92" y="0"> </tspan><tspan class="cls-49" x="31.82" y="0">Auto Sweet Program</tspan></text><text class="cls-47" transform="translate(960.78 467.93)">Execute<tspan x="-54.2" y="15.6">1801</tspan><tspan class="cls-48" x="-25.28" y="15.6"> </tspan><tspan class="cls-49" x="-22.39" y="15.6">Auto Sweep Program</tspan></text><text class="cls-47" transform="translate(1218.45 560.93)">Unmatched Distributions<tspan x="26.37" y="15.6">and Collections</tspan></text><text class="cls-47" transform="translate(1274.81 271.93)">SFIS<tspan x="-27.1" y="15.6">Financial Data</tspan></text><text class="cls-47" transform="translate(1408.33 883.93)">Unmatched Items<tspan x="15.17" y="15.6">By Category</tspan></text><text class="cls-47" transform="translate(611.78 803.93)">Execute<tspan x="-56.73" y="15.6">1801 Extension</tspan><tspan class="cls-50" x="32.89" y="15.6"> </tspan><tspan class="cls-51" x="36.27" y="15.6">T</tspan><tspan class="cls-49" x="43.73" y="15.6">ransaction</tspan><tspan x="-56.35" y="31.2">to resolve Unmatched Docs</tspan></text><text class="cls-47" transform="translate(497.24 188.93)">Interface Program<tspan x="-18.07" y="15.6">Locate Matching Invoice</tspan><tspan x="2.53" y="31.2">or Create Invoice</tspan></text><text class="cls-47" transform="translate(1561.34 874.93)">Leadership<tspan x="-16.6" y="15.6">Financial Metrics</tspan><tspan x="0.37" y="31.2">Dashboard</tspan></text><text class="cls-47" transform="translate(246.06 546.93)">Populate Missing Data Elements</text><path class="cls-14" d="M229.07,62.69H222.5a4.31,4.31,0,0,0-4.38-4.18h-35.4a4.31,4.31,0,0,0-4.38,4.18H171a4.3,4.3,0,0,0-4.38,4.19V164.7a4.3,4.3,0,0,0,4.38,4.19h3.72v3.4a.77.77,0,0,0,.78.75h4.57a.78.78,0,0,0,.79-.75v-3.4H220v3.4a.77.77,0,0,0,.78.75H225a.77.77,0,0,0,.78-.75v-3.4h3.29a4.3,4.3,0,0,0,4.38-4.19V66.88A4.3,4.3,0,0,0,229.07,62.69Z"/><path class="cls-11" d="M166.3,116.41V67.56a5.59,5.59,0,0,1,4.4-5.51,7.38,7.38,0,0,1,1.7,0h3.51c1.54,0,1.58,0,1.53-1.44a1.83,1.83,0,0,1,.72-1.55,1.69,1.69,0,0,1,1.19-.44h42.1a1.85,1.85,0,0,1,1.88,1.82c0,1.6,0,1.6,1.74,1.6,1.32,0,2.65.06,4,0a5.52,5.52,0,0,1,5.31,4.34,16.45,16.45,0,0,1,.14,1.84q0,48.51,0,97a5.59,5.59,0,0,1-6,5.8c-.54,0-.79.1-.7.64a4,4,0,0,1,0,.77,1.58,1.58,0,0,1-1.73,1.68h-6.39c-1.42,0-2-.51-2-1.83s0-1.25-1.3-1.25q-16.29,0-32.57,0c-.69,0-.92.15-.88.83.07.84.23,1.76-1,2.15a2.86,2.86,0,0,1-.86.11h-6.29c-1.33,0-1.92-.58-1.92-1.86a1.93,1.93,0,0,1,0-.34c.18-.8-.23-.91-1-.9a5.46,5.46,0,0,1-5.54-4.47,11.49,11.49,0,0,1-.15-1.93ZM232,113.55c0-15.37,0-30.74,0-46.11a3.35,3.35,0,0,0-3.36-3.23q-28.24,0-56.48,0a3.32,3.32,0,0,0-3.35,3.16q0,46.23,0,92.47c0,.77.2.91,1,.91q30.63,0,61.25,0c.79,0,1-.17,1-.92Q231.95,136.69,232,113.55ZM200.39,163h-31.2c-.19,0-.38,0-.37.25a17.25,17.25,0,0,0,.13,3.21c.35,1.4,1.9,2.36,3.8,2.36h55.39c2.29,0,4.1-1.5,3.84-3.61a4.77,4.77,0,0,1,0-1.36c.11-.75-.21-.86-.93-.86Q215.72,163,200.39,163Zm0-101c6.63,0,13.26,0,19.88,0,.55,0,.77-.08.77-.68s-.44-.53-.82-.53H191.6c-3.69,0-7.38,0-11.07,0-.54,0-.76.08-.76.68s.43.53.81.53ZM178,171h-2.15c-.3,0-.57-.05-.57.4s.16.46.53.46c1.45,0,2.91,0,4.37,0,.36,0,.53-.05.53-.45s-.27-.42-.57-.41Zm44.77.85c.77,0,1.55,0,2.32,0,.31,0,.42-.1.41-.39s0-.48-.41-.48c-1.52,0-3,0-4.55,0-.35,0-.46.11-.46.44s.11.44.46.43C221.28,171.84,222,171.85,222.77,171.85Z"/><path class="cls-11" d="M225,93.87v22.41a2.22,2.22,0,0,1-2.43,2.36c-14.77,0-29.55,0-44.33,0a2.38,2.38,0,0,1-2.35-2.12,4.34,4.34,0,0,1,0-.51V71.48c0-1.82.86-2.64,2.79-2.64,14.56,0,29.13,0,43.7,0A2.48,2.48,0,0,1,225,71.38C224.93,78.88,225,86.37,225,93.87Zm-46.6,0c0,7.24,0,14.48,0,21.73,0,.71.17.87.92.87q21.13,0,42.27,0c.75,0,.92-.16.92-.87q0-21.74,0-43.46c0-.71-.17-.88-.92-.88q-21.14,0-42.27,0c-.75,0-.93.16-.92.88C178.37,79.34,178.35,86.58,178.35,93.83Z"/><path class="cls-11" d="M229.63,118q0,17.33,0,34.64c0,.59-.2,1.05-.75,1.19a1.26,1.26,0,0,1-1.44-.4,1,1,0,0,1-.15-.72q0-34.68,0-69.37A1.27,1.27,0,0,1,228.48,82c.76,0,1.15.46,1.15,1.37Z"/><path class="cls-11" d="M210.86,120.52a3.4,3.4,0,0,1,3.48,3.33,3.36,3.36,0,0,1-3.4,3.33,3.44,3.44,0,0,1-3.61-3.37A3.38,3.38,0,0,1,210.86,120.52Zm1,3.18c.12-.66-.53-.89-1-.87a1,1,0,0,0-1,1.06.91.91,0,0,0,1,.9C211.57,124.76,211.84,124.38,211.82,123.7Z"/><path class="cls-11" d="M193.47,123.87a3.56,3.56,0,0,1-3.5,3.32,3.5,3.5,0,0,1-3.51-3.39,3.34,3.34,0,0,1,3.54-3.27A3.38,3.38,0,0,1,193.47,123.87Zm-2.51,0a1,1,0,1,0-2,0,.92.92,0,0,0,1,1C190.58,124.81,190.87,124.41,191,123.86Z"/><path class="cls-11" d="M229.63,73.81c0,1.39,0,2.79,0,4.19,0,.78-.47,1-1.14,1.1a1,1,0,0,1-1.2-1c0-2.94,0-5.87,0-8.81,0-.76.61-1,1.19-1a1,1,0,0,1,1.15,1.07C229.62,70.79,229.63,72.3,229.63,73.81Z"/><path class="cls-11" d="M200.4,98.45c-5.31,0-10.62,0-15.92,0-.74,0-1.28-.19-1.44-.92a1.21,1.21,0,0,1,1.14-1.47,3.23,3.23,0,0,1,.54,0H216.1c1.2,0,1.61.29,1.66,1.15s-.36,1.23-1.27,1.24c-1.44,0-2.87,0-4.31,0Z"/><path class="cls-11" d="M200.3,112.31c-5.27,0-10.55,0-15.83,0-.73,0-1.27-.2-1.43-.93s.36-1.37,1.23-1.47a4.86,4.86,0,0,1,.54,0H216c1.32,0,1.72.29,1.74,1.24,0,.76-.4,1.14-1.27,1.15-1.56,0-3.12,0-4.68,0Z"/><path class="cls-11" d="M200.49,82.19h15.82c1.12,0,1.57.46,1.45,1.42-.09.77-.79.77-1.32,1a2.15,2.15,0,0,1-.72,0H185.05a3.37,3.37,0,0,1-1.21-.16,1.14,1.14,0,0,1,.37-2.24h16.28Z"/><path class="cls-11" d="M200.49,75.35h15.82c1.09,0,1.45.28,1.45,1.13s-.39,1.09-1.4,1.09q-16,0-32,0c-.68,0-1.1-.21-1.28-.78a1.08,1.08,0,0,1,.39-1.3,1.26,1.26,0,0,1,.92-.16Z"/><path class="cls-11" d="M200.39,89.21h16c1,0,1.37.3,1.37,1.12s-.39,1.1-1.4,1.1q-16,0-32,0a1.15,1.15,0,0,1-1.28-.78,1.08,1.08,0,0,1,.38-1.29,1.3,1.3,0,0,1,.93-.17Z"/><path class="cls-11" d="M200.39,103.07h16c1,0,1.37.3,1.37,1.12s-.39,1.1-1.4,1.1q-16,0-32,0a1.15,1.15,0,0,1-1.28-.78,1.08,1.08,0,0,1,.38-1.29,1.3,1.3,0,0,1,.93-.17Z"/><rect class="cls-12" x="199.26" y="129.7" width="59.94" height="31.52" rx="8.72"/><path class="cls-15" d="M229.21,129.37h27a3.43,3.43,0,0,1,3.6,3.39q0,12.53,0,25.06a3.52,3.52,0,0,1-3.68,3.51h-53.9a3.45,3.45,0,0,1-3.59-3.42q0-12.57,0-25.16a3.49,3.49,0,0,1,3.55-3.39C211.21,129.39,220.21,129.37,229.21,129.37Zm-28.48,22.07a8.37,8.37,0,0,1,5.83,2.36,8,8,0,0,1,2.39,5.55h40.59a7.6,7.6,0,0,1,2.41-5.58,8.45,8.45,0,0,1,5.79-2.34V139.26a8.74,8.74,0,0,1-5.81-2.35,7.63,7.63,0,0,1-2.39-5.56H209c-.29,4.49-3.33,7.58-8.24,8Zm57.06,2c-3.38-.35-6.64,3.21-6.09,5.93h4.48a1.48,1.48,0,0,0,1.49-1.08,4.31,4.31,0,0,0,.12-1.08C257.8,156,257.79,154.72,257.79,153.47Zm-50.94,5.92c.15-3.58-3.52-6.34-6.15-5.89,0,1.53,0,3.05,0,4.58a1.51,1.51,0,0,0,1.29,1.3C203.6,159.42,205.21,159.39,206.85,159.39Zm44.82-28.08c-.34,3.24,3.06,6.17,6.12,5.92,0-1.56,0-3.12,0-4.68a1.46,1.46,0,0,0-1.51-1.25c-.62,0-1.26,0-1.89,0Zm-51,5.93c3.45.16,6.44-3.06,6.09-5.93-1.61,0-3.21,0-4.82,0a1.37,1.37,0,0,0-1.27,1.35c0,.74,0,1.48,0,2.22Z"/><path class="cls-15" d="M220,145.34c-.25-4.61,4.12-9.2,9.95-8.8,4.21.29,8.8,3.82,8.54,9.24a9.09,9.09,0,0,1-9.74,8.37C224.15,154,219.82,150.15,220,145.34Zm8.55-5.33c-1.63.48-2.09.73-2.71,1.5a2.4,2.4,0,0,0,.6,3.49c.58.32,1.2.56,1.8.86.14.06.34.2.34.31,0,1.26,0,2.52,0,3.82-.68-.15-1.35-.15-1.82-.68a4.26,4.26,0,0,0,.37-.39,1,1,0,0,0-.6-1.65,1.28,1.28,0,0,0-1.37.52,1.37,1.37,0,0,0,.26,1.55,4.59,4.59,0,0,0,3.14,1.32c.06.42-.11,1,.68.93s.41-.6.58-.91l.15-.05a4.61,4.61,0,0,0,2.7-1.25,2.34,2.34,0,0,0,0-3.45,7.25,7.25,0,0,0-2.53-1.3c-.14-.06-.33-.21-.33-.31,0-1.2,0-2.39,0-3.73l1.8.46a6,6,0,0,0-.39.57,1,1,0,1,0,1.87.17,1.88,1.88,0,0,0-1.1-1.23c-.69-.29-1.44-.46-2.16-.69-.08-.32.17-.82-.51-.84C228.79,139,228.65,139.19,228.55,140Z"/><path class="cls-15" d="M229.81,149.89v-3.51a2.55,2.55,0,0,1,1.65.92,1.55,1.55,0,0,1-.11,1.82A1.63,1.63,0,0,1,229.81,149.89Z"/><path class="cls-15" d="M228.57,140.8v3.34c-1.1-.17-1.7-.78-1.68-1.71A1.69,1.69,0,0,1,228.57,140.8Z"/><text class="cls-52" transform="translate(180.55 191.65)">DCAS</text><path class="cls-14" d="M229.07,214.69H222.5a4.31,4.31,0,0,0-4.38-4.18h-35.4a4.31,4.31,0,0,0-4.38,4.18H171a4.3,4.3,0,0,0-4.38,4.19V316.7a4.3,4.3,0,0,0,4.38,4.19h3.72v3.4a.77.77,0,0,0,.78.75h4.57a.78.78,0,0,0,.79-.75v-3.4H220v3.4a.77.77,0,0,0,.78.75H225a.77.77,0,0,0,.78-.75v-3.4h3.29a4.3,4.3,0,0,0,4.38-4.19V218.88A4.3,4.3,0,0,0,229.07,214.69Z"/><path class="cls-11" d="M166.3,268.41V219.56a5.59,5.59,0,0,1,4.4-5.51,7.38,7.38,0,0,1,1.7-.05h3.51c1.54,0,1.58,0,1.53-1.44a1.83,1.83,0,0,1,.72-1.55,1.69,1.69,0,0,1,1.19-.44h42.1a1.85,1.85,0,0,1,1.88,1.82c0,1.6,0,1.6,1.74,1.6,1.32,0,2.65.06,4,0a5.52,5.52,0,0,1,5.31,4.34,16.45,16.45,0,0,1,.14,1.84q0,48.51,0,97a5.59,5.59,0,0,1-6,5.8c-.54,0-.79.1-.7.64a4,4,0,0,1,0,.77,1.58,1.58,0,0,1-1.73,1.68h-6.39c-1.42,0-2-.51-2-1.83s0-1.25-1.3-1.25q-16.29,0-32.57,0c-.69,0-.92.15-.88.83.07.84.23,1.76-1,2.15a2.86,2.86,0,0,1-.86.11h-6.29c-1.33,0-1.92-.58-1.92-1.86a1.93,1.93,0,0,1,0-.34c.18-.8-.23-.91-1-.9a5.46,5.46,0,0,1-5.54-4.47,11.49,11.49,0,0,1-.15-1.93ZM232,265.55c0-15.37,0-30.74,0-46.11a3.35,3.35,0,0,0-3.36-3.23q-28.24,0-56.48,0a3.32,3.32,0,0,0-3.35,3.16q0,46.23,0,92.47c0,.77.2.91,1,.91q30.63,0,61.25,0c.79,0,1-.17,1-.92Q231.95,288.68,232,265.55ZM200.39,315h-31.2c-.19,0-.38,0-.37.25a17.25,17.25,0,0,0,.13,3.21c.35,1.4,1.9,2.36,3.8,2.36h55.39c2.29,0,4.1-1.5,3.84-3.61a4.77,4.77,0,0,1,0-1.36c.11-.75-.21-.86-.93-.86Q215.72,315,200.39,315Zm0-101c6.63,0,13.26,0,19.88,0,.55,0,.77-.08.77-.68s-.44-.53-.82-.53H191.6c-3.69,0-7.38,0-11.07,0-.54,0-.76.08-.76.68s.43.53.81.53ZM178,323h-2.15c-.3,0-.57-.05-.57.4s.16.46.53.46c1.45,0,2.91,0,4.37,0,.36,0,.53-.05.53-.45s-.27-.42-.57-.41Zm44.77.85c.77,0,1.55,0,2.32,0,.31,0,.42-.1.41-.39s0-.48-.41-.48c-1.52,0-3,0-4.55,0-.35,0-.46.11-.46.44s.11.44.46.43C221.28,323.84,222,323.85,222.77,323.85Z"/><path class="cls-11" d="M225,245.87v22.41a2.22,2.22,0,0,1-2.43,2.36c-14.77,0-29.55,0-44.33,0a2.38,2.38,0,0,1-2.35-2.12,4.34,4.34,0,0,1,0-.51V223.48c0-1.82.86-2.64,2.79-2.64,14.56,0,29.13,0,43.7,0a2.48,2.48,0,0,1,2.64,2.56C224.93,230.88,225,238.37,225,245.87Zm-46.6,0c0,7.24,0,14.48,0,21.73,0,.71.17.87.92.87q21.13,0,42.27,0c.75,0,.92-.16.92-.87q0-21.74,0-43.46c0-.71-.17-.88-.92-.88q-21.14,0-42.27,0c-.75,0-.93.16-.92.88C178.37,231.34,178.35,238.58,178.35,245.83Z"/><path class="cls-11" d="M229.63,270q0,17.33,0,34.64c0,.59-.2,1.05-.75,1.19a1.26,1.26,0,0,1-1.44-.4,1,1,0,0,1-.15-.72q0-34.68,0-69.37a1.27,1.27,0,0,1,1.19-1.35c.76,0,1.15.46,1.15,1.37Z"/><path class="cls-11" d="M210.86,272.52a3.4,3.4,0,0,1,3.48,3.33,3.36,3.36,0,0,1-3.4,3.33,3.44,3.44,0,0,1-3.61-3.37A3.38,3.38,0,0,1,210.86,272.52Zm1,3.18c.12-.66-.53-.89-1-.87a1,1,0,0,0-1,1.06.91.91,0,0,0,1,.9C211.57,276.76,211.84,276.38,211.82,275.7Z"/><path class="cls-11" d="M193.47,275.87a3.56,3.56,0,0,1-3.5,3.32,3.5,3.5,0,0,1-3.51-3.39,3.34,3.34,0,0,1,3.54-3.27A3.38,3.38,0,0,1,193.47,275.87Zm-2.51,0a1,1,0,1,0-2,0,.92.92,0,0,0,1,1C190.58,276.81,190.87,276.41,191,275.86Z"/><path class="cls-11" d="M229.63,225.81c0,1.39,0,2.79,0,4.19,0,.78-.47,1.05-1.14,1.1a1,1,0,0,1-1.2-1c0-2.94,0-5.87,0-8.81,0-.76.61-1,1.19-1.05a1,1,0,0,1,1.15,1.07C229.62,222.79,229.63,224.3,229.63,225.81Z"/><path class="cls-11" d="M200.4,250.45H184.48c-.74,0-1.28-.19-1.44-.92a1.21,1.21,0,0,1,1.14-1.47,3.23,3.23,0,0,1,.54,0H216.1c1.2,0,1.61.29,1.66,1.15s-.36,1.23-1.27,1.24c-1.44,0-2.87,0-4.31,0Z"/><path class="cls-11" d="M200.3,264.31H184.47c-.73,0-1.27-.2-1.43-.93s.36-1.37,1.23-1.47a4.86,4.86,0,0,1,.54,0H216c1.32,0,1.72.29,1.74,1.24,0,.76-.4,1.14-1.27,1.15-1.56,0-3.12,0-4.68,0Z"/><path class="cls-11" d="M200.49,234.19h15.82c1.12,0,1.57.46,1.45,1.42-.09.77-.79.77-1.32,1a2.15,2.15,0,0,1-.72,0H185.05a3.37,3.37,0,0,1-1.21-.16,1.14,1.14,0,0,1,.37-2.24h16.28Z"/><path class="cls-11" d="M200.49,227.35h15.82c1.09,0,1.45.28,1.45,1.13s-.39,1.09-1.4,1.09q-16,0-32,0c-.68,0-1.1-.21-1.28-.78a1.08,1.08,0,0,1,.39-1.3,1.26,1.26,0,0,1,.92-.16Z"/><path class="cls-11" d="M200.39,241.21h16c1,0,1.37.3,1.37,1.12s-.39,1.1-1.4,1.1q-16,0-32,0a1.15,1.15,0,0,1-1.28-.78,1.08,1.08,0,0,1,.38-1.29,1.3,1.3,0,0,1,.93-.17C189.72,241.2,195.06,241.21,200.39,241.21Z"/><path class="cls-11" d="M200.39,255.07h16c1,0,1.37.3,1.37,1.12s-.39,1.1-1.4,1.1q-16,0-32,0a1.15,1.15,0,0,1-1.28-.78,1.08,1.08,0,0,1,.38-1.29,1.3,1.3,0,0,1,.93-.17Z"/><rect class="cls-12" x="199.26" y="281.7" width="59.94" height="31.52" rx="8.72"/><path class="cls-15" d="M229.21,281.37h27a3.43,3.43,0,0,1,3.6,3.39q0,12.53,0,25.06a3.52,3.52,0,0,1-3.68,3.51h-53.9a3.45,3.45,0,0,1-3.59-3.42q0-12.57,0-25.16a3.49,3.49,0,0,1,3.55-3.39C211.21,281.39,220.21,281.37,229.21,281.37Zm-28.48,22.07a8.37,8.37,0,0,1,5.83,2.36,8,8,0,0,1,2.39,5.55h40.59a7.6,7.6,0,0,1,2.41-5.58,8.45,8.45,0,0,1,5.79-2.34V291.26a8.74,8.74,0,0,1-5.81-2.35,7.63,7.63,0,0,1-2.39-5.56H209c-.29,4.49-3.33,7.58-8.24,7.95Zm57.06,2c-3.38-.35-6.64,3.21-6.09,5.93h4.48a1.48,1.48,0,0,0,1.49-1.08,4.31,4.31,0,0,0,.12-1.08C257.8,308,257.79,306.72,257.79,305.47Zm-50.94,5.92c.15-3.58-3.52-6.34-6.15-5.89,0,1.53,0,3.05,0,4.58a1.51,1.51,0,0,0,1.29,1.3C203.6,311.42,205.21,311.39,206.85,311.39Zm44.82-28.08c-.34,3.24,3.06,6.17,6.12,5.92,0-1.56,0-3.12,0-4.68a1.46,1.46,0,0,0-1.51-1.25c-.62.05-1.26,0-1.89,0Zm-51,5.93c3.45.16,6.44-3.06,6.09-5.93-1.61,0-3.21,0-4.82,0a1.37,1.37,0,0,0-1.27,1.35c0,.74,0,1.48,0,2.22Z"/><path class="cls-15" d="M220,297.34c-.25-4.61,4.12-9.2,9.95-8.8,4.21.29,8.8,3.82,8.54,9.24a9.09,9.09,0,0,1-9.74,8.37C224.15,306,219.82,302.15,220,297.34Zm8.55-5.33c-1.63.48-2.09.73-2.71,1.5a2.4,2.4,0,0,0,.6,3.49c.58.32,1.2.56,1.8.86.14.06.34.2.34.31,0,1.26,0,2.52,0,3.82-.68-.15-1.35-.15-1.82-.68a4.26,4.26,0,0,0,.37-.39,1,1,0,0,0-.6-1.65,1.28,1.28,0,0,0-1.37.52,1.37,1.37,0,0,0,.26,1.55,4.59,4.59,0,0,0,3.14,1.32c.06.42-.11.95.68.93s.41-.6.58-.91l.15-.05a4.61,4.61,0,0,0,2.7-1.25,2.34,2.34,0,0,0,0-3.45,7.25,7.25,0,0,0-2.53-1.3c-.14-.06-.33-.21-.33-.31,0-1.2,0-2.39,0-3.73l1.8.46a6,6,0,0,0-.39.57,1,1,0,1,0,1.87.17,1.88,1.88,0,0,0-1.1-1.23c-.69-.29-1.44-.46-2.16-.69-.08-.32.17-.82-.51-.84C228.79,291,228.65,291.19,228.55,292Z"/><path class="cls-15" d="M229.81,301.89v-3.51a2.55,2.55,0,0,1,1.65.92,1.55,1.55,0,0,1-.11,1.82A1.63,1.63,0,0,1,229.81,301.89Z"/><path class="cls-15" d="M228.57,292.8v3.34c-1.1-.17-1.7-.78-1.68-1.71A1.69,1.69,0,0,1,228.57,292.8Z"/><text class="cls-52" transform="translate(180.62 343.02)">DCPS</text><path class="cls-14" d="M114.07,215.69H107.5a4.31,4.31,0,0,0-4.38-4.18H67.72a4.31,4.31,0,0,0-4.38,4.18H56a4.3,4.3,0,0,0-4.38,4.19V317.7A4.3,4.3,0,0,0,56,321.89h3.72v3.4a.77.77,0,0,0,.78.75h4.57a.78.78,0,0,0,.79-.75v-3.4H105v3.4a.77.77,0,0,0,.78.75H110a.77.77,0,0,0,.78-.75v-3.4h3.29a4.3,4.3,0,0,0,4.38-4.19V219.88A4.3,4.3,0,0,0,114.07,215.69Z"/><path class="cls-11" d="M51.3,269.41V220.56a5.59,5.59,0,0,1,4.4-5.51,7.38,7.38,0,0,1,1.7-.05h3.51c1.54,0,1.58,0,1.53-1.44a1.83,1.83,0,0,1,.72-1.55,1.69,1.69,0,0,1,1.19-.44h42.1a1.85,1.85,0,0,1,1.88,1.82c0,1.6,0,1.6,1.74,1.6,1.32,0,2.65.06,4,0a5.52,5.52,0,0,1,5.31,4.34,16.45,16.45,0,0,1,.14,1.84q0,48.51,0,97a5.59,5.59,0,0,1-6,5.8c-.54,0-.79.1-.7.64a4,4,0,0,1,0,.77,1.58,1.58,0,0,1-1.73,1.68h-6.39c-1.42,0-1.95-.51-1.95-1.83s0-1.25-1.3-1.25q-16.29,0-32.57,0c-.69,0-.92.15-.88.83.07.84.23,1.76-1,2.15a2.86,2.86,0,0,1-.86.11H59.88c-1.33,0-1.92-.58-1.92-1.86a1.93,1.93,0,0,1,0-.34c.18-.8-.23-.91-1-.9a5.46,5.46,0,0,1-5.54-4.47,11.49,11.49,0,0,1-.15-1.93ZM117,266.55c0-15.37,0-30.74,0-46.11a3.35,3.35,0,0,0-3.36-3.23q-28.25,0-56.48,0a3.32,3.32,0,0,0-3.35,3.16q0,46.23,0,92.47c0,.77.2.91,1,.91q30.63,0,61.25,0c.79,0,1-.17,1-.92Q116.95,289.68,117,266.55ZM85.39,316H54.19c-.19,0-.38,0-.37.25a17.25,17.25,0,0,0,.13,3.21c.35,1.4,1.9,2.36,3.8,2.36h55.39c2.29,0,4.1-1.5,3.84-3.61a4.77,4.77,0,0,1,0-1.36c.11-.75-.21-.86-.93-.86Q100.72,316,85.39,316Zm0-101c6.63,0,13.26,0,19.88,0,.55,0,.77-.08.77-.68s-.44-.53-.82-.53H76.6c-3.69,0-7.38,0-11.07,0-.54,0-.76.08-.76.68s.43.53.81.53ZM63,324H60.85c-.3,0-.57-.05-.57.4s.16.46.53.46c1.45,0,2.91,0,4.37,0,.36,0,.53-.05.53-.45s-.27-.42-.57-.41Zm44.77.85c.77,0,1.55,0,2.32,0,.31,0,.42-.1.41-.39s0-.48-.41-.48c-1.52,0-3,0-4.55,0-.35,0-.46.11-.46.44s.11.44.46.43C106.28,324.84,107,324.85,107.77,324.85Z"/><path class="cls-11" d="M110,246.87v22.41a2.22,2.22,0,0,1-2.43,2.36c-14.77,0-29.55,0-44.33,0a2.38,2.38,0,0,1-2.35-2.12,4.34,4.34,0,0,1,0-.51V224.48c0-1.82.86-2.64,2.79-2.64,14.56,0,29.13,0,43.7,0a2.48,2.48,0,0,1,2.64,2.56C109.93,231.88,110,239.37,110,246.87Zm-46.6,0c0,7.24,0,14.48,0,21.73,0,.71.17.87.92.87q21.13,0,42.27,0c.75,0,.92-.16.92-.87q0-21.74,0-43.46c0-.71-.17-.88-.92-.88q-21.14,0-42.27,0c-.75,0-.93.16-.92.88C63.37,232.34,63.35,239.58,63.35,246.83Z"/><path class="cls-11" d="M114.63,271q0,17.33,0,34.64c0,.59-.2,1.05-.75,1.19a1.26,1.26,0,0,1-1.44-.4,1,1,0,0,1-.15-.72q0-34.68,0-69.37a1.27,1.27,0,0,1,1.19-1.35c.76,0,1.15.46,1.15,1.37Z"/><path class="cls-11" d="M95.86,273.52a3.4,3.4,0,0,1,3.48,3.33,3.36,3.36,0,0,1-3.4,3.33,3.44,3.44,0,0,1-3.61-3.37A3.38,3.38,0,0,1,95.86,273.52Zm1,3.18c.12-.66-.53-.89-1-.87a1,1,0,0,0-1,1.06.91.91,0,0,0,1,.9C96.57,277.76,96.84,277.38,96.82,276.7Z"/><path class="cls-11" d="M78.47,276.87a3.56,3.56,0,0,1-3.5,3.32,3.5,3.5,0,0,1-3.51-3.39A3.34,3.34,0,0,1,75,273.53,3.38,3.38,0,0,1,78.47,276.87Zm-2.51,0a1,1,0,1,0-2,0,.92.92,0,0,0,1,1C75.58,277.81,75.87,277.41,76,276.86Z"/><path class="cls-11" d="M114.63,226.81c0,1.39,0,2.79,0,4.19,0,.78-.47,1.05-1.14,1.1a1,1,0,0,1-1.2-1c0-2.94,0-5.87,0-8.81,0-.76.61-1,1.19-1.05a1,1,0,0,1,1.15,1.07C114.62,223.79,114.63,225.3,114.63,226.81Z"/><path class="cls-11" d="M85.4,251.45H69.48c-.74,0-1.28-.19-1.44-.92a1.21,1.21,0,0,1,1.14-1.47,3.23,3.23,0,0,1,.54,0H101.1c1.2,0,1.61.29,1.66,1.15s-.36,1.23-1.27,1.24c-1.44,0-2.87,0-4.31,0Z"/><path class="cls-11" d="M85.3,265.31H69.47c-.73,0-1.27-.2-1.43-.93s.36-1.37,1.23-1.47a4.86,4.86,0,0,1,.54,0H101c1.32,0,1.72.29,1.74,1.24,0,.76-.4,1.14-1.27,1.15-1.56,0-3.12,0-4.68,0Z"/><path class="cls-11" d="M85.49,235.19h15.82c1.12,0,1.57.46,1.45,1.42-.09.77-.79.77-1.32,1a2.15,2.15,0,0,1-.72,0H70.05a3.37,3.37,0,0,1-1.21-.16,1.14,1.14,0,0,1,.37-2.24H85.49Z"/><path class="cls-11" d="M85.49,228.35h15.82c1.09,0,1.45.28,1.45,1.13s-.39,1.09-1.4,1.09q-16,0-32,0c-.68,0-1.1-.21-1.28-.78a1.08,1.08,0,0,1,.39-1.3,1.26,1.26,0,0,1,.92-.16Z"/><path class="cls-11" d="M85.39,242.21h16c1,0,1.37.3,1.37,1.12s-.39,1.1-1.4,1.1q-16,0-32,0a1.15,1.15,0,0,1-1.28-.78,1.08,1.08,0,0,1,.38-1.29,1.3,1.3,0,0,1,.93-.17C74.72,242.2,80.06,242.21,85.39,242.21Z"/><path class="cls-11" d="M85.39,256.07h16c1,0,1.37.3,1.37,1.12s-.39,1.1-1.4,1.1q-16,0-32,0a1.15,1.15,0,0,1-1.28-.78,1.08,1.08,0,0,1,.38-1.29,1.3,1.3,0,0,1,.93-.17Z"/><rect class="cls-12" x="84.26" y="282.7" width="59.94" height="31.52" rx="8.72"/><path class="cls-15" d="M114.21,282.37h27a3.43,3.43,0,0,1,3.6,3.39q0,12.53,0,25.06a3.52,3.52,0,0,1-3.68,3.51H87.24a3.45,3.45,0,0,1-3.59-3.42q0-12.57,0-25.16a3.49,3.49,0,0,1,3.55-3.39C96.21,282.39,105.21,282.37,114.21,282.37ZM85.73,304.44a8.37,8.37,0,0,1,5.83,2.36A8,8,0,0,1,94,312.35h40.59a7.6,7.6,0,0,1,2.41-5.58,8.45,8.45,0,0,1,5.79-2.34V292.26a8.74,8.74,0,0,1-5.81-2.35,7.63,7.63,0,0,1-2.39-5.56H94c-.29,4.49-3.33,7.58-8.24,7.95Zm57.06,2c-3.38-.35-6.64,3.21-6.09,5.93h4.48a1.48,1.48,0,0,0,1.49-1.08,4.31,4.31,0,0,0,.12-1.08C142.8,309,142.79,307.72,142.79,306.47Zm-50.94,5.92c.15-3.58-3.52-6.34-6.15-5.89,0,1.53,0,3.05,0,4.58a1.51,1.51,0,0,0,1.29,1.3C88.6,312.42,90.21,312.39,91.85,312.39Zm44.82-28.08c-.34,3.24,3.06,6.17,6.12,5.92,0-1.56.05-3.12,0-4.68a1.46,1.46,0,0,0-1.51-1.25c-.62.05-1.26,0-1.89,0Zm-51,5.93c3.45.16,6.44-3.06,6.09-5.93-1.61,0-3.21,0-4.82,0a1.37,1.37,0,0,0-1.27,1.35c0,.74,0,1.48,0,2.22Z"/><path class="cls-15" d="M105,298.34c-.25-4.61,4.12-9.2,10-8.8,4.21.29,8.8,3.82,8.54,9.24a9.09,9.09,0,0,1-9.74,8.37C109.15,307,104.82,303.15,105,298.34Zm8.55-5.33c-1.63.48-2.09.73-2.71,1.5a2.4,2.4,0,0,0,.6,3.49c.58.32,1.2.56,1.8.86.14.06.34.2.34.31,0,1.26,0,2.52,0,3.82-.68-.15-1.35-.15-1.82-.68a4.26,4.26,0,0,0,.37-.39,1,1,0,0,0-.6-1.65,1.28,1.28,0,0,0-1.37.52,1.37,1.37,0,0,0,.26,1.55,4.59,4.59,0,0,0,3.14,1.32c.06.42-.11.95.68.93s.41-.6.58-.91l.15-.05a4.61,4.61,0,0,0,2.7-1.25,2.34,2.34,0,0,0,0-3.45,7.25,7.25,0,0,0-2.53-1.3c-.14-.06-.33-.21-.33-.31,0-1.2,0-2.39,0-3.73l1.8.46a6,6,0,0,0-.39.57,1,1,0,1,0,1.87.17,1.88,1.88,0,0,0-1.1-1.23c-.69-.29-1.44-.46-2.16-.69-.08-.32.17-.82-.51-.84C113.79,292,113.65,292.19,113.55,293Z"/><path class="cls-15" d="M114.81,302.89v-3.51a2.55,2.55,0,0,1,1.65.92,1.55,1.55,0,0,1-.11,1.82A1.63,1.63,0,0,1,114.81,302.89Z"/><path class="cls-15" d="M113.57,293.8v3.34c-1.1-.17-1.7-.78-1.68-1.71A1.69,1.69,0,0,1,113.57,293.8Z"/><text class="cls-52" transform="translate(69.61 343.65)">ADS</text><text class="cls-52" transform="translate(706.05 221.65)">No</text><text class="cls-52" transform="translate(830.05 814.65)">No</text><text class="cls-52" transform="translate(827.58 656.65)"><tspan class="cls-53">Y</tspan><tspan x="8.05" y="0">es</tspan></text><text class="cls-52" transform="translate(930.58 733.65)"><tspan class="cls-53">Y</tspan><tspan x="8.05" y="0">es</tspan></text><text class="cls-52" transform="translate(803.05 114.65)">No</text><text class="cls-47" transform="translate(1511.97 737.93)">BI Financial UM<tspan class="cls-50" x="91.75" y="0">T</tspan><tspan x="99.46" y="0" xml:space="preserve"> Reports</tspan></text><text class="cls-47" transform="translate(1235.33 1043.93)">Unmatched Items</text><text class="cls-47" transform="translate(1062.17 630.93)">Post Financial<tspan x="27.09" y="15.6">Data</tspan></text></g></svg>